<svg xmlns="http://www.w3.org/2000/svg" width="25.646" height="25.646" viewBox="0 0 25.646 25.646"><defs><style>.a{fill:#fff;}.b{fill:#026786;}</style></defs><circle class="a" cx="12.823" cy="12.823" r="12.823" transform="translate(0 0)"/><path class="b" d="M12.711,3.938h-.031a3.494,3.494,0,0,0-2.918,1.6,3.494,3.494,0,0,0-2.918-1.6H6.815a3.472,3.472,0,0,0-3.44,3.47,7.476,7.476,0,0,0,1.468,4.075,25.726,25.726,0,0,0,4.92,4.739,25.726,25.726,0,0,0,4.92-4.739,7.476,7.476,0,0,0,1.468-4.075A3.472,3.472,0,0,0,12.711,3.938Zm1.278,7.039a23.556,23.556,0,0,1-4.226,4.164,23.591,23.591,0,0,1-4.226-4.168,6.625,6.625,0,0,1-1.3-3.566A2.606,2.606,0,0,1,6.821,4.8h.028a2.575,2.575,0,0,1,1.262.332,2.684,2.684,0,0,1,.934.875.863.863,0,0,0,1.443,0,2.71,2.71,0,0,1,.934-.875A2.575,2.575,0,0,1,12.684,4.8h.028A2.606,2.606,0,0,1,15.3,7.408,6.709,6.709,0,0,1,13.989,10.977Z" transform="translate(2.313 3.247)"/></svg>