<svg xmlns="http://www.w3.org/2000/svg" xmlns:xlink="http://www.w3.org/1999/xlink" width="68.327" height="31" viewBox="0 0 68.327 31"><defs><style>.a{fill:none;}.b{fill:url(#a);}.c{clip-path:url(#b);}.d{fill:#fff;}</style><linearGradient id="a" x1="0.5" x2="0.5" y2="1" gradientUnits="objectBoundingBox"><stop offset="0" stop-color="#00a3ad"/><stop offset="1" stop-color="#026786"/></linearGradient><clipPath id="b"><rect class="a" width="46.583" height="20"/></clipPath></defs><g transform="translate(-118 -1010)"><g transform="translate(118 1010)"><rect class="b" width="68.327" height="31" rx="5"/></g><g transform="translate(128.872 1015.495)"><g class="c"><path class="d" d="M6.963,42.515a1.65,1.65,0,0,1-1.648-1.648V33.208h3.3v7.659a1.65,1.65,0,0,1-1.648,1.648" transform="translate(-3.651 -22.809)"/><path class="d" d="M1.508,8.62a1.507,1.507,0,0,1,0-3.014h.157V3.423A3.427,3.427,0,0,1,5.089,0H6.647A2.178,2.178,0,0,1,8.929,2.168V2.2A1.439,1.439,0,0,1,8.5,3.221a1.39,1.39,0,0,1-.972.42,1.241,1.241,0,0,1-.536-.122,2.275,2.275,0,0,0-.951-.27c-.728,0-1.082.68-1.082,2.078v.28h.97a1.507,1.507,0,0,1,0,3.014Z" transform="translate(-0.001 0)"/><path class="d" d="M36.769,19.706a1.65,1.65,0,0,1-1.648-1.648V1.648a1.648,1.648,0,0,1,3.3,0v16.41a1.65,1.65,0,0,1-1.648,1.648" transform="translate(-24.123 0)"/><path class="d" d="M107.136,31.459a1.648,1.648,0,0,1-1.224-2.751L116.12,17.36a1.648,1.648,0,0,1,2.451,2.2L108.362,30.913a1.652,1.652,0,0,1-1.226.546Z" transform="translate(-72.456 -11.549)"/><path class="d" d="M134.495,49.941a1.65,1.65,0,0,1-1.217-.536l-2.89-3.16,2.215-2.462,3.107,3.4a1.648,1.648,0,0,1-1.216,2.76" transform="translate(-89.558 -30.073)"/><path class="d" d="M105.774,19.71a1.648,1.648,0,0,1,2.432-2.224l2.89,3.16-2.215,2.463Z" transform="translate(-72.355 -11.642)"/><path class="d" d="M102.53,39.6c0,.051,0,.1,0,.152v-.074c0-.026,0-.052,0-.078" transform="translate(-70.424 -27.196)"/><path class="d" d="M102.522,40.279v-.2c0,.119,0,.237-.009.355a1.511,1.511,0,0,0,.009-.156" transform="translate(-70.412 -27.529)"/><path class="d" d="M61.14,31.19a7.451,7.451,0,1,1,7.606-7.6s0,.121,0,.15c0,.117,0,.233-.009.348a1.278,1.278,0,0,1-1.273,1.131H61.743a1.283,1.283,0,0,1-1.282-1.281v-.273a1.283,1.283,0,0,1,1.282-1.282h3.543l-.067-.173a4.231,4.231,0,0,0-3.948-2.762,4.38,4.38,0,0,0,0,8.756,5.817,5.817,0,0,0,3.173-.9,1.694,1.694,0,0,1,.968-.312,1.979,1.979,0,0,1,1.771,1.253.754.754,0,0,1-.231.888A8.666,8.666,0,0,1,61.14,31.19" transform="translate(-36.768 -11.19)"/></g></g></g></svg>