<svg xmlns="http://www.w3.org/2000/svg" xmlns:xlink="http://www.w3.org/1999/xlink" width="53.299" height="30" viewBox="0 0 53.299 30"><defs><style>.a{fill:#fff;}.b{fill:none;}.c{clip-path:url(#a);}.d{fill:#ffcd05;}</style><clipPath id="a"><path class="a" d="M0,0H53.3V26.461H0Z"/></clipPath></defs><g transform="translate(-40 -25)"><g transform="translate(40 25)"><path class="b" d="M0,0H53.3V26.461H0Z"/><g class="c"><path class="a" d="M51.243,13.442C48.851,9.981,45.127,7.93,39.857,7.171c-.866-.125-1.33-.222-1.461-.4a24.959,24.959,0,0,0-2.3-2.789A12.06,12.06,0,0,0,28.457.271a38.449,38.449,0,0,0-8.3-.085A20.3,20.3,0,0,0,8.985,4.621a20.588,20.588,0,0,0-5.066,6.13,21.737,21.737,0,0,0-1.124,2.461c-.141.351-.265.661-.375.884l-.1.075A4.9,4.9,0,0,0,.78,15.928a12.926,12.926,0,0,0-.759,4.214c-.081,1.964.022,3.929,1.312,5.007l.093.078.106.062a10.626,10.626,0,0,0,5.029,1.172c.378,0,.773-.018,1.183-.058l1.206-.118a7.482,7.482,0,0,1-.732-2.821l-.764.075a8.418,8.418,0,0,1-4.28-.651,6.2,6.2,0,0,1-.231-2.629,11.016,11.016,0,0,1,.448-3.036,2.108,2.108,0,0,1,.711-.769,2.722,2.722,0,0,0,.837-.889,12.043,12.043,0,0,0,.578-1.3A19.237,19.237,0,0,1,6.5,12.112a17.948,17.948,0,0,1,4.426-5.334,17.312,17.312,0,0,1,9.55-3.731,35.5,35.5,0,0,1,7.659.084,9.2,9.2,0,0,1,5.832,2.811,22.206,22.206,0,0,1,2.044,2.483,4.572,4.572,0,0,0,3.427,1.594c4.476.645,7.46,2.247,9.392,5.042a7.891,7.891,0,0,1,1.54,4.839,2.86,2.86,0,0,1-.563,1.692,4.05,4.05,0,0,1-2.352.873H42.089c.016.194.025.388.025.584a7.6,7.6,0,0,1-.353,2.295h5.933l.12-.02A6.646,6.646,0,0,0,51.993,23.5a5.471,5.471,0,0,0,1.292-3.431,10.735,10.735,0,0,0-2.041-6.626" transform="translate(0 0)"/></g></g><path class="d" d="M27.1,1.095A7.922,7.922,0,0,0,19.71.953a12.659,12.659,0,0,0-3.79,3.2l-.03.035.03.036C17.735,6.4,17.735,6.4,17.761,6.4h.028l.018-.021c1.491-1.774,3.276-3.667,5.586-3.667a4.267,4.267,0,0,1,4.3,4.229,4.267,4.267,0,0,1-4.3,4.229,4.329,4.329,0,0,1-1.585-.3A13.1,13.1,0,0,1,16.875,6.8a31.214,31.214,0,0,0-4.963-5c-.225-.171-.462-.327-.691-.479l-.2-.13A7.1,7.1,0,0,0,7.06,0,7.013,7.013,0,0,0,0,6.95,6.9,6.9,0,0,0,3.348,12.8a7.951,7.951,0,0,0,7.314.181,12.2,12.2,0,0,0,3.869-3.236l.03-.035-.03-.036c-1.815-2.178-1.815-2.178-1.841-2.18h-.028l-.018.021c-1.492,1.774-3.276,3.667-5.586,3.667a4.267,4.267,0,0,1-4.3-4.229,4.267,4.267,0,0,1,4.3-4.229,4.333,4.333,0,0,1,1.585.3,12.205,12.205,0,0,1,4.488,3.546q.376.429.749.864a37.928,37.928,0,0,0,3.487,3.689l.045.04a11.659,11.659,0,0,0,2.013,1.535,7.1,7.1,0,0,0,3.965,1.2,7.013,7.013,0,0,0,7.06-6.95A6.9,6.9,0,0,0,27.1,1.095" transform="translate(49.934 41.107)"/></g></svg>