<?xml version="1.0" standalone="no"?>
<!DOCTYPE svg PUBLIC "-//W3C//DTD SVG 1.1//EN" "http://www.w3.org/Graphics/SVG/1.1/DTD/svg11.dtd" >
<svg xmlns="http://www.w3.org/2000/svg" xmlns:xlink="http://www.w3.org/1999/xlink" version="1.1">
<metadata>
Created by FontForge 20170731 at Wed Feb 17 10:45:57 2021
 By Aleksey,,,
Copyright (c) 2011 by Jos Buivenga. All rights reserved.
</metadata>
<defs>
<font id="MuseoSansRounded-700" horiz-adv-x="1196" >
  <font-face 
    font-family="Museo Sans Rounded 700"
    font-weight="600"
    font-stretch="normal"
    units-per-em="2048"
    panose-1="2 0 0 0 0 0 0 0 0 0"
    ascent="1536"
    descent="-512"
    x-height="1044"
    cap-height="1454"
    bbox="-222.829 -449 2312 1847"
    underline-thickness="102"
    underline-position="-307"
    unicode-range="U+0020-FB04"
  />
<missing-glyph horiz-adv-x="1169" 
d="M72 86v1262q0 86 86 86h854q84 0 84 -86v-1262q0 -86 -84 -86h-854q-86 0 -86 86zM584 809l348 522h-696zM645 717l348 -522v1044zM174 195l348 522l-348 522v-1044zM236 102h696l-348 523z" />
    <glyph glyph-name="f_f" unicode="ff" horiz-adv-x="1384" 
d="M184 86v752h-49q-86 0 -86 86v34q0 86 86 86h49v35q0 94 32 166.5t77.5 112t104.5 64.5t103.5 32.5t84.5 7.5h28q86 0 86 -86v-53q0 -78 -88 -84q-25 -2 -43.5 -4.5t-43.5 -13t-41.5 -27.5t-28 -49.5t-11.5 -75.5v-25h433v35q0 94 32 166.5t77.5 112t104 64.5t103 32.5
t84.5 7.5h29q86 0 86 -86v-53q0 -78 -88 -84q-24 -2 -42 -4.5t-43.5 -13.5t-42 -27.5t-28.5 -49t-12 -75.5v-25h139q86 0 86 -86v-34q0 -86 -74 -86h-151v-752q0 -86 -84 -86h-90q-86 0 -86 86v752h-433v-752q0 -86 -86 -86h-88q-86 0 -86 86z" />
    <glyph glyph-name="fi" unicode="fi" horiz-adv-x="1208" 
d="M184 86v752h-51q-84 0 -84 86v34q0 86 84 86h51v35q0 94 32 166.5t77.5 112t104.5 64.5t103 32.5t83 7.5h30q84 0 84 -86v-53q0 -78 -88 -84q-31 -2 -53.5 -7.5t-51.5 -21.5t-45 -51.5t-16 -89.5v-25h551q41 0 63.5 -22.5t22.5 -63.5v-872q0 -86 -86 -86h-90
q-84 0 -84 86v752h-377v-752q0 -86 -86 -86h-90q-84 0 -84 86zM905 1223q-84 0 -84 84v61q0 86 84 86h90q41 0 63.5 -22.5t22.5 -63.5v-61q0 -84 -86 -84h-90z" />
    <glyph glyph-name="fl" unicode="fl" horiz-adv-x="1265" 
d="M819 326v1042q0 86 84 86h90q84 0 84 -86v-1022q0 -69 22.5 -95t59.5 -30q64 -7 64 -74v-69q0 -88 -86 -88q-48 0 -87 6t-84 26.5t-75.5 55.5t-51 98.5t-20.5 149.5zM184 86v737h-51q-84 0 -84 86v35q0 86 84 86h51v49q0 94 32 166.5t77.5 112t104.5 64.5t103 32.5
t83 7.5h30q84 0 84 -86v-53q0 -78 -88 -84q-31 -2 -53.5 -7.5t-51.5 -21.5t-45 -51.5t-16 -89.5v-39h140q84 0 84 -86v-35q0 -86 -84 -86h-140v-737q0 -86 -86 -86h-90q-84 0 -84 86z" />
    <glyph glyph-name="f_f_i" unicode="ffi" horiz-adv-x="1902" 
d="M184 86l-6 752h-45q-84 0 -84 86v34q0 86 84 86h45l6 35q0 94 32 166.5t77.5 112t104.5 64.5t103 32.5t83 7.5h30q84 0 84 -86v-53q0 -78 -88 -84q-31 -2 -53.5 -7.5t-51.5 -21.5t-45 -51.5t-16 -89.5v-25h433v35q0 94 32 166.5t77.5 112t104 64.5t103 32.5t84.5 7.5h29
q84 0 84 -86v-53q0 -78 -88 -84q-31 -2 -53.5 -7.5t-51.5 -21.5t-45 -51.5t-16 -89.5v-25h551q41 0 63.5 -22.5t22.5 -63.5v-872q0 -86 -86 -86h-89q-86 0 -86 86v752h-376v-752q0 -86 -86 -86h-88q-86 0 -86 86v752h-433v-752q0 -86 -86 -86h-90q-84 0 -84 86zM1513 1307
v61q0 86 86 86h89q86 0 86 -86v-61q0 -84 -86 -84h-89q-86 0 -86 84z" />
    <glyph glyph-name="f_f_l" unicode="ffl" horiz-adv-x="1957" 
d="M184 86l-6 752h-43q-86 0 -86 86v34q0 86 86 86h43l6 35q0 94 32 166.5t77.5 112t104.5 64.5t103.5 32.5t84.5 7.5h28q86 0 86 -86v-53q0 -78 -88 -84q-25 -2 -43.5 -4.5t-43.5 -13t-41.5 -27.5t-28 -49.5t-11.5 -75.5v-25h433v35q0 94 32 166.5t77.5 112t104 64.5
t103 32.5t84.5 7.5h29q86 0 86 -86v-53q0 -78 -88 -84q-24 -2 -42 -4.5t-43.5 -13.5t-42 -27.5t-28.5 -49t-12 -75.5v-25h139q86 0 86 -86v-34q0 -86 -74 -86h-151v-752q0 -86 -84 -86h-90q-86 0 -86 86v752h-433v-752q0 -86 -86 -86h-88q-86 0 -86 86zM1513 326v1042
q0 86 84 86h91q84 0 84 -86v-1022q0 -69 22.5 -95t58.5 -30q64 -7 64 -74v-69q0 -88 -88 -88q-47 0 -86 6t-84 26.5t-75 55.5t-50.5 98.5t-20.5 149.5z" />
    <glyph glyph-name="f_j" unicode="fj" horiz-adv-x="1214" 
d="M184 86v752h-49q-86 0 -86 86v34q0 86 86 86h49v35q0 94 32 166.5t77.5 112t104.5 64.5t103.5 32.5t84.5 7.5h28q86 0 86 -86v-53q0 -78 -88 -84q-25 -2 -43.5 -4.5t-43.5 -13t-41.5 -27.5t-28 -49.5t-11.5 -75.5v-25h555q84 0 84 -86v-985q0 -96 -32.5 -171t-78 -116
t-104.5 -67.5t-103 -34.5t-81 -8h-29q-86 0 -86 86v53q0 40 21 59.5t65 24.5q170 14 170 191v848h-381v-752q0 -86 -86 -86h-88q-86 0 -86 86zM909 1223q-86 0 -86 84v61q0 41 22.5 63.5t63.5 22.5h90q84 0 84 -86v-61q0 -84 -84 -84h-90z" />
    <glyph glyph-name=".notdef" horiz-adv-x="1169" 
d="M72 86v1262q0 86 86 86h854q84 0 84 -86v-1262q0 -86 -84 -86h-854q-86 0 -86 86zM584 809l348 522h-696zM645 717l348 -522v1044zM174 195l348 522l-348 522v-1044zM236 102h696l-348 523z" />
    <glyph glyph-name=".null" horiz-adv-x="0" 
 />
    <glyph glyph-name="nonmarkingreturn" horiz-adv-x="682" 
 />
    <glyph glyph-name="space" unicode=" " horiz-adv-x="512" 
 />
    <glyph glyph-name="exclam" unicode="!" horiz-adv-x="552" 
d="M246 420q-83 0 -86 84l-17 862q0 88 84 88h97q42 0 63.5 -23t20.5 -65l-17 -862q0 -84 -86 -84h-59zM152 86v72q0 86 84 86h81q41 0 63.5 -22.5t22.5 -63.5v-72q0 -86 -86 -86h-81q-84 0 -84 86z" />
    <glyph glyph-name="quotedbl" unicode="&#x22;" horiz-adv-x="724" 
d="M516 1024q-86 0 -86 84v287q0 41 22.5 63.5t63.5 22.5h23q84 0 84 -86v-287q0 -84 -84 -84h-23zM186 1024q-84 0 -84 84v287q0 86 84 86h23q86 0 86 -86v-287q0 -84 -86 -84h-23z" />
    <glyph glyph-name="numbersign" unicode="#" horiz-adv-x="1425" 
d="M254 92l51 291h-149q-44 0 -64.5 23.5t-13.5 66.5l4 21q9 75 90 75h166l51 287h-149q-43 0 -63.5 24.5t-14.5 65.5l4 21q12 77 90 77h164l57 332q15 78 94 78h35q44 0 65 -24.5t13 -67.5l-55 -318h278l60 332q12 78 92 78h37q44 0 64 -24.5t14 -67.5l-58 -318h154
q44 0 65 -24.5t13 -67.5l-2 -18q-12 -78 -93 -78h-168l-51 -287h152q44 0 64 -23.5t14 -66.5l-4 -20q-12 -76 -93 -76h-163l-54 -305q-12 -78 -92 -78h-37q-44 0 -65 24.5t-13 67.5l52 291h-281l-51 -305q-15 -78 -94 -78h-37q-43 0 -63.5 24.5t-14.5 67.5zM547 569h278
l52 287h-281z" />
    <glyph glyph-name="dollar" unicode="$" horiz-adv-x="1124" 
d="M129 121q-32 23 -35 55t21 64l45 63q48 66 119 19q146 -103 292 -103q89 0 151 45.5t62 130.5q0 39 -23.5 72.5t-63.5 59.5t-92 51t-109.5 50t-115 52.5t-109.5 64t-92 79.5t-63.5 103t-23.5 130q0 157 107 270t278 141v109q0 84 82 84h14q80 0 80 -72v-116
q169 -12 297 -103q67 -40 25 -115l-35 -69q-39 -71 -117 -27q-122 76 -245 76q-94 0 -158 -49t-64 -125q0 -39 23.5 -71.5t64 -57.5t92.5 -48.5t109.5 -47.5t114.5 -51t109 -63.5t92.5 -80t64 -105.5t23.5 -135q0 -161 -106.5 -278t-289.5 -141v-103q0 -86 -80 -86h-14
q-82 0 -82 72v117q-195 21 -348 139z" />
    <glyph glyph-name="percent" unicode="%" horiz-adv-x="1622" 
d="M414 831q-139 0 -236.5 94.5t-97.5 229.5q0 133 97.5 228.5t236.5 95.5q138 0 236 -96t98 -228q0 -135 -98 -229.5t-236 -94.5zM213 104l995 1299q39 51 105 51h41q55 0 70 -30.5t-19 -73.5l-995 -1299q-39 -51 -105 -51h-43q-54 0 -68.5 30.5t19.5 73.5zM414 1020
q57 0 97 39t40 96q0 56 -40 95.5t-97 39.5t-96 -39.5t-39 -95.5q0 -57 39 -96t96 -39zM874 297q0 133 97.5 228.5t236.5 95.5q138 0 236 -96t98 -228q0 -133 -98 -227.5t-236 -94.5q-139 0 -236.5 94t-97.5 228zM1073 299q0 -57 39 -96t96 -39t97.5 39t40.5 96
q0 56 -40.5 95.5t-97.5 39.5t-96 -39.5t-39 -95.5z" />
    <glyph glyph-name="ampersand" unicode="&#x26;" horiz-adv-x="1335" 
d="M80 412q0 121 67.5 222t180.5 140v4q-4 2 -10.5 5t-26 15t-37 27.5t-38.5 42t-36.5 57.5t-26 76t-10.5 95q0 125 63 213t165 129t231 41h86q41 0 63.5 -22.5t22.5 -63.5v-52q0 -84 -86 -84h-67q-97 0 -154 -56t-57 -138q0 -34 10.5 -66t34 -61.5t69 -47.5t107.5 -18h231
v105q0 84 86 84h88q86 0 86 -70v-119h103q41 0 63.5 -22.5t22.5 -63.5v-57q0 -41 -22.5 -63.5t-63.5 -22.5h-103v-172q0 -225 -139.5 -359.5t-384.5 -134.5q-231 0 -374.5 124.5t-143.5 312.5zM350 428q0 -90 69 -150.5t179 -60.5q126 0 195 68t69 198v158h-246
q-124 0 -195 -54.5t-71 -158.5z" />
    <glyph glyph-name="quotesingle" unicode="'" horiz-adv-x="397" 
d="M186 1053q-86 0 -86 86v256q0 41 22.5 63.5t63.5 22.5h27q84 0 84 -86v-256q0 -86 -84 -86h-27z" />
    <glyph glyph-name="parenleft" unicode="(" horiz-adv-x="583" 
d="M301 -143q-213 384 -213 845q0 402 207 758q18 32 42 45t60 13h39q50 0 66.5 -27.5t-6.5 -73.5q-177 -352 -177 -717q0 -410 183 -794q21 -44 4 -72.5t-66 -28.5h-43q-68 0 -96 52z" />
    <glyph glyph-name="parenright" unicode=")" horiz-adv-x="583" 
d="M82 -90q180 384 180 790q0 373 -176 717q-24 46 -9 73.5t64 27.5h43q69 0 103 -58q209 -360 209 -758q0 -456 -211 -839q-33 -58 -101 -58h-41q-50 0 -66 29.5t5 75.5z" />
    <glyph glyph-name="asterisk" unicode="*" horiz-adv-x="960" 
d="M264 711l-43 30q-34 25 -38 55.5t24 61.5l112 139v4l-169 46q-41 9 -57.5 35.5t-4.5 66.5l16 51q14 40 41.5 54t65.5 -3l168 -65l-10 178q-4 43 17.5 66.5t64.5 23.5h57q42 0 63 -23t17 -65l-10 -180l165 65q40 16 69.5 3t41.5 -52l16 -51q25 -84 -57 -102l-176 -48v-4
l113 -135q59 -65 -13 -121l-43 -30q-34 -26 -64 -20.5t-52 42.5l-97 150h-4l-94 -148q-48 -77 -119 -24z" />
    <glyph glyph-name="plus" unicode="+" horiz-adv-x="1267" 
d="M172 483q-86 0 -86 86v31q0 86 86 86h356v399q0 41 22.5 63.5t63.5 22.5h41q84 0 84 -86v-399h359q84 0 84 -86v-31q0 -86 -84 -86h-359v-397q0 -86 -84 -86h-41q-86 0 -86 86v397h-356z" />
    <glyph glyph-name="comma" unicode="," horiz-adv-x="499" 
d="M43 -147l100 340q20 71 97 71h77q47 0 66 -28t0 -72l-141 -342q-26 -66 -99 -66h-26q-47 0 -66.5 26t-7.5 71z" />
    <glyph glyph-name="hyphen" unicode="-" horiz-adv-x="854" 
d="M205 471q-86 0 -86 86v57q0 84 86 84h444q86 0 86 -84v-57q0 -86 -86 -86h-444z" />
    <glyph glyph-name="period" unicode="." horiz-adv-x="487" 
d="M113 86v92q0 84 86 84h90q86 0 86 -84v-92q0 -86 -86 -86h-90q-86 0 -86 86z" />
    <glyph glyph-name="slash" unicode="/" horiz-adv-x="831" 
d="M74 10l469 1448q24 70 98 70h45q46 0 65.5 -26t6.5 -70l-469 -1448q-21 -70 -96 -70h-48q-46 0 -65 26t-6 70z" />
    <glyph glyph-name="zero" unicode="0" horiz-adv-x="1277" 
d="M639 -25q-116 0 -207 38.5t-150 106t-97.5 164t-55 206t-16.5 239.5t16.5 239t55 205t97.5 162.5t150 105t207 38.5t207 -38.5t150.5 -105t98.5 -162.5t55.5 -205t16.5 -239t-16.5 -239.5t-55.5 -206t-98.5 -164t-150.5 -106t-207 -38.5zM639 217q256 0 256 512
q0 506 -256 506t-256 -506q0 -512 256 -512z" />
    <glyph glyph-name="one" unicode="1" horiz-adv-x="1007" 
d="M88 86v57q0 84 84 84h231v807l3 99h-5q-18 -39 -55 -74l-63 -62q-64 -57 -119 4l-39 41q-59 60 2 121l258 248q49 43 107 43h86q84 0 84 -86v-1141h229q86 0 86 -84v-57q0 -86 -86 -86h-719q-84 0 -84 86z" />
    <glyph glyph-name="two" unicode="2" horiz-adv-x="1161" 
d="M88 86v43q0 106 37.5 198.5t97.5 158.5t132.5 124t145 107t132.5 95.5t97.5 101t37.5 112.5q0 93 -63 148t-158 55q-125 0 -215 -109q-65 -65 -121 -18l-55 43q-68 52 -23 115q28 38 62.5 71t88 69t127.5 57.5t158 21.5q129 0 235 -49.5t172 -148.5t66 -232
q0 -95 -36 -177.5t-93.5 -142.5t-127.5 -113t-140.5 -98.5t-129 -89t-96.5 -95t-40 -106.5h600q86 0 86 -84v-57q0 -86 -86 -86h-799q-41 0 -66.5 22.5t-25.5 63.5z" />
    <glyph glyph-name="three" unicode="3" horiz-adv-x="1146" 
d="M111 117q-66 51 -17 119l41 63q44 66 117 18q132 -92 262 -92q114 0 188 61.5t74 155.5q0 110 -88 168t-223 58h-31q-67 0 -94 59l-8 16q-28 59 18 111l223 264q24 30 50.5 58t40.5 40l14 13v4q-45 -6 -129 -6h-350q-84 0 -84 84v57q0 86 84 86h716q86 0 86 -84v-22
q0 -64 -38 -105l-318 -366q78 -11 148 -43.5t126.5 -84t89.5 -128.5t33 -168q0 -94 -35 -179.5t-98.5 -152.5t-162 -106.5t-216.5 -39.5q-226 0 -419 142z" />
    <glyph glyph-name="four" unicode="4" horiz-adv-x="1243" 
d="M125 375q-84 0 -84 84v20q0 61 31 105l561 815q35 55 102 55h160q86 0 86 -86v-774h102q86 0 86 -84v-51q0 -84 -69 -84h-119v-289q0 -86 -86 -86h-90q-84 0 -84 86v289h-596zM319 594h402v450q0 32 2.5 70t4.5 60l3 22h-4q-33 -78 -72 -133l-336 -465v-4z" />
    <glyph glyph-name="five" unicode="5" horiz-adv-x="1146" 
d="M129 121q-30 23 -33 55t21 62l41 61q44 67 116 16q114 -90 242 -90q111 0 191.5 68.5t80.5 179.5q0 113 -82 182.5t-208 69.5q-76 0 -168 -37q-65 -22 -115 -4l-18 6q-70 27 -64 103l53 579q6 82 88 82h598q86 0 86 -86v-57q0 -84 -86 -84h-450l-23 -240q-1 -17 -3.5 -34
t-4.5 -25l-2 -8h4q68 32 156 32q234 0 373 -137t139 -340q0 -215 -149 -357.5t-375 -142.5q-229 0 -408 146z" />
    <glyph glyph-name="six" unicode="6" horiz-adv-x="1226" 
d="M100 657q0 120 26 237t81 223t132.5 186.5t189 128t241.5 47.5q122 0 219 -33q79 -25 51 -109l-24 -67q-13 -41 -37.5 -52.5t-63.5 -3.5q-74 21 -131 21q-85 0 -154.5 -33t-116 -90.5t-76 -127t-44.5 -150.5h4q38 48 115.5 81t177.5 33q134 0 238 -64t158.5 -169.5
t54.5 -233.5q0 -137 -58.5 -252t-169 -184.5t-251.5 -69.5q-114 0 -215.5 47t-179 132.5t-122.5 216t-45 286.5zM375 561q0 -75 36 -153.5t104 -134.5t147 -56q99 0 159 69.5t60 178.5q0 115 -72 190.5t-207 75.5q-98 0 -162.5 -47t-64.5 -123z" />
    <glyph glyph-name="seven" unicode="7" horiz-adv-x="1079" 
d="M188 100l496 994q20 40 40.5 73t31.5 47l10 13v4q-22 -4 -94 -4h-537q-84 0 -84 84v57q0 86 84 86h830q86 0 86 -84v-45q0 -55 -25 -104l-582 -1160q-33 -61 -102 -61h-92q-49 0 -66.5 28t4.5 72z" />
    <glyph glyph-name="eight" unicode="8" horiz-adv-x="1239" 
d="M98 412q0 61 19.5 119.5t45 98t61 77t56.5 54.5t42 32q-166 119 -166 290q0 76 29 145.5t84.5 126t146.5 90.5t205 34q208 0 342.5 -108t134.5 -286q0 -65 -20 -129t-51 -112.5t-52.5 -76t-40.5 -46.5q201 -120 201 -315q0 -83 -35.5 -160t-100 -137.5t-164 -97
t-217.5 -36.5q-231 0 -375.5 127t-144.5 310zM745 813l12 17q12 17 17.5 25.5t18 28.5t19 37t15 39.5t12 46.5t3.5 48q0 92 -59 143t-160 51q-100 0 -154.5 -48t-54.5 -122q0 -23 4.5 -43.5t18 -39t24 -32.5t35.5 -30t38.5 -25.5t48 -25.5t49.5 -22.5t56.5 -24t56.5 -23.5z
M362 440q0 -104 75.5 -169.5t183.5 -65.5q100 0 171.5 58t71.5 147q0 26 -8 48.5t-18.5 40t-33.5 35.5t-42 30.5t-55 30t-60.5 28t-71 30.5t-75.5 33q-61 -55 -86 -91q-52 -73 -52 -155z" />
    <glyph glyph-name="nine" unicode="9" horiz-adv-x="1226" 
d="M186 115l25 69q13 40 36.5 51.5t63.5 4.5q85 -23 131 -23q85 0 155 33.5t116.5 91.5t76 128t44.5 151h-5q-39 -51 -120.5 -84t-176.5 -33q-129 0 -232.5 65.5t-158.5 174t-55 237.5q0 136 58.5 249t168.5 181t250 68q115 0 217 -47t179 -132.5t122 -216t45 -286.5
q0 -120 -25.5 -236.5t-80.5 -222.5t-132 -186.5t-188.5 -128.5t-242.5 -48q-122 0 -219 33q-80 25 -52 107zM625 721q98 0 162.5 48t64.5 124q0 55 -22 115t-59 110.5t-91.5 83.5t-114.5 33q-99 0 -158 -69t-59 -179q0 -114 71.5 -190t205.5 -76z" />
    <glyph glyph-name="colon" unicode=":" horiz-adv-x="501" 
d="M207 784q-84 0 -84 84v90q0 86 84 86h88q86 0 86 -86v-90q0 -84 -86 -84h-88zM123 86v88q0 86 84 86h88q86 0 86 -86v-88q0 -86 -86 -86h-88q-84 0 -84 86z" />
    <glyph glyph-name="semicolon" unicode=";" horiz-adv-x="565" 
d="M266 780q-84 0 -84 86v92q0 86 84 86h84q41 0 63.5 -22.5t22.5 -63.5v-92q0 -41 -22.5 -63.5t-63.5 -22.5h-84zM76 -150l86 340q18 74 94 74h78q49 0 67.5 -27t-0.5 -71l-125 -342q-23 -68 -98 -68h-28q-45 0 -65 25.5t-9 68.5z" />
    <glyph glyph-name="less" unicode="&#x3c;" horiz-adv-x="1267" 
d="M178 473q-63 25 -63 100v25q0 72 63 100l821 365q44 20 72.5 1.5t28.5 -65.5v-47q0 -71 -68 -98l-643 -266v-4l643 -267q68 -27 68 -98v-47q0 -49 -28.5 -67t-72.5 1z" />
    <glyph glyph-name="equal" unicode="=" horiz-adv-x="1267" 
d="M219 694q-84 0 -84 86v31q0 84 84 84h830q86 0 86 -84v-31q0 -41 -22.5 -63.5t-63.5 -22.5h-830zM219 274q-84 0 -84 84v31q0 86 84 86h830q86 0 86 -86v-31q0 -84 -86 -84h-830z" />
    <glyph glyph-name="greater" unicode="&#x3e;" horiz-adv-x="1267" 
d="M170 172v47q0 72 66 98l643 267v4l-643 266q-66 26 -66 98v47q0 48 27 66t71 -2l822 -365q65 -29 65 -100v-25q0 -74 -65 -100l-822 -364q-44 -20 -71 -2.5t-27 65.5z" />
    <glyph glyph-name="question" unicode="?" horiz-adv-x="960" 
d="M350 420q-86 0 -86 84v33q0 61 25 115.5t62.5 92.5t81.5 79t81.5 75t62.5 79.5t25 94.5q0 72 -57 121t-142 49q-67 0 -151 -41q-82 -43 -123 21l-35 51q-52 71 15 115q140 94 317 94q117 0 218 -44.5t165.5 -134t64.5 -206.5q0 -65 -18.5 -122t-48 -98.5t-65.5 -78.5
t-73.5 -70t-69 -64.5t-54 -70t-27.5 -80.5l-4 -35q-7 -32 -26 -45.5t-56 -13.5h-82zM264 86v72q0 41 22.5 63.5t63.5 22.5h82q84 0 84 -86v-72q0 -86 -84 -86h-82q-86 0 -86 86z" />
    <glyph glyph-name="at" unicode="@" horiz-adv-x="1658" 
d="M94 492q0 126 38 242.5t109 210.5t165.5 164t213 108t246.5 38q122 0 219 -24t160.5 -65t106 -98.5t60.5 -121.5t18 -137v-512h63q84 0 84 -84v-16q0 -86 -84 -86h-481q-100 0 -184.5 32t-140 85t-86 121.5t-30.5 142.5q0 154 119.5 264t321.5 110h172q-1 79 -88.5 130
t-221.5 51q-145 0 -266 -78t-188.5 -205t-67.5 -272q0 -210 129 -364t344 -181q82 -12 82 -88v-33q0 -42 -23 -64t-65 -18q-214 18 -380 121t-255.5 267t-89.5 360zM829 498q0 -85 55 -143t144 -58h156v401h-152q-91 0 -147 -58t-56 -142z" />
    <glyph glyph-name="A" unicode="A" horiz-adv-x="1298" 
d="M33 98l454 1286q24 70 97 70h131q75 0 96 -70l455 -1286q15 -44 -4 -71t-66 -27h-94q-75 0 -96 70l-103 303h-510l-100 -301q-21 -72 -96 -72h-95q-47 0 -65.5 26.5t-3.5 71.5zM459 588h379l-129 389q-11 36 -25.5 92.5t-23.5 94.5l-9 38h-4q-32 -143 -57 -225z" />
    <glyph glyph-name="B" unicode="B" horiz-adv-x="1277" 
d="M168 86v1282q0 86 84 86h434q201 0 326 -99.5t125 -275.5q0 -102 -46.5 -184.5t-129.5 -126.5v-4q113 -34 173 -129.5t60 -212.5q0 -85 -26.5 -155.5t-72.5 -119t-109.5 -82.5t-137.5 -49.5t-156 -15.5h-440q-84 0 -84 86zM430 860h258q83 0 130.5 53t47.5 134
t-47.5 130.5t-136.5 49.5h-252v-367zM430 227h283q99 0 155 58.5t56 152.5q0 93 -56.5 151t-154.5 58h-283v-420z" />
    <glyph glyph-name="C" unicode="C" horiz-adv-x="1441" 
d="M82 733q0 157 55.5 294.5t153.5 237t238 157t302 57.5q269 0 476 -146q62 -48 16 -119l-37 -59q-42 -68 -117 -20q-157 102 -327 102q-115 0 -209 -40.5t-154.5 -109.5t-92.5 -159t-32 -191q0 -103 33 -196t94 -165.5t155 -115.5t208 -43q180 0 356 127q72 53 119 -14
l41 -56q50 -65 -12 -118q-225 -181 -514 -181q-224 0 -396.5 100.5t-264 272t-91.5 385.5z" />
    <glyph glyph-name="D" unicode="D" horiz-adv-x="1490" 
d="M168 86v1282q0 86 84 86h412q340 0 540.5 -192t200.5 -533t-200.5 -535t-540.5 -194h-412q-84 0 -84 86zM430 227h219q225 0 354.5 130t129.5 372q0 239 -130.5 368.5t-353.5 129.5h-219v-1000z" />
    <glyph glyph-name="E" unicode="E" horiz-adv-x="1140" 
d="M168 86v1282q0 86 84 86h700q41 0 63.5 -22.5t22.5 -63.5v-57q0 -84 -86 -84h-522v-381h406q86 0 86 -84v-57q0 -87 -86 -87h-406v-391h555q86 0 86 -84v-57q0 -86 -86 -86h-733q-84 0 -84 86z" />
    <glyph glyph-name="F" unicode="F" horiz-adv-x="1048" 
d="M168 86v1282q0 86 84 86h666q41 0 63.5 -22.5t22.5 -63.5v-57q0 -84 -86 -84h-488v-412h397q86 0 86 -84v-57q0 -41 -22.5 -63.5t-63.5 -22.5h-397v-502q0 -86 -84 -86h-94q-84 0 -84 86z" />
    <glyph glyph-name="G" unicode="G" horiz-adv-x="1544" 
d="M82 721q0 214 97 387.5t269 272t386 98.5q158 0 283 -43t192 -90q64 -50 18 -119l-37 -58q-43 -65 -119 -22q-153 90 -323 90q-116 0 -210.5 -40t-156 -109t-94.5 -160.5t-33 -194.5q0 -112 38 -209t103.5 -164t155 -105t189.5 -38q68 0 131 16.5t104.5 40t73 47
t45.5 39.5l14 17v162h-139q-41 0 -63.5 22.5t-22.5 63.5v55q0 86 86 86h291q84 0 84 -86v-594q0 -86 -84 -86h-51q-40 0 -62 19t-22 51v34l2 35h-4q-6 -7 -17.5 -18t-51.5 -39t-85.5 -50t-119 -39.5t-152.5 -17.5q-144 0 -274 55t-228 151t-155.5 237t-57.5 303z" />
    <glyph glyph-name="H" unicode="H" horiz-adv-x="1525" 
d="M168 86v1282q0 86 84 86h94q84 0 84 -86v-530h666v530q0 86 86 86h92q84 0 84 -86v-1282q0 -86 -84 -86h-92q-86 0 -86 86v524h-666v-524q0 -86 -84 -86h-94q-84 0 -84 86z" />
    <glyph glyph-name="I" unicode="I" horiz-adv-x="598" 
d="M168 86v1282q0 86 84 86h94q84 0 84 -86v-1282q0 -86 -84 -86h-94q-84 0 -84 86z" />
    <glyph glyph-name="J" unicode="J" horiz-adv-x="1095" 
d="M39 430q0 84 84 84h96q41 0 59 -18.5t23 -63.5q7 -96 53.5 -155.5t137.5 -59.5q82 0 135 53.5t53 163.5v793h-289q-86 0 -86 84v57q0 86 86 86h467q41 0 63.5 -22.5t22.5 -63.5v-938q0 -114 -39 -204t-104 -143t-144 -80.5t-165 -27.5q-87 0 -166 28t-144 82t-104 143.5
t-39 201.5z" />
    <glyph glyph-name="K" unicode="K" horiz-adv-x="1286" 
d="M168 86v1282q0 86 84 86h94q84 0 84 -86v-506h191l307 533q33 59 100 59h100q51 0 68 -29.5t-8 -72.5l-352 -590v-4l378 -656q26 -44 9 -73t-68 -29h-113q-67 0 -100 59l-321 576h-191v-549q0 -86 -84 -86h-94q-84 0 -84 86z" />
    <glyph glyph-name="L" unicode="L" horiz-adv-x="1067" 
d="M168 86v1282q0 86 84 86h94q84 0 84 -86v-1141h543q86 0 86 -84v-57q0 -86 -86 -86h-721q-84 0 -84 86z" />
    <glyph glyph-name="M" unicode="M" horiz-adv-x="1746" 
d="M121 88l104 1284q9 82 88 82h129q73 0 97 -70l260 -649q15 -38 33 -91.5t29 -87.5l11 -34h5q38 127 71 213l260 649q24 70 99 70h127q82 0 88 -82l104 -1284q3 -42 -18.5 -65t-63.5 -23h-92q-82 0 -88 82l-55 731q-3 43 -3.5 99t0.5 91l1 35h-4q-45 -141 -78 -225
l-211 -496q-24 -67 -96 -67h-87q-74 0 -98 67l-209 496q-15 37 -35 94t-33 95l-12 38h-4q4 -131 -2 -227l-55 -731q-6 -82 -88 -82h-92q-42 0 -63.5 23t-18.5 65z" />
    <glyph glyph-name="N" unicode="N" horiz-adv-x="1521" 
d="M168 86v1282q0 86 84 86h110q71 0 103 -57l516 -783q24 -38 54.5 -94.5t48.5 -93.5l18 -37h4q-14 139 -14 225v754q0 41 22.5 63.5t63.5 22.5h92q41 0 63.5 -22.5t22.5 -63.5v-1282q0 -86 -86 -86h-111q-68 0 -100 57l-518 781q-24 38 -54 94.5t-49 93.5l-18 37h-4
q14 -139 14 -225v-752q0 -86 -84 -86h-94q-84 0 -84 86z" />
    <glyph glyph-name="O" unicode="O" horiz-adv-x="1667" 
d="M82 737q0 206 95.5 375.5t268 268t388.5 98.5t388.5 -98.5t267.5 -268t95 -375.5q0 -212 -95 -386t-267.5 -275t-388.5 -101t-388.5 101t-268 275t-95.5 386zM354 737q0 -223 136 -371.5t344 -148.5t343.5 148.5t135.5 371.5q0 214 -135.5 357t-343.5 143t-344 -143
t-136 -357z" />
    <glyph glyph-name="P" unicode="P" horiz-adv-x="1236" 
d="M168 86v1282q0 86 84 86h475q205 0 334 -131t129 -342q0 -212 -129.5 -345.5t-333.5 -133.5h-297v-416q0 -86 -84 -86h-94q-84 0 -84 86zM430 731h248q116 0 180 67.5t64 182.5q0 114 -63.5 180t-176.5 66h-252v-496z" />
    <glyph glyph-name="Q" unicode="Q" horiz-adv-x="1667" 
d="M82 735q0 155 56.5 292.5t155 236.5t239 157t301.5 58q162 0 302.5 -58t238.5 -157t154 -236.5t56 -292.5q0 -254 -160 -461l99 -92q65 -55 8 -121l-37 -38q-59 -63 -113 -9l-104 105q-193 -144 -444 -144q-162 0 -302.5 59.5t-239 161.5t-154.5 242t-56 297zM354 735
q0 -220 137.5 -369t342.5 -149q146 0 253 78l-100 96q-63 56 -6 119l37 39q58 64 112 10l103 -104q80 125 80 280q0 215 -137.5 358.5t-341.5 143.5q-206 0 -343 -143.5t-137 -358.5z" />
    <glyph glyph-name="R" unicode="R" horiz-adv-x="1282" 
d="M168 86v1282q0 86 84 86h393q189 0 277 -39q113 -47 178 -149.5t65 -247.5q0 -132 -64.5 -242t-176.5 -155v-5q18 -22 47 -75l239 -439q26 -44 9 -73t-68 -29h-111q-67 0 -100 59l-256 484h-254v-457q0 -86 -84 -86h-94q-84 0 -84 86zM430 772h238q106 0 167.5 62.5
t61.5 169.5q0 151 -115 198q-55 25 -157 25h-195v-455z" />
    <glyph glyph-name="S" unicode="S" horiz-adv-x="1124" 
d="M117 123q-19 16 -28 31.5t-6.5 38.5t21.5 49l46 65q24 33 52 37t66 -18q152 -107 295 -107q100 0 158.5 46t58.5 120q0 44 -23 80.5t-62.5 63.5t-90.5 52t-107 49t-112 51t-107 62.5t-90.5 78t-62.5 103t-23 132.5q0 125 65 222t176 148.5t249 51.5q116 0 217 -34.5
t158 -76.5q65 -47 26 -117l-37 -67q-37 -71 -116 -29q-39 23 -68 37.5t-80.5 28.5t-103.5 14q-101 0 -161 -45t-60 -119q0 -55 37.5 -97.5t97 -72.5t131.5 -59.5t144.5 -66t132 -82.5t97 -119.5t37.5 -167.5q0 -89 -32.5 -167t-93 -137t-152.5 -93t-203 -34
q-138 0 -256 46.5t-190 101.5z" />
    <glyph glyph-name="T" unicode="T" horiz-adv-x="1239" 
d="M489 86v1141h-391q-86 0 -86 84v57q0 86 86 86h1045q84 0 84 -86v-57q0 -84 -84 -84h-391v-1141q0 -86 -86 -86h-93q-84 0 -84 86z" />
    <glyph glyph-name="U" unicode="U" horiz-adv-x="1472" 
d="M152 522v846q0 86 84 86h92q86 0 86 -86v-844q0 -146 86.5 -226.5t234.5 -80.5q149 0 236.5 80.5t87.5 226.5v844q0 86 84 86h94q84 0 84 -86v-846q0 -245 -161 -396t-423 -151q-263 0 -424 151t-161 396z" />
    <glyph glyph-name="V" unicode="V" horiz-adv-x="1306" 
d="M492 68l-467 1288q-15 45 3.5 71.5t65.5 26.5h109q75 0 96 -72l297 -876q12 -37 26 -90.5t22 -87.5l7 -35h4q27 129 56 213l301 876q18 72 94 72h104q47 0 66 -27t4 -71l-465 -1288q-23 -68 -96 -68h-131q-73 0 -96 68z" />
    <glyph glyph-name="W" unicode="W" horiz-adv-x="1966" 
d="M393 74l-321 1286q-11 43 8.5 68.5t64.5 25.5h103q74 0 92 -76l211 -929q8 -36 13.5 -74.5t7.5 -58.5l1 -21h5q7 70 30 154l242 931q21 74 96 74h70q77 0 92 -74l240 -931q10 -37 17.5 -75.5t10.5 -58.5l2 -20h4q7 72 25 154l223 929q15 76 94 76h97q45 0 65.5 -25.5
t9.5 -68.5l-333 -1288q-21 -72 -97 -72h-145q-76 0 -94 74l-207 786q-11 42 -21 89.5t-14 74.5l-4 27h-6q-14 -97 -37 -191l-209 -786q-18 -74 -94 -74h-148q-76 0 -94 74z" />
    <glyph glyph-name="X" unicode="X" horiz-adv-x="1245" 
d="M74 102l389 635l-373 615q-26 43 -10 72.5t67 29.5h115q67 0 100 -59l168 -297l91 -178h4q43 92 90 178l170 297q33 59 100 59h115q51 0 67 -29.5t-10 -72.5l-375 -615l389 -635q28 -44 11.5 -73t-68.5 -29h-106q-68 0 -101 59l-194 332l-90 172h-5q-41 -88 -88 -172
l-192 -332q-33 -59 -100 -59h-105q-53 0 -70 29t11 73z" />
    <glyph glyph-name="Y" unicode="Y" horiz-adv-x="1187" 
d="M463 86v522l-426 744q-26 43 -9.5 72.5t66.5 29.5h115q69 0 98 -63l197 -365q20 -40 42 -89t34 -77l12 -29h4q43 105 88 195l197 365q29 63 98 63h115q51 0 67.5 -29.5t-8.5 -72.5l-428 -744v-522q0 -86 -84 -86h-92q-86 0 -86 86z" />
    <glyph glyph-name="Z" unicode="Z" horiz-adv-x="1230" 
d="M63 86v25q0 59 35 108l611 877q25 37 51.5 70t40.5 47l14 14v4q-40 -4 -108 -4h-525q-86 0 -86 84v57q0 41 22.5 63.5t63.5 22.5h881q41 0 62.5 -22t21.5 -62v-24q0 -63 -33 -109l-612 -879q-25 -37 -52 -70t-41 -47l-14 -14v-4q41 4 109 4h567q86 0 86 -84v-57
q0 -86 -86 -86h-921q-87 0 -87 86z" />
    <glyph glyph-name="bracketleft" unicode="[" horiz-adv-x="620" 
d="M147 -109v1543q0 84 86 84h234q86 0 86 -84v-19q0 -41 -21 -63.5t-59 -22.5h-102v-1335h96q41 0 63.5 -22.5t22.5 -63.5v-17q0 -86 -86 -86h-234q-86 0 -86 86z" />
    <glyph glyph-name="backslash" unicode="\" horiz-adv-x="831" 
d="M541 -16l-467 1448q-13 44 6 70t65 26h45q75 0 99 -70l467 -1448q15 -44 -4.5 -70t-65.5 -26h-47q-74 0 -98 70z" />
    <glyph glyph-name="bracketright" unicode="]" horiz-adv-x="620" 
d="M70 -92q0 86 84 86h98v1335h-98q-84 0 -84 86v19q0 84 84 84h235q84 0 84 -84v-1543q0 -86 -84 -86h-235q-84 0 -84 86v17z" />
    <glyph glyph-name="asciicircum" unicode="^" horiz-adv-x="1267" 
d="M242 502q-49 0 -68 27.5t0 70.5l342 789q26 65 98 65h23q74 0 100 -65l340 -789q19 -43 1.5 -70.5t-66.5 -27.5h-45q-73 0 -99 67l-241 611l-244 -611q-23 -67 -98 -67h-43z" />
    <glyph glyph-name="underscore" unicode="_" horiz-adv-x="1155" 
d="M2 -86q0 86 86 86h979q84 0 84 -86v-31q0 -84 -84 -84h-979q-86 0 -86 84v31z" />
    <glyph glyph-name="grave" unicode="`" horiz-adv-x="1009" 
d="M571 1550q-61 0 -104 52l-92 124q-34 41 -22 72t65 31h76q65 0 100 -60l72 -124q22 -35 11.5 -65t-52.5 -30h-54z" />
    <glyph glyph-name="a" unicode="a" horiz-adv-x="1075" 
d="M49 289q0 63 22 115.5t58 88.5t87 64t104.5 44t116 26.5t115 14t107.5 3.5h43v25q0 96 -53.5 140t-140.5 44q-110 0 -217 -59q-79 -36 -115 34l-20 39q-40 75 32 115q167 86 342 86q203 0 318 -109.5t115 -306.5v-567q0 -86 -86 -86h-70q-84 0 -84 86v41l4 45h-4
q-4 -8 -12 -21.5t-37.5 -47.5t-64 -59.5t-92.5 -47t-122 -21.5q-146 0 -246 87.5t-100 226.5zM307 311q0 -56 42 -96.5t116 -40.5q103 0 171.5 86.5t68.5 188.5v38h-43q-60 0 -112.5 -6t-112 -23t-95 -54.5t-35.5 -92.5z" />
    <glyph glyph-name="b" unicode="b" horiz-adv-x="1234" 
d="M129 86v1282q0 41 22.5 63.5t63.5 22.5h88q86 0 86 -86v-379q0 -23 -1.5 -45t-3.5 -32l-1 -11h4q4 7 11.5 18t36 40t62 51.5t90 40.5t120.5 18q206 0 333 -151.5t127 -393.5q0 -246 -135.5 -397.5t-341.5 -151.5q-66 0 -123 18t-91.5 44t-59.5 52.5t-35 44.5l-10 18h-4
q4 -17 4 -46v-32q0 -35 -22 -54.5t-64 -19.5h-70q-86 0 -86 86zM381 522q0 -136 68.5 -231.5t189.5 -95.5q113 0 188.5 86.5t75.5 236.5q0 147 -71.5 237.5t-186.5 90.5q-110 0 -187 -83t-77 -241z" />
    <glyph glyph-name="c" unicode="c" horiz-adv-x="1085" 
d="M63 522q0 111 40.5 210.5t113 174t180 118.5t234.5 44q194 0 342 -104q64 -43 16 -117l-26 -41q-22 -34 -50.5 -38.5t-64.5 15.5q-95 64 -203 64q-142 0 -229.5 -93.5t-87.5 -230.5t89.5 -232t235.5 -95q123 0 234 79q78 44 117 -26l20 -39q39 -71 -23 -115
q-162 -121 -370 -121q-127 0 -234.5 43t-180 117t-113 174t-40.5 213z" />
    <glyph glyph-name="d" unicode="d" horiz-adv-x="1234" 
d="M68 522q0 247 132 397t341 150q64 0 119 -15.5t88 -37t56.5 -43.5t32.5 -37l9 -16h4q-4 26 -4 59v389q0 86 84 86h90q84 0 84 -86v-1282q0 -86 -84 -86h-76q-84 0 -84 78v41l4 37h-4q-4 -7 -11 -19.5t-35.5 -43.5t-62.5 -55t-93 -43.5t-126 -19.5q-211 0 -337.5 151
t-126.5 396zM330 522q0 -148 72 -237.5t188 -89.5q111 0 186.5 83t75.5 246q0 132 -68 227t-192 95q-111 0 -186.5 -87t-75.5 -237z" />
    <glyph glyph-name="e" unicode="e" horiz-adv-x="1118" 
d="M66 522q0 242 147.5 394.5t382.5 152.5q217 0 340 -138.5t123 -359.5q0 -35 -26.5 -61.5t-63.5 -26.5h-637q12 -136 100.5 -211t212.5 -75q119 0 225 67q77 38 115 -28l25 -41q39 -74 -29 -115q-166 -105 -354 -105q-168 0 -297.5 75t-196.5 199t-67 273zM338 641h463
q-3 107 -61.5 169t-149.5 62q-99 0 -166 -62.5t-86 -168.5z" />
    <glyph glyph-name="f" unicode="f" horiz-adv-x="692" 
d="M184 86v737h-51q-84 0 -84 86v35q0 86 84 86h51v49q0 94 32 166.5t77.5 112t104.5 64.5t103 32.5t83 7.5h30q84 0 84 -86v-53q0 -78 -88 -84q-31 -2 -53.5 -7.5t-51.5 -21.5t-45 -51.5t-16 -89.5v-39h140q84 0 84 -86v-35q0 -86 -84 -86h-140v-737q0 -86 -86 -86h-90
q-84 0 -84 86z" />
    <glyph glyph-name="g" unicode="g" horiz-adv-x="1218" 
d="M215 -217q17 38 42.5 49t66.5 -2q106 -39 211 -39q131 0 212.5 61.5t81.5 192.5v78l5 53h-5q-91 -156 -286 -156q-111 0 -202 42t-149.5 115t-90 169t-31.5 205q0 108 30.5 201.5t88 164.5t148 111.5t204.5 40.5q68 0 125 -16.5t89.5 -40t55.5 -47t31 -39.5l8 -17h4
q-2 11 -2 27v39q0 30 22 49.5t62 19.5h70q84 0 84 -86v-895q0 -104 -31.5 -188.5t-84 -140t-123.5 -93.5t-146.5 -54.5t-155.5 -16.5q-177 0 -305 55q-78 34 -45 111zM594 240q49 0 90 15.5t76.5 49t55.5 95t20 145.5q0 303 -254 303q-119 0 -184.5 -77.5t-65.5 -209.5
q0 -144 69.5 -232.5t192.5 -88.5z" />
    <glyph glyph-name="h" unicode="h" horiz-adv-x="1226" 
d="M129 86v1282q0 41 22.5 63.5t63.5 22.5h88q86 0 86 -86v-422q0 -23 -1.5 -45t-3.5 -33l-1 -10h4q43 84 140.5 147.5t222.5 63.5q364 0 364 -397v-586q0 -86 -86 -86h-88q-86 0 -86 86v532q0 104 -36 158.5t-128 54.5q-135 0 -218 -97.5t-83 -248.5v-399q0 -86 -86 -86
h-88q-86 0 -86 86z" />
    <glyph glyph-name="i" unicode="i" horiz-adv-x="516" 
d="M213 1223q-84 0 -84 84v61q0 86 84 86h90q41 0 63.5 -22.5t22.5 -63.5v-61q0 -84 -86 -84h-90zM129 86v872q0 86 84 86h90q84 0 84 -86v-872q0 -86 -84 -86h-90q-84 0 -84 86z" />
    <glyph glyph-name="j" unicode="j" horiz-adv-x="518" 
d="M215 1223q-86 0 -86 84v61q0 41 22.5 63.5t63.5 22.5h90q84 0 84 -86v-61q0 -84 -84 -84h-90zM129 -10v968q0 41 22.5 63.5t63.5 22.5h88q86 0 86 -86v-985q0 -96 -32.5 -171t-78 -116t-104.5 -67.5t-103 -34.5t-81 -8h-31q-84 0 -84 86v53q0 45 22 61.5t62 22.5
q34 4 58 11.5t52.5 26.5t44 57.5t15.5 95.5z" />
    <glyph glyph-name="k" unicode="k" horiz-adv-x="1091" 
d="M129 86v1282q0 41 22.5 63.5t63.5 22.5h88q86 0 86 -86v-692h129l217 311q35 57 103 57h98q52 0 67.5 -30.5t-14.5 -71.5l-260 -364v-5l307 -471q27 -44 11 -73t-68 -29h-111q-67 0 -100 59l-244 398h-135v-371q0 -86 -86 -86h-88q-86 0 -86 86z" />
    <glyph glyph-name="l" unicode="l" horiz-adv-x="571" 
d="M127 326v1042q0 86 84 86h90q84 0 84 -86v-1022q0 -69 22.5 -95t59.5 -30q63 -7 63 -74v-69q0 -88 -86 -88q-48 0 -87 6t-84 26.5t-75 55.5t-50.5 98.5t-20.5 149.5z" />
    <glyph glyph-name="m" unicode="m" horiz-adv-x="1839" 
d="M129 86v872q0 86 84 86h80q84 0 84 -86v-63l-4 -47h4q44 87 136 154t206 67q239 0 305 -215h4q44 88 141.5 151.5t214.5 63.5q342 0 342 -397v-586q0 -86 -86 -86h-88q-86 0 -86 86v537q0 49 -5.5 83.5t-20.5 64.5t-44 45t-73 15q-84 0 -146 -53.5t-91 -134t-29 -174.5
v-383q0 -86 -84 -86h-90q-86 0 -86 86v537q0 38 -2.5 65.5t-11.5 56t-23.5 46.5t-40.5 29t-62 11q-66 0 -119 -32t-85 -84.5t-49 -115.5t-17 -130v-383q0 -86 -84 -86h-90q-84 0 -84 86z" />
    <glyph glyph-name="n" unicode="n" horiz-adv-x="1226" 
d="M129 86v872q0 86 84 86h80q84 0 84 -86v-63l-4 -47h4q15 29 35.5 57t54 58.5t72.5 53t93.5 37.5t115.5 15q364 0 364 -397v-586q0 -86 -86 -86h-88q-86 0 -86 86v532q0 104 -36 158.5t-128 54.5q-135 0 -218 -98.5t-83 -243.5v-403q0 -86 -84 -86h-90q-84 0 -84 86z" />
    <glyph glyph-name="o" unicode="o" horiz-adv-x="1273" 
d="M63 522q0 156 77 282t208.5 195.5t288.5 69.5t288.5 -69.5t209 -195.5t77.5 -282q0 -157 -77.5 -283t-208.5 -195t-289 -69t-288.5 69t-208 195t-77.5 283zM328 522q0 -143 89.5 -234t219.5 -91t220.5 91t90.5 234q0 142 -90.5 234t-220.5 92t-219.5 -92t-89.5 -234z" />
    <glyph glyph-name="p" unicode="p" horiz-adv-x="1234" 
d="M129 -324v1282q0 41 22.5 63.5t63.5 22.5h66q40 0 62 -19.5t22 -51.5v-47l-3 -41h5q4 7 11.5 19.5t36.5 44.5t63.5 56t95 44t128.5 20q211 0 338 -151t127 -396q0 -246 -135 -396.5t-344 -150.5q-61 0 -114 16.5t-86 40t-57 47t-34 39.5l-10 17h-4q6 -37 6 -90v-369
q0 -86 -86 -86h-88q-86 0 -86 86zM381 516q0 -130 69.5 -225.5t190.5 -95.5q112 0 187 86.5t75 236.5q0 148 -71.5 238t-186.5 90q-111 0 -187.5 -83.5t-76.5 -246.5z" />
    <glyph glyph-name="q" unicode="q" horiz-adv-x="1234" 
d="M68 522q0 247 133 397t344 150q67 0 125 -17.5t92.5 -43t59 -51t34.5 -43.5l10 -17h4q-4 16 -4 41v37q0 31 22.5 50t63.5 19h68q84 0 84 -86v-1282q0 -86 -84 -86h-90q-84 0 -84 86v379l4 90h-4q-3 -7 -10 -18.5t-33.5 -40.5t-59.5 -51.5t-92 -41t-127 -18.5
q-203 0 -329.5 152t-126.5 395zM330 522q0 -148 72 -237.5t188 -89.5q111 0 186.5 83t75.5 246q0 132 -68 227t-192 95q-111 0 -186.5 -87t-75.5 -237z" />
    <glyph glyph-name="r" unicode="r" horiz-adv-x="768" 
d="M129 86v872q0 86 84 86h80q41 0 63.5 -22.5t22.5 -63.5v-98l-6 -72h4q34 104 117 184.5t186 80.5q42 0 60 -21t18 -65v-80q0 -41 -23.5 -63.5t-64.5 -22.5q-91 0 -157 -56t-96 -140t-30 -183v-336q0 -86 -84 -86h-90q-84 0 -84 86z" />
    <glyph glyph-name="s" unicode="s" horiz-adv-x="915" 
d="M104 82q-35 20 -39.5 52t19.5 65l25 37q23 32 50.5 36.5t65.5 -16.5t61 -32.5t73.5 -25.5t99.5 -14q67 0 106 28.5t39 78.5q0 34 -28.5 60t-74.5 44.5t-101 37t-110 44.5t-101 60t-74.5 90t-28.5 129q0 148 113.5 230.5t285.5 82.5q156 0 291 -76q69 -37 31 -114l-21 -37
q-35 -69 -114 -33q-115 51 -199 51q-68 0 -104.5 -26.5t-36.5 -75.5q0 -34 28.5 -60.5t74.5 -44.5t101 -36t110 -43.5t101 -59t74.5 -89.5t28.5 -128q0 -140 -109 -231t-288 -91q-192 0 -349 107z" />
    <glyph glyph-name="t" unicode="t" horiz-adv-x="745" 
d="M186 373v450h-55q-84 0 -84 86v35q0 86 86 86h60v213q0 41 22.5 63.5t63.5 22.5h81q41 0 63.5 -22.5t22.5 -63.5v-213h152q41 0 63.5 -22.5t22.5 -63.5v-35q0 -86 -84 -86h-154v-405q0 -55 15.5 -94.5t42.5 -59.5t52.5 -28.5t57.5 -12.5q48 -5 67 -23.5t19 -60.5v-63
q0 -45 -25.5 -65.5t-80.5 -20.5q-58 0 -114 12.5t-110 41.5t-94 71.5t-65 109t-25 148.5z" />
    <glyph glyph-name="u" unicode="u" horiz-adv-x="1216" 
d="M115 373v585q0 41 22.5 63.5t63.5 22.5h88q86 0 86 -86v-532q0 -104 35.5 -158.5t126.5 -54.5q135 0 213.5 102.5t78.5 249.5v393q0 86 86 86h89q41 0 63.5 -22.5t22.5 -63.5v-872q0 -86 -86 -86h-80q-84 0 -84 86v61l4 48h-4q-41 -88 -139.5 -154t-223.5 -66
q-362 0 -362 398z" />
    <glyph glyph-name="v" unicode="v" horiz-adv-x="1064" 
d="M356 70l-319 876q-15 45 2.5 71.5t64.5 26.5h97q76 0 96 -71l195 -576q9 -27 18.5 -66.5t14.5 -64.5l5 -26h5q16 96 36 157l195 576q20 71 96 71h96q47 0 66 -27t4 -71l-315 -876q-23 -70 -97 -70h-163q-77 0 -97 70z" />
    <glyph glyph-name="w" unicode="w" horiz-adv-x="1658" 
d="M315 72l-270 876q-12 43 8 69.5t64 26.5h98q77 0 92 -75l168 -611l21 -110h4q8 55 22 110l176 611q15 73 95 73h77q77 0 95 -73l174 -611q7 -24 12.5 -51.5t7.5 -42.5l2 -16h4q9 55 23 110l166 611q18 75 94 75h94q45 0 64.5 -26.5t7.5 -69.5l-268 -876q-21 -72 -97 -72
h-137q-78 0 -96 74l-158 522q-7 24 -13 52.5t-9 44.5l-2 16h-5q-10 -58 -26 -113l-158 -522q-18 -74 -94 -74h-141q-74 0 -95 72z" />
    <glyph glyph-name="x" unicode="x" horiz-adv-x="1019" 
d="M76 102l278 426l-270 414q-29 43 -13 72.5t68 29.5h105q66 0 100 -61l131 -223l33 -66h4q21 39 33 66l131 223q34 61 100 61h105q52 0 68 -29.5t-13 -72.5l-268 -414l278 -426q28 -43 11.5 -72.5t-68.5 -29.5h-98q-68 0 -101 59l-149 244l-29 55h-4q-15 -32 -29 -55
l-147 -244q-36 -59 -101 -59h-100q-52 0 -68 29.5t13 72.5z" />
    <glyph glyph-name="y" unicode="y" horiz-adv-x="1052" 
d="M49 -244q30 61 92 47q41 -18 74 -18q54 0 97.5 39.5t68.5 99.5l39 92l-397 928q-20 44 -2 72t67 28h111q73 0 96 -69l197 -533l38 -141h5q18 82 34 137l185 535q20 71 96 71h102q47 0 66 -27t4 -71l-430 -1102q-52 -136 -153.5 -205t-223.5 -69q-63 0 -145 31
q-36 13 -46.5 44t7.5 66z" />
    <glyph glyph-name="z" unicode="z" horiz-adv-x="1044" 
d="M57 70v20q0 31 8 50.5t29 45.5l432 541q22 26 44 50t33 35l11 11v4q-28 -4 -96 -4h-354q-86 0 -86 86v49q0 86 86 86h717q86 0 86 -69v-21q0 -31 -8 -50.5t-29 -45.5l-432 -543q-21 -26 -43.5 -50t-34.5 -35l-12 -11v-4q30 6 98 6h389q86 0 86 -86v-49q0 -86 -86 -86
h-752q-41 0 -63.5 18t-22.5 52z" />
    <glyph glyph-name="braceleft" unicode="{" horiz-adv-x="702" 
d="M223 145v199q0 135 -104 193q-38 22 -54 40.5t-16 53.5v80q0 35 15.5 53t52.5 43q43 19 74.5 65.5t31.5 128.5v175q0 84 24.5 149.5t60 101.5t81.5 59.5t81.5 30.5t66.5 7h26q86 0 86 -86v-31q0 -84 -86 -84q-119 0 -119 -174v-215q0 -57 -17.5 -105t-42 -75.5t-49 -46.5
t-41.5 -26l-18 -7v-4q7 -2 18 -6.5t40 -24t51.5 -45.5t40.5 -74.5t18 -107.5v-240q0 -172 119 -172q41 0 63.5 -22.5t22.5 -63.5v-31q0 -41 -22.5 -63.5t-63.5 -22.5h-26q-31 0 -67 7.5t-81.5 30.5t-81 59.5t-60 101.5t-24.5 149z" />
    <glyph glyph-name="bar" unicode="|" horiz-adv-x="514" 
d="M145 -246v1790q0 86 86 86h52q86 0 86 -86v-1790q0 -84 -86 -84h-52q-86 0 -86 84z" />
    <glyph glyph-name="braceright" unicode="}" horiz-adv-x="704" 
d="M53 -86q0 41 22.5 63.5t63.5 22.5q119 0 119 172v240q0 59 17.5 107.5t42 75t49 45t41.5 24.5l18 6v4q-7 2 -18 7t-40 25.5t-51.5 47t-40.5 75t-18 105.5v215q0 174 -119 174q-86 0 -86 84v31q0 86 86 86h27q31 0 66.5 -7t81 -30.5t81 -59.5t60 -101.5t24.5 -149.5v-175
q0 -82 31.5 -128.5t75.5 -65.5q37 -24 52 -42.5t15 -53.5v-80q0 -35 -15.5 -53.5t-53.5 -40.5q-105 -58 -105 -193v-199q0 -84 -24.5 -149t-60 -101.5t-81 -59.5t-81 -30.5t-66.5 -7.5h-27q-41 0 -63.5 22.5t-22.5 63.5v31z" />
    <glyph glyph-name="asciitilde" unicode="~" horiz-adv-x="1214" 
d="M184 408q-44 0 -65.5 27.5t-14.5 78.5q21 133 99.5 199.5t206.5 66.5q57 0 104.5 -19t79.5 -46.5t60 -55t61.5 -46.5t70.5 -19q82 0 115 100q17 41 35.5 59.5t54.5 18.5h41q42 0 65 -24t17 -66q-37 -283 -307 -283q-57 0 -104 19t-79.5 46.5t-61.5 54.5t-63 46t-71 19
q-83 0 -111 -101q-20 -40 -38.5 -57.5t-53.5 -17.5h-41z" />
    <glyph glyph-name="uni00A0" unicode="&#xa0;" horiz-adv-x="512" 
 />
    <glyph glyph-name="exclamdown" unicode="&#xa1;" horiz-adv-x="536" 
d="M297 623q83 0 86 -84l16 -863q0 -88 -84 -88h-96q-42 0 -63.5 23t-20.5 65l17 863q0 84 86 84h59zM391 956v-71q0 -86 -84 -86h-82q-41 0 -63.5 22.5t-22.5 63.5v71q0 86 86 86h82q84 0 84 -86z" />
    <glyph glyph-name="cent" unicode="&#xa2;" horiz-adv-x="1153" 
d="M518 59v93q-193 32 -312.5 192.5t-119.5 382.5t119.5 383t312.5 195v86q0 86 82 86h14q82 0 82 -68v-104q112 -18 209.5 -90t143.5 -162q39 -76 -45 -111l-78 -31q-21 -8 -37.5 -9t-30 6.5t-22.5 16t-23 25.5q-75 115 -195 115q-121 0 -195.5 -94t-74.5 -248
q0 -150 72 -242t196 -92q122 0 197 115q13 15 22 23.5t24 17.5t29.5 7t37.5 -7l78 -31q83 -36 45 -113q-47 -90 -144.5 -164.5t-208.5 -84.5v-93q0 -84 -82 -84h-14q-82 0 -82 84z" />
    <glyph glyph-name="sterling" unicode="&#xa3;" horiz-adv-x="1210" 
d="M106 86v57q0 84 84 84h43v410h-34q-78 0 -78 82v12q0 84 78 84h34v248q0 181 131 298.5t334 117.5q158 0 299 -95q33 -23 35.5 -54.5t-24.5 -63.5l-39 -52q-47 -58 -121 -16q-75 41 -143 41q-91 0 -147 -52.5t-56 -131.5v-240h276q84 0 84 -84v-12q0 -82 -84 -82h-276
v-410h551q86 0 86 -84v-57q0 -86 -86 -86h-863q-84 0 -84 86z" />
    <glyph glyph-name="yen" unicode="&#xa5;" horiz-adv-x="1228" 
d="M231 381q-84 0 -84 74v12q0 72 84 72h250v67l-53 99h-197q-84 0 -84 71v12q0 72 74 72h127l-264 494q-23 43 -5.5 71.5t66.5 28.5h119q72 0 96 -68l166 -321l88 -234h4q42 121 89 234l163 321q24 68 97 68h116q51 0 69 -28.5t-5 -71.5l-266 -494h116q84 0 84 -72v-12
q0 -71 -84 -71h-196l-51 -99v-67h247q84 0 84 -72v-12q0 -74 -84 -74h-247v-295q0 -86 -86 -86h-99q-84 0 -84 86v295h-250z" />
    <glyph glyph-name="section" unicode="&#xa7;" horiz-adv-x="958" 
d="M264 356l-131 631q-14 55 -14 117q0 165 111.5 270t308.5 105q152 0 276 -78q33 -20 38 -52t-19 -65l-23 -31q-41 -60 -117 -24q-76 37 -153 37q-94 0 -152.5 -47.5t-58.5 -145.5q0 -47 14 -102l119 -594q11 -43 -9 -68.5t-65 -25.5h-31q-77 0 -94 73zM125 68l20 34
q42 63 117 25q77 -43 160 -43q93 0 152 52.5t59 154.5q0 56 -19 117l-110 567q-12 43 7.5 68.5t63.5 25.5h31q77 0 94 -74l129 -630q15 -77 15 -117q0 -166 -112 -270.5t-308 -104.5q-157 0 -277 78q-70 43 -22 117z" />
    <glyph glyph-name="dieresis" unicode="&#xa8;" horiz-adv-x="1009" 
d="M678 1591q-84 0 -84 86v68q0 84 84 84h31q84 0 84 -84v-68q0 -86 -84 -86h-31zM303 1591q-86 0 -86 86v68q0 84 86 84h29q86 0 86 -84v-68q0 -86 -86 -86h-29z" />
    <glyph glyph-name="copyright" unicode="&#xa9;" horiz-adv-x="1654" 
d="M92 727q0 153 57.5 292t155.5 239.5t234 159.5t286 59t287 -59t235.5 -159.5t157 -239.5t58.5 -292t-58.5 -292.5t-157 -240t-235.5 -160t-287 -59.5t-286 59.5t-234 160t-155.5 240t-57.5 292.5zM274 727q0 -162 72.5 -296.5t199 -212t279.5 -77.5t280.5 77.5t201 212
t73.5 296.5q0 161 -73 295t-200.5 211.5t-281.5 77.5t-280.5 -77.5t-198.5 -211.5t-72 -295zM451 723q0 166 109.5 282.5t279.5 116.5q95 0 170.5 -43t113.5 -96q18 -31 14.5 -53t-22.5 -37l-31 -27q-24 -19 -51.5 -13t-48.5 32q-62 67 -141 67q-93 0 -149 -65t-56 -168
q0 -97 55 -161t150 -64q93 0 151 73q46 49 90 13l29 -25q49 -42 8 -94q-42 -52 -114.5 -94.5t-167.5 -42.5q-171 0 -280 116t-109 283z" />
    <glyph glyph-name="ordfeminine" unicode="&#xaa;" horiz-adv-x="815" 
d="M332 784q-90 0 -155.5 54.5t-65.5 148.5q0 223 381 223h16v15q0 106 -117 106q-56 0 -106 -24q-72 -27 -95 24l-6 15q-28 58 47 90q90 39 187 39q132 0 203 -70.5t71 -196.5v-325q0 -86 -78 -86h-6q-78 0 -78 80v28h-4q-2 -5 -6.5 -13t-21.5 -29t-37 -37t-55 -29t-74 -13
zM377 928q55 0 92 45t37 102v15h-23q-188 0 -188 -93q0 -31 22 -50t60 -19zM199 545q-86 0 -86 65v11q0 63 86 63h415q86 0 86 -63v-11q0 -65 -86 -65h-415z" />
    <glyph glyph-name="guillemotleft" unicode="&#xab;" horiz-adv-x="1134" 
d="M561 518q-50 60 0 119l248 313q43 49 104 49h50q55 0 69.5 -30.5t-20.5 -73.5l-252 -317l252 -316q34 -43 23 -73.5t-62 -30.5h-60q-61 0 -104 49zM348 207l-248 311q-50 60 0 119l248 313q43 49 105 49h51q54 0 68.5 -30.5t-19.5 -73.5l-252 -317l252 -316
q34 -43 22 -73.5t-63 -30.5h-59q-62 0 -105 49z" />
    <glyph glyph-name="logicalnot" unicode="&#xac;" horiz-adv-x="1251" 
d="M195 694q-84 0 -84 86v31q0 84 84 84h829q86 0 86 -84v-432q0 -86 -86 -86h-39q-84 0 -84 86v315h-706z" />
    <glyph glyph-name="uni00AD" unicode="&#xad;" horiz-adv-x="854" 
d="M205 471q-86 0 -86 86v57q0 84 86 84h444q86 0 86 -84v-57q0 -86 -86 -86h-444z" />
    <glyph glyph-name="registered" unicode="&#xae;" horiz-adv-x="1654" 
d="M92 727q0 153 58 292t156 239.5t233 159.5t284 59q152 0 289 -59t236 -159.5t157 -239.5t58 -292t-58 -292.5t-157 -240t-236 -160t-289 -59.5q-149 0 -284 59.5t-233 160t-156 240t-58 292.5zM274 727q0 -162 72.5 -296.5t198.5 -212t278 -77.5q155 0 283 77.5t201 212
t73 296.5q0 161 -73 295t-201 211.5t-283 77.5q-114 0 -216 -45.5t-175 -123.5t-115.5 -186.5t-42.5 -228.5zM567 442v578q0 86 86 86h226q112 0 178.5 -65t66.5 -173q0 -79 -42 -130t-89 -64v-4q9 -8 27 -43l88 -170q23 -44 10.5 -72.5t-53.5 -28.5h-27q-71 0 -98 64
l-98 213h-101v-191q0 -86 -79 -86h-15q-80 0 -80 86zM741 756h97q52 0 80 29.5t28 82.5q0 54 -27 82.5t-77 28.5h-101v-223z" />
    <glyph glyph-name="macron" unicode="&#xaf;" horiz-adv-x="1009" 
d="M322 1604q-84 0 -84 82v14q0 82 84 82h366q86 0 86 -82v-14q0 -82 -86 -82h-366z" />
    <glyph glyph-name="degree" unicode="&#xb0;" horiz-adv-x="802" 
d="M401 836q-140 0 -236.5 93t-96.5 228q0 133 97 228.5t236 95.5q138 0 236 -96t98 -228q0 -134 -97.5 -227.5t-236.5 -93.5zM401 1022q57 0 97.5 39t40.5 96q0 56 -40.5 95.5t-97.5 39.5t-96 -39.5t-39 -95.5q0 -57 39 -96t96 -39z" />
    <glyph glyph-name="plusminus" unicode="&#xb1;" horiz-adv-x="1267" 
d="M172 483q-86 0 -86 86v31q0 86 86 86h356v399q0 41 22.5 63.5t63.5 22.5h41q84 0 84 -86v-399h359q84 0 84 -86v-31q0 -86 -84 -86h-359v-397q0 -86 -84 -86h-41q-86 0 -86 86v397h-356zM199 -174h870q41 0 63.5 -22.5t22.5 -63.5v-31q0 -84 -86 -84h-870q-84 0 -84 84
v31q0 86 84 86z" />
    <glyph glyph-name="twosuperior" unicode="&#xb2;" horiz-adv-x="751" 
d="M139 866q-86 0 -86 86q0 71 23.5 130.5t61 100.5t82.5 75.5t90 62t82.5 54t61 58t23.5 66.5q0 47 -36 77t-89 30q-50 0 -104 -39q-36 -25 -61 -27t-56 23l-10 8q-31 28 -32.5 58.5t28.5 58.5q107 98 248 98q128 0 218.5 -75.5t90.5 -203.5q0 -69 -29 -126t-72.5 -93
t-95.5 -70t-96.5 -58.5t-76.5 -56.5t-36 -67h334q86 0 86 -80v-10q0 -80 -86 -80h-463z" />
    <glyph glyph-name="threesuperior" unicode="&#xb3;" horiz-adv-x="741" 
d="M340 846q-147 0 -254 84q-62 42 -16 110l10 13q22 32 49 35t61 -17q63 -47 140 -47q61 0 103 37t42 92q0 53 -45 85t-104 32h-23q-60 0 -80 47q-19 49 27 98l115 131q7 9 19.5 21t21.5 20l8 8v4q-41 -6 -72 -6h-180q-84 0 -84 82v11q0 79 84 79h403q86 0 86 -61v-12
q0 -30 -9 -50.5t-32 -46.5l-161 -184q101 -20 162 -87t61 -173q0 -124 -91.5 -214.5t-240.5 -90.5z" />
    <glyph glyph-name="acute" unicode="&#xb4;" horiz-adv-x="1009" 
d="M395 1550q-44 0 -59 28.5t8 68.5l72 122q35 60 100 60h74q55 0 67.5 -31t-22.5 -72l-92 -124q-43 -52 -105 -52h-43z" />
    <glyph glyph-name="mu" unicode="&#xb5;" horiz-adv-x="1304" 
d="M158 -324v1282q0 41 22.5 63.5t63.5 22.5h88q86 0 86 -86v-532q0 -104 35.5 -158.5t126.5 -54.5q135 0 213.5 102.5t78.5 249.5v393q0 86 86 86h89q41 0 63.5 -22.5t22.5 -63.5v-872q0 -86 -86 -86h-80q-84 0 -84 86v59l2 48h-4q-16 -32 -44.5 -66t-72.5 -70t-109 -59
t-137 -23q-44 0 -80.5 10.5t-50.5 21.5l-14 11h-4q14 -100 14 -170v-172q0 -86 -84 -86h-55q-86 0 -86 86z" />
    <glyph glyph-name="paragraph" unicode="&#xb6;" horiz-adv-x="1269" 
d="M553 -16v510q-199 0 -341 140t-142 341t141 340t340 139h541q84 0 84 -86v-57q0 -84 -84 -84h-351v-1243q0 -86 -84 -86h-20q-84 0 -84 86zM868 -16v1044q0 86 86 86h19q86 0 86 -86v-1044q0 -86 -86 -86h-19q-86 0 -86 86z" />
    <glyph glyph-name="periodcentered" unicode="&#xb7;" horiz-adv-x="493" 
d="M205 467q-84 0 -84 84v94q0 84 84 84h84q86 0 86 -84v-94q0 -84 -86 -84h-84z" />
    <glyph glyph-name="cedilla" unicode="&#xb8;" horiz-adv-x="1009" 
d="M387 -109l41 150h129l-29 -131q67 -8 108.5 -47.5t41.5 -108.5q0 -94 -63.5 -137t-157.5 -43q-117 0 -117 70q0 33 12.5 52t30.5 19q9 0 25.5 -3t25.5 -3q34 0 55 15t21 45q0 49 -92 59q-46 3 -31 63z" />
    <glyph glyph-name="onesuperior" unicode="&#xb9;" horiz-adv-x="649" 
d="M143 866q-84 0 -84 80v10q0 80 72 80h115v424q0 15 1.5 29.5t2.5 21.5l2 7h-4q-6 -13 -29 -33l-33 -31q-34 -30 -73 6l-23 23q-55 58 10 116l125 123q49 43 105 43h26q84 0 84 -86v-643h103q84 0 84 -80v-10q0 -80 -84 -80h-400z" />
    <glyph glyph-name="ordmasculine" unicode="&#xba;" horiz-adv-x="915" 
d="M457 786q-150 0 -254.5 98.5t-104.5 248.5q0 148 104.5 245t254.5 97q151 0 255.5 -96.5t104.5 -245.5q0 -150 -104.5 -248.5t-255.5 -98.5zM457 950q73 0 123.5 51.5t50.5 131.5q0 78 -50.5 129t-123.5 51q-72 0 -122 -51t-50 -129q0 -80 50 -131.5t122 -51.5zM213 545
q-84 0 -84 65v11q0 63 84 63h492q83 0 83 -63v-11q0 -65 -83 -65h-492z" />
    <glyph glyph-name="guillemotright" unicode="&#xbb;" horiz-adv-x="1134" 
d="M582 262l252 316l-252 317q-35 43 -22.5 73.5t63.5 30.5h59q61 0 104 -49l246 -313q50 -59 0 -119l-246 -311q-43 -49 -104 -49h-51q-55 0 -69 30.5t20 73.5zM170 158q-54 0 -68.5 30.5t19.5 73.5l252 316l-252 317q-34 43 -22 73.5t63 30.5h59q62 0 105 -49l247 -313
q50 -59 0 -119l-247 -311q-43 -49 -105 -49h-51z" />
    <glyph glyph-name="onequarter" unicode="&#xbc;" horiz-adv-x="1976" 
d="M1677 0q-86 0 -86 86v117h-331q-84 0 -84 65v23q0 29 6 45.5t24 44.5l320 463q40 55 102 55h70q41 0 63.5 -22.5t22.5 -63.5v-442h53q72 0 72 -78v-10q0 -80 -72 -80h-53v-117q0 -86 -86 -86h-21zM1372 371h219v225q0 24 2 52t4 44l2 17h-4q-24 -56 -53 -97l-170 -237v-4
zM743 63q-29 -63 -98 -63h-29q-41 0 -54 28t9 72l613 1291q29 63 98 63h29q41 0 53.5 -28t-8.5 -72zM178 557q-84 0 -84 80v10q0 80 72 80h115v424q0 15 1.5 29t3.5 21l1 7h-4q-6 -12 -29 -32l-33 -31q-15 -14 -35.5 -12.5t-38.5 18.5l-22 23q-55 58 10 116l125 123
q49 43 105 43h26q84 0 84 -86v-643h103q84 0 84 -80v-10q0 -80 -84 -80h-400z" />
    <glyph glyph-name="onehalf" unicode="&#xbd;" horiz-adv-x="1943" 
d="M1315 0q-86 0 -86 86q0 71 23.5 130.5t61 100.5t82.5 75.5t90 62t82.5 54t61 58t23.5 66.5q0 47 -36 76.5t-89 29.5q-51 0 -105 -39q-36 -25 -60.5 -27t-55.5 23l-11 9q-66 60 -4 116q108 99 248 99q128 0 218.5 -75.5t90.5 -203.5q0 -69 -29 -126t-72.5 -93t-95 -70
t-96.5 -58.5t-76.5 -56.5t-35.5 -67h334q86 0 86 -80v-10q0 -80 -86 -80h-463zM741 63q-29 -63 -98 -63h-29q-41 0 -54 28t9 72l613 1291q29 63 98 63h29q41 0 53.5 -28t-8.5 -72zM170 557q-84 0 -84 80v10q0 80 72 80h114v424q0 15 2 29t4 21l1 7h-5q-5 -12 -28 -32
l-33 -31q-15 -14 -35.5 -12.5t-38.5 18.5l-22 23q-55 58 10 116l125 123q49 43 104 43h27q84 0 84 -86v-643h102q84 0 84 -80v-10q0 -80 -84 -80h-399z" />
    <glyph glyph-name="threequarters" unicode="&#xbe;" horiz-adv-x="2000" 
d="M1700 0q-86 0 -86 86v117h-332q-84 0 -84 65v23q0 29 6 45t25 45l319 463q40 55 103 55h69q41 0 63.5 -22.5t22.5 -63.5v-442h54q71 0 71 -78v-10q0 -80 -71 -80h-54v-117q0 -86 -86 -86h-20zM1395 371h219v225q0 24 2 52t4 44l2 17h-4q-24 -56 -53 -97l-170 -237v-4z
M373 537q-147 0 -254 84q-63 42 -17 110l11 12q22 32 49 35.5t61 -16.5q63 -47 139 -47q61 0 103.5 37t42.5 92q0 53 -45.5 85t-104.5 32h-22q-60 0 -80 47q-19 49 27 98l114 131q7 9 19.5 21t21.5 20l8 8v4q-40 -6 -71 -6h-180q-84 0 -84 82v10q0 80 84 80h403q86 0 86 -61
v-13q0 -30 -9 -50t-32 -46l-162 -184q101 -20 162.5 -87t61.5 -173q0 -124 -91.5 -214.5t-240.5 -90.5zM766 63q-29 -63 -98 -63h-29q-41 0 -54 28t9 72l612 1291q29 63 99 63h28q41 0 53.5 -28t-8.5 -72z" />
    <glyph glyph-name="questiondown" unicode="&#xbf;" horiz-adv-x="956" 
d="M618 623q42 0 64.5 -21.5t22.5 -62.5v-33q0 -72 -35 -134.5t-84.5 -108t-99 -89t-84.5 -96t-35 -109.5q0 -72 56.5 -121t141.5 -49q68 0 152 41q82 44 123 -20l34 -51q52 -71 -14 -115q-140 -94 -317 -94q-87 0 -167.5 26.5t-143.5 74.5t-100.5 122t-37.5 162
q0 65 18.5 122t48 98.5t66 78.5t73.5 69.5t69 64t54.5 70t27.5 80.5l4 35q8 32 26.5 46t55.5 14h81zM705 956v-71q0 -41 -23 -63.5t-64 -22.5h-81q-84 0 -84 86v71q0 86 84 86h81q87 0 87 -86z" />
    <glyph glyph-name="Agrave" unicode="&#xc0;" horiz-adv-x="1298" 
d="M33 98l454 1286q24 70 97 70h131q75 0 96 -70l455 -1286q15 -44 -4 -71t-66 -27h-94q-75 0 -96 70l-103 303h-510l-100 -301q-21 -72 -96 -72h-95q-47 0 -65.5 26.5t-3.5 71.5zM459 588h379l-129 389q-11 36 -25.5 92.5t-23.5 94.5l-9 38h-4q-32 -143 -57 -225zM614 1550
q-61 0 -104 52l-92 124q-34 41 -22 72t65 31h76q65 0 100 -60l72 -124q22 -35 11.5 -65t-52.5 -30h-54z" />
    <glyph glyph-name="Aacute" unicode="&#xc1;" horiz-adv-x="1298" 
d="M33 98l454 1286q24 70 97 70h131q75 0 96 -70l455 -1286q15 -44 -4 -71t-66 -27h-94q-75 0 -96 70l-103 303h-510l-100 -301q-21 -72 -96 -72h-95q-47 0 -65.5 26.5t-3.5 71.5zM459 588h379l-129 389q-11 36 -25.5 92.5t-23.5 94.5l-9 38h-4q-32 -143 -57 -225zM639 1550
q-44 0 -59 28.5t8 68.5l71 122q35 60 101 60h74q55 0 67.5 -31t-22.5 -72l-93 -124q-43 -52 -104 -52h-43z" />
    <glyph glyph-name="Acircumflex" unicode="&#xc2;" horiz-adv-x="1298" 
d="M33 98l454 1286q24 70 97 70h131q75 0 96 -70l455 -1286q15 -44 -4 -71t-66 -27h-94q-75 0 -96 70l-103 303h-510l-100 -301q-21 -72 -96 -72h-95q-47 0 -65.5 26.5t-3.5 71.5zM459 588h379l-129 389q-11 36 -25.5 92.5t-23.5 94.5l-9 38h-4q-32 -143 -57 -225zM436 1550
q-44 0 -55 30.5t18 74.5l82 119q38 55 105 55h127q66 0 104 -55l82 -119q29 -44 18 -74.5t-55 -30.5h-53q-34 0 -51.5 13t-38.5 47l-68 106h-4l-69 -106q-18 -33 -36.5 -46.5t-52.5 -13.5h-53z" />
    <glyph glyph-name="Atilde" unicode="&#xc3;" horiz-adv-x="1298" 
d="M33 98l454 1286q24 70 97 70h131q75 0 96 -70l455 -1286q15 -44 -4 -71t-66 -27h-94q-75 0 -96 70l-103 303h-510l-100 -301q-21 -72 -96 -72h-95q-47 0 -65.5 26.5t-3.5 71.5zM459 588h379l-129 389q-11 36 -25.5 92.5t-23.5 94.5l-9 38h-4q-32 -143 -57 -225zM358 1552
q-73 0 -73 78q0 85 58 144t149 59q52 0 96.5 -21t69.5 -45.5t55.5 -45.5t58.5 -21q65 0 72 80q1 22 21.5 34.5t52.5 12.5h20q76 0 76 -70q0 -94 -57.5 -152.5t-149.5 -58.5q-53 0 -97.5 21t-69.5 45.5t-55.5 45.5t-58.5 21q-34 0 -54 -23t-23 -59q-6 -45 -70 -45h-21z" />
    <glyph glyph-name="Adieresis" unicode="&#xc4;" horiz-adv-x="1298" 
d="M33 98l454 1286q24 70 97 70h131q75 0 96 -70l455 -1286q15 -44 -4 -71t-66 -27h-94q-75 0 -96 70l-103 303h-510l-100 -301q-21 -72 -96 -72h-95q-47 0 -65.5 26.5t-3.5 71.5zM459 588h379l-129 389q-11 36 -25.5 92.5t-23.5 94.5l-9 38h-4q-32 -143 -57 -225zM821 1591
q-84 0 -84 86v68q0 84 84 84h31q84 0 84 -84v-68q0 -86 -84 -86h-31zM446 1591q-86 0 -86 86v68q0 84 86 84h29q86 0 86 -84v-68q0 -86 -86 -86h-29z" />
    <glyph glyph-name="Aring" unicode="&#xc5;" horiz-adv-x="1298" 
d="M33 98l454 1286q24 70 97 70h131q75 0 96 -70l455 -1286q15 -44 -4 -71t-66 -27h-94q-75 0 -96 70l-103 303h-510l-100 -301q-21 -72 -96 -72h-95q-47 0 -65.5 26.5t-3.5 71.5zM459 588h379l-129 389q-11 36 -25.5 92.5t-23.5 94.5l-9 38h-4q-32 -143 -57 -225zM649 1526
q-79 0 -136.5 43t-57.5 117q0 75 57.5 118t136.5 43q78 0 135.5 -43t57.5 -118q0 -74 -58 -117t-135 -43zM649 1616q31 0 50.5 19.5t19.5 50.5q0 32 -19.5 51.5t-50.5 19.5t-50 -19.5t-19 -51.5q0 -31 18.5 -50.5t50.5 -19.5z" />
    <glyph glyph-name="AE" unicode="&#xc6;" horiz-adv-x="1816" 
d="M20 98l535 1291q23 65 98 65h977q84 0 84 -86v-57q0 -84 -84 -84h-522v-381h405q84 0 84 -84v-57q0 -87 -84 -87h-405v-391h553q84 0 84 -84v-57q0 -86 -84 -86h-731q-86 0 -86 86v537h-346l-219 -557q-26 -66 -97 -66h-98q-46 0 -65 27.5t1 70.5zM582 838h262v389h-107z
" />
    <glyph glyph-name="Ccedilla" unicode="&#xc7;" horiz-adv-x="1445" 
d="M717 -109l24 89q-198 20 -348 123.5t-229.5 267t-79.5 362.5q0 209 95 379.5t267 268.5t388 98q268 0 475 -146q62 -48 16 -119l-37 -59q-42 -68 -117 -20q-157 102 -327 102q-115 0 -209 -40.5t-154.5 -109.5t-92.5 -159t-32 -191q0 -103 33 -196t94 -165.5t155 -115.5
t208 -43q180 0 356 127q72 53 119 -14l41 -56q50 -65 -12 -118q-208 -168 -478 -179l-14 -67q67 -8 108.5 -47.5t41.5 -108.5q0 -94 -64 -137t-158 -43q-116 0 -116 70q0 33 12.5 52t30.5 19q9 0 25.5 -3t25.5 -3q34 0 55 15t21 45q0 49 -92 59q-46 3 -31 63z" />
    <glyph glyph-name="Egrave" unicode="&#xc8;" horiz-adv-x="1140" 
d="M168 86v1282q0 86 84 86h700q41 0 63.5 -22.5t22.5 -63.5v-57q0 -84 -86 -84h-522v-381h406q86 0 86 -84v-57q0 -87 -86 -87h-406v-391h555q86 0 86 -84v-57q0 -86 -86 -86h-733q-84 0 -84 86zM588 1550q-62 0 -105 52l-92 124q-34 41 -22 72t65 31h76q65 0 100 -60
l72 -124q22 -35 11.5 -65t-52.5 -30h-53z" />
    <glyph glyph-name="Eacute" unicode="&#xc9;" horiz-adv-x="1140" 
d="M610 1550q-44 0 -59 28.5t8 68.5l72 122q35 60 100 60h74q55 0 67.5 -31t-22.5 -72l-92 -124q-43 -52 -105 -52h-43zM168 86v1282q0 86 84 86h700q41 0 63.5 -22.5t22.5 -63.5v-57q0 -84 -86 -84h-522v-381h406q86 0 86 -84v-57q0 -87 -86 -87h-406v-391h555q86 0 86 -84
v-57q0 -86 -86 -86h-733q-84 0 -84 86z" />
    <glyph glyph-name="Ecircumflex" unicode="&#xca;" horiz-adv-x="1140" 
d="M408 1550q-44 0 -55 30.5t18 74.5l82 119q38 55 104 55h127q66 0 104 -55l82 -119q29 -44 18.5 -74.5t-54.5 -30.5h-54q-34 0 -51.5 13t-38.5 47l-67 106h-5l-69 -106q-19 -33 -37 -46.5t-51 -13.5h-53zM168 86v1282q0 86 84 86h700q41 0 63.5 -22.5t22.5 -63.5v-57
q0 -84 -86 -84h-522v-381h406q86 0 86 -84v-57q0 -87 -86 -87h-406v-391h555q86 0 86 -84v-57q0 -86 -86 -86h-733q-84 0 -84 86z" />
    <glyph glyph-name="Edieresis" unicode="&#xcb;" horiz-adv-x="1140" 
d="M795 1591q-84 0 -84 86v68q0 84 84 84h30q84 0 84 -84v-68q0 -86 -84 -86h-30zM420 1591q-86 0 -86 86v68q0 84 86 84h29q86 0 86 -84v-68q0 -86 -86 -86h-29zM168 86v1282q0 86 84 86h700q41 0 63.5 -22.5t22.5 -63.5v-57q0 -84 -86 -84h-522v-381h406q86 0 86 -84v-57
q0 -87 -86 -87h-406v-391h555q86 0 86 -84v-57q0 -86 -86 -86h-733q-84 0 -84 86z" />
    <glyph glyph-name="Igrave" unicode="&#xcc;" horiz-adv-x="598" 
d="M168 86v1282q0 86 84 86h94q84 0 84 -86v-1282q0 -86 -84 -86h-94q-84 0 -84 86zM268 1550q-61 0 -104 52l-92 124q-34 41 -22 72t65 31h75q66 0 101 -60l71 -124q22 -35 12 -65t-52 -30h-54z" />
    <glyph glyph-name="Iacute" unicode="&#xcd;" horiz-adv-x="598" 
d="M168 86v1282q0 86 84 86h94q84 0 84 -86v-1282q0 -86 -84 -86h-94q-84 0 -84 86zM291 1550q-44 0 -59 28.5t8 68.5l71 122q35 60 101 60h73q55 0 67.5 -31t-22.5 -72l-92 -124q-43 -52 -104 -52h-43z" />
    <glyph glyph-name="Icircumflex" unicode="&#xce;" horiz-adv-x="598" 
d="M168 86v1282q0 86 84 86h94q84 0 84 -86v-1282q0 -86 -84 -86h-94q-84 0 -84 86zM88 1550q-44 0 -55 30.5t18 74.5l82 119q38 55 105 55h127q66 0 104 -55l82 -119q29 -44 18 -74.5t-55 -30.5h-53q-34 0 -51.5 13t-38.5 47l-68 106h-4l-70 -106q-19 -33 -37 -46.5
t-51 -13.5h-53z" />
    <glyph glyph-name="Idieresis" unicode="&#xcf;" horiz-adv-x="598" 
d="M168 86v1282q0 86 84 86h94q84 0 84 -86v-1282q0 -86 -84 -86h-94q-84 0 -84 86zM475 1591q-84 0 -84 86v68q0 84 84 84h31q84 0 84 -84v-68q0 -86 -84 -86h-31zM100 1591q-86 0 -86 86v68q0 84 86 84h29q86 0 86 -84v-68q0 -86 -86 -86h-29z" />
    <glyph glyph-name="Eth" unicode="&#xd0;" horiz-adv-x="1492" 
d="M170 86v530h-33q-86 0 -86 86v43q0 86 51 86h68v537q0 86 86 86h410q340 0 540.5 -192t200.5 -533t-200.5 -535t-540.5 -194h-410q-86 0 -86 86zM432 227h219q225 0 354.5 130t129.5 372q0 239 -130.5 368.5t-353.5 129.5h-219v-396h186q84 0 84 -86v-43q0 -86 -79 -86
h-191v-389z" />
    <glyph glyph-name="Ntilde" unicode="&#xd1;" horiz-adv-x="1521" 
d="M168 86v1282q0 86 84 86h110q71 0 103 -57l516 -783q24 -38 54.5 -94.5t48.5 -93.5l18 -37h4q-14 139 -14 225v754q0 41 22.5 63.5t63.5 22.5h92q41 0 63.5 -22.5t22.5 -63.5v-1282q0 -86 -86 -86h-111q-68 0 -100 57l-518 781q-24 38 -54 94.5t-49 93.5l-18 37h-4
q14 -139 14 -225v-752q0 -86 -84 -86h-94q-84 0 -84 86zM471 1552q-74 0 -74 78q0 85 58 144t149 59q52 0 96.5 -21t69.5 -45.5t56 -45.5t59 -21q64 0 71 80q1 22 21.5 34.5t52.5 12.5h21q75 0 75 -70q0 -94 -57 -152.5t-149 -58.5q-53 0 -97.5 21t-69.5 45.5t-55.5 45.5
t-58.5 21q-34 0 -54.5 -23t-23.5 -59q-6 -45 -69 -45h-21z" />
    <glyph glyph-name="Ograve" unicode="&#xd2;" horiz-adv-x="1667" 
d="M82 737q0 206 95.5 375.5t268 268t388.5 98.5t388.5 -98.5t267.5 -268t95 -375.5q0 -212 -95 -386t-267.5 -275t-388.5 -101t-388.5 101t-268 275t-95.5 386zM354 737q0 -223 136 -371.5t344 -148.5t343.5 148.5t135.5 371.5q0 214 -135.5 357t-343.5 143t-344 -143
t-136 -357zM799 1550q-62 0 -105 52l-92 124q-34 41 -22 72t65 31h76q65 0 100 -60l72 -124q22 -35 11.5 -65t-52.5 -30h-53z" />
    <glyph glyph-name="Oacute" unicode="&#xd3;" horiz-adv-x="1667" 
d="M823 1550q-44 0 -59 28.5t8 68.5l72 122q35 60 100 60h74q55 0 67.5 -31t-22.5 -72l-92 -124q-43 -52 -105 -52h-43zM82 737q0 206 95.5 375.5t268 268t388.5 98.5t388.5 -98.5t267.5 -268t95 -375.5q0 -212 -95 -386t-267.5 -275t-388.5 -101t-388.5 101t-268 275
t-95.5 386zM354 737q0 -223 136 -371.5t344 -148.5t343.5 148.5t135.5 371.5q0 214 -135.5 357t-343.5 143t-344 -143t-136 -357z" />
    <glyph glyph-name="Ocircumflex" unicode="&#xd4;" horiz-adv-x="1667" 
d="M621 1550q-44 0 -55 30.5t18 74.5l82 119q38 55 104 55h127q66 0 104 -55l82 -119q29 -44 18.5 -74.5t-54.5 -30.5h-54q-34 0 -51.5 13t-38.5 47l-67 106h-5l-69 -106q-19 -33 -37 -46.5t-51 -13.5h-53zM82 737q0 206 95.5 375.5t268 268t388.5 98.5t388.5 -98.5
t267.5 -268t95 -375.5q0 -212 -95 -386t-267.5 -275t-388.5 -101t-388.5 101t-268 275t-95.5 386zM354 737q0 -223 136 -371.5t344 -148.5t343.5 148.5t135.5 371.5q0 214 -135.5 357t-343.5 143t-344 -143t-136 -357z" />
    <glyph glyph-name="Otilde" unicode="&#xd5;" horiz-adv-x="1667" 
d="M82 737q0 206 95.5 375.5t268 268t388.5 98.5t388.5 -98.5t267.5 -268t95 -375.5q0 -212 -95 -386t-267.5 -275t-388.5 -101t-388.5 101t-268 275t-95.5 386zM354 737q0 -223 136 -371.5t344 -148.5t343.5 148.5t135.5 371.5q0 214 -135.5 357t-343.5 143t-344 -143
t-136 -357zM543 1552q-74 0 -74 78q0 85 58 144t149 59q52 0 96.5 -21t69.5 -45.5t55.5 -45.5t58.5 -21q65 0 72 80q1 22 21.5 34.5t52.5 12.5h20q76 0 76 -70q0 -94 -57.5 -152.5t-149.5 -58.5q-53 0 -97.5 21t-69 45.5t-55 45.5t-58.5 21q-34 0 -54.5 -23t-23.5 -59
q-6 -45 -70 -45h-20z" />
    <glyph glyph-name="Odieresis" unicode="&#xd6;" horiz-adv-x="1667" 
d="M1006 1591q-84 0 -84 86v68q0 84 84 84h30q84 0 84 -84v-68q0 -86 -84 -86h-30zM631 1591q-86 0 -86 86v68q0 84 86 84h28q86 0 86 -84v-68q0 -86 -86 -86h-28zM82 737q0 206 95.5 375.5t268 268t388.5 98.5t388.5 -98.5t267.5 -268t95 -375.5q0 -212 -95 -386
t-267.5 -275t-388.5 -101t-388.5 101t-268 275t-95.5 386zM354 737q0 -223 136 -371.5t344 -148.5t343.5 148.5t135.5 371.5q0 214 -135.5 357t-343.5 143t-344 -143t-136 -357z" />
    <glyph glyph-name="multiply" unicode="&#xd7;" horiz-adv-x="1267" 
d="M152 84q-58 58 -2 121l346 381l-346 381q-56 62 2 120l20 23q64 61 121 -2l340 -375l340 375q57 63 121 2l22 -23q58 -58 2 -120l-348 -381l348 -381q56 -63 -2 -121l-22 -23q-63 -63 -121 2l-340 373l-340 -373q-58 -65 -121 -2z" />
    <glyph glyph-name="Oslash" unicode="&#xd8;" horiz-adv-x="1665" 
d="M268 82l60 84q-116 104 -181 252t-65 317q0 154 58 292t157.5 237t239 157t297.5 58q196 0 372 -95l39 58q51 66 111 26q56 -44 22 -86l-53 -77q122 -103 191 -250.5t69 -319.5q0 -157 -57.5 -298t-157 -242.5t-239 -160.5t-297.5 -59q-216 0 -392 107l-45 -68
q-52 -67 -110 -26q-60 41 -19 94zM483 381l574 797q-105 59 -223 59q-201 0 -340.5 -143.5t-139.5 -358.5q0 -208 129 -354zM590 287q112 -70 244 -70q201 0 340 148.5t139 369.5q0 105 -37.5 197.5t-104.5 159.5z" />
    <glyph glyph-name="Ugrave" unicode="&#xd9;" horiz-adv-x="1472" 
d="M152 522v846q0 86 84 86h92q86 0 86 -86v-844q0 -146 86.5 -226.5t234.5 -80.5q149 0 236.5 80.5t87.5 226.5v844q0 86 84 86h94q84 0 84 -86v-846q0 -245 -161 -396t-423 -151q-263 0 -424 151t-161 396zM700 1550q-61 0 -104 52l-92 124q-34 41 -22 72t65 31h76
q65 0 100 -60l72 -124q22 -35 11.5 -65t-52.5 -30h-54z" />
    <glyph glyph-name="Uacute" unicode="&#xda;" horiz-adv-x="1472" 
d="M725 1550q-44 0 -59 28.5t8 68.5l71 122q35 60 101 60h74q55 0 67.5 -31t-22.5 -72l-93 -124q-43 -52 -104 -52h-43zM152 522v846q0 86 84 86h92q86 0 86 -86v-844q0 -146 86.5 -226.5t234.5 -80.5q149 0 236.5 80.5t87.5 226.5v844q0 86 84 86h94q84 0 84 -86v-846
q0 -245 -161 -396t-423 -151q-263 0 -424 151t-161 396z" />
    <glyph glyph-name="Ucircumflex" unicode="&#xdb;" horiz-adv-x="1472" 
d="M522 1550q-44 0 -55 30.5t18 74.5l82 119q38 55 105 55h127q66 0 104 -55l82 -119q29 -44 18 -74.5t-55 -30.5h-53q-34 0 -51.5 13t-38.5 47l-68 106h-4l-69 -106q-18 -33 -36.5 -46.5t-52.5 -13.5h-53zM152 522v846q0 86 84 86h92q86 0 86 -86v-844q0 -146 86.5 -226.5
t234.5 -80.5q149 0 236.5 80.5t87.5 226.5v844q0 86 84 86h94q84 0 84 -86v-846q0 -245 -161 -396t-423 -151q-263 0 -424 151t-161 396z" />
    <glyph glyph-name="Udieresis" unicode="&#xdc;" horiz-adv-x="1472" 
d="M909 1591q-84 0 -84 86v68q0 84 84 84h31q84 0 84 -84v-68q0 -86 -84 -86h-31zM535 1591q-86 0 -86 86v68q0 84 86 84h28q86 0 86 -84v-68q0 -86 -86 -86h-28zM152 522v846q0 86 84 86h92q86 0 86 -86v-844q0 -146 86.5 -226.5t234.5 -80.5q149 0 236.5 80.5t87.5 226.5
v844q0 86 84 86h94q84 0 84 -86v-846q0 -245 -161 -396t-423 -151q-263 0 -424 151t-161 396z" />
    <glyph glyph-name="Yacute" unicode="&#xdd;" horiz-adv-x="1187" 
d="M463 86v522l-426 744q-26 43 -9.5 72.5t66.5 29.5h115q69 0 98 -63l197 -365q20 -40 42 -89t34 -77l12 -29h4q43 105 88 195l197 365q29 63 98 63h115q51 0 67.5 -29.5t-8.5 -72.5l-428 -744v-522q0 -86 -84 -86h-92q-86 0 -86 86zM584 1550q-44 0 -59.5 28.5t7.5 68.5
l72 122q35 60 101 60h73q55 0 67.5 -31t-22.5 -72l-92 -124q-43 -52 -104 -52h-43z" />
    <glyph glyph-name="Thorn" unicode="&#xde;" horiz-adv-x="1241" 
d="M168 86v1282q0 86 84 86h94q41 0 62.5 -22t21.5 -62v-151h297q205 0 334 -131.5t129 -342.5q0 -212 -129.5 -344.5t-335.5 -132.5h-295v-182q0 -86 -84 -86h-94q-84 0 -84 86zM430 496h248q116 0 180 67t64 182t-63.5 180.5t-176.5 65.5h-252v-495z" />
    <glyph glyph-name="germandbls" unicode="&#xdf;" horiz-adv-x="1222" 
d="M129 86v997q0 124 69.5 216t176 136t229.5 44q178 0 300 -102t122 -255q0 -51 -18.5 -96.5t-45.5 -77.5t-54 -61t-45.5 -61t-18.5 -64t34 -66t82.5 -69t97 -76t82.5 -102.5t34 -133.5q0 -157 -107 -243t-262 -86q-105 0 -207 30q-70 14 -70 95v51q0 90 78 71
q80 -26 162 -26q62 0 102.5 30t40.5 93q0 37 -34 74.5t-82 71.5t-96.5 72t-82.5 92t-34 116q0 45 18.5 86.5t45.5 73.5t54 63t45.5 67t18.5 72q0 57 -45 98t-123 41q-87 0 -147 -48.5t-60 -143.5v-979q0 -86 -86 -86h-88q-86 0 -86 86z" />
    <glyph glyph-name="agrave" unicode="&#xe0;" horiz-adv-x="1075" 
d="M49 289q0 63 22 115.5t58 88.5t87 64t104.5 44t116 26.5t115 14t107.5 3.5h43v25q0 96 -53.5 140t-140.5 44q-110 0 -217 -59q-79 -36 -115 34l-20 39q-40 75 32 115q167 86 342 86q203 0 318 -109.5t115 -306.5v-567q0 -86 -86 -86h-70q-84 0 -84 86v41l4 45h-4
q-4 -8 -12 -21.5t-37.5 -47.5t-64 -59.5t-92.5 -47t-122 -21.5q-146 0 -246 87.5t-100 226.5zM307 311q0 -56 42 -96.5t116 -40.5q103 0 171.5 86.5t68.5 188.5v38h-43q-60 0 -112.5 -6t-112 -23t-95 -54.5t-35.5 -92.5zM506 1176q-63 0 -105 51l-92 125q-34 41 -22 71.5
t65 30.5h76q66 0 100 -59l72 -125q22 -35 11.5 -64.5t-52.5 -29.5h-53z" />
    <glyph glyph-name="aacute" unicode="&#xe1;" horiz-adv-x="1075" 
d="M49 289q0 63 22 115.5t58 88.5t87 64t104.5 44t116 26.5t115 14t107.5 3.5h43v25q0 96 -53.5 140t-140.5 44q-110 0 -217 -59q-79 -36 -115 34l-20 39q-40 75 32 115q167 86 342 86q203 0 318 -109.5t115 -306.5v-567q0 -86 -86 -86h-70q-84 0 -84 86v41l4 45h-4
q-4 -8 -12 -21.5t-37.5 -47.5t-64 -59.5t-92.5 -47t-122 -21.5q-146 0 -246 87.5t-100 226.5zM307 311q0 -56 42 -96.5t116 -40.5q103 0 171.5 86.5t68.5 188.5v38h-43q-60 0 -112.5 -6t-112 -23t-95 -54.5t-35.5 -92.5zM524 1176q-44 0 -59 28t8 68l72 123q34 59 100 59h74
q55 0 67.5 -30.5t-22.5 -71.5l-92 -125q-42 -51 -105 -51h-43z" />
    <glyph glyph-name="acircumflex" unicode="&#xe2;" horiz-adv-x="1075" 
d="M49 289q0 63 22 115.5t58 88.5t87 64t104.5 44t116 26.5t115 14t107.5 3.5h43v25q0 96 -53.5 140t-140.5 44q-110 0 -217 -59q-79 -36 -115 34l-20 39q-40 75 32 115q167 86 342 86q203 0 318 -109.5t115 -306.5v-567q0 -86 -86 -86h-70q-84 0 -84 86v41l4 45h-4
q-4 -8 -12 -21.5t-37.5 -47.5t-64 -59.5t-92.5 -47t-122 -21.5q-146 0 -246 87.5t-100 226.5zM307 311q0 -56 42 -96.5t116 -40.5q103 0 171.5 86.5t68.5 188.5v38h-43q-60 0 -112.5 -6t-112 -23t-95 -54.5t-35.5 -92.5zM324 1176q-44 0 -55 30t18 74l82 119q38 55 104 55
h127q67 0 105 -55l81 -119q29 -44 18.5 -74t-54.5 -30h-54q-35 0 -52.5 12.5t-37.5 46.5l-67 106h-4l-70 -106q-18 -33 -36 -46t-52 -13h-53z" />
    <glyph glyph-name="atilde" unicode="&#xe3;" horiz-adv-x="1075" 
d="M49 289q0 63 22 115.5t58 88.5t87 64t104.5 44t116 26.5t115 14t107.5 3.5h43v25q0 96 -53.5 140t-140.5 44q-110 0 -217 -59q-79 -36 -115 34l-20 39q-40 75 32 115q167 86 342 86q203 0 318 -109.5t115 -306.5v-567q0 -86 -86 -86h-70q-84 0 -84 86v41l4 45h-4
q-4 -8 -12 -21.5t-37.5 -47.5t-64 -59.5t-92.5 -47t-122 -21.5q-146 0 -246 87.5t-100 226.5zM307 311q0 -56 42 -96.5t116 -40.5q103 0 171.5 86.5t68.5 188.5v38h-43q-60 0 -112.5 -6t-112 -23t-95 -54.5t-35.5 -92.5zM246 1178q-74 0 -74 77q0 85 58 144t149 59
q52 0 96.5 -21t69.5 -45.5t55.5 -45.5t58.5 -21q65 0 72 80q1 22 21.5 34.5t52.5 12.5h20q76 0 76 -70q0 -94 -57.5 -152.5t-149.5 -58.5q-53 0 -97.5 21t-69 46t-55 46t-58.5 21q-34 0 -54.5 -23t-23.5 -59q-6 -45 -70 -45h-20z" />
    <glyph glyph-name="adieresis" unicode="&#xe4;" horiz-adv-x="1075" 
d="M49 289q0 63 22 115.5t58 88.5t87 64t104.5 44t116 26.5t115 14t107.5 3.5h43v25q0 96 -53.5 140t-140.5 44q-110 0 -217 -59q-79 -36 -115 34l-20 39q-40 75 32 115q167 86 342 86q203 0 318 -109.5t115 -306.5v-567q0 -86 -86 -86h-70q-84 0 -84 86v41l4 45h-4
q-4 -8 -12 -21.5t-37.5 -47.5t-64 -59.5t-92.5 -47t-122 -21.5q-146 0 -246 87.5t-100 226.5zM307 311q0 -56 42 -96.5t116 -40.5q103 0 171.5 86.5t68.5 188.5v38h-43q-60 0 -112.5 -6t-112 -23t-95 -54.5t-35.5 -92.5zM709 1217q-84 0 -84 86v67q0 84 84 84h30
q84 0 84 -84v-67q0 -86 -84 -86h-30zM334 1217q-86 0 -86 86v67q0 84 86 84h28q42 0 64.5 -21.5t22.5 -62.5v-67q0 -86 -87 -86h-28z" />
    <glyph glyph-name="aring" unicode="&#xe5;" horiz-adv-x="1075" 
d="M49 289q0 63 22 115.5t58 88.5t87 64t104.5 44t116 26.5t115 14t107.5 3.5h43v25q0 96 -53.5 140t-140.5 44q-110 0 -217 -59q-79 -36 -115 34l-20 39q-40 75 32 115q167 86 342 86q203 0 318 -109.5t115 -306.5v-567q0 -86 -86 -86h-70q-84 0 -84 86v41l4 45h-4
q-4 -8 -12 -21.5t-37.5 -47.5t-64 -59.5t-92.5 -47t-122 -21.5q-146 0 -246 87.5t-100 226.5zM307 311q0 -56 42 -96.5t116 -40.5q103 0 171.5 86.5t68.5 188.5v38h-43q-60 0 -112.5 -6t-112 -23t-95 -54.5t-35.5 -92.5zM537 1151q-79 0 -137 43t-58 117q0 75 58 118.5
t137 43.5q78 0 135 -43.5t57 -118.5q0 -74 -57.5 -117t-134.5 -43zM537 1241q31 0 50 19.5t19 50.5q0 32 -19 51.5t-50 19.5t-50.5 -19.5t-19.5 -51.5q0 -31 19 -50.5t51 -19.5z" />
    <glyph glyph-name="ae" unicode="&#xe6;" horiz-adv-x="1734" 
d="M53 301q0 66 24.5 120t63 89t95 61t109.5 40t119 22t111 10t97 2h33v25q0 184 -201 184q-104 0 -211 -59q-79 -35 -117 34l-18 37q-41 77 30 115q157 88 334 88q243 0 340 -154h4q126 154 346 154q217 0 340 -138t123 -358q0 -33 -26.5 -60.5t-63.5 -27.5h-631
q12 -140 97.5 -214t210.5 -74q119 0 225 67q79 39 117 -31l20 -38q42 -73 -27 -115q-166 -105 -354 -105q-151 0 -261 60.5t-177 169.5h-4q-8 -19 -23 -43t-48.5 -58t-75 -61t-106 -46.5t-138.5 -19.5q-152 0 -254.5 87.5t-102.5 236.5zM963 645h450q-3 100 -61 160.5
t-142 60.5q-99 0 -163 -58t-84 -163zM315 313q0 -58 41 -96.5t119 -38.5q67 0 122 42.5t83.5 105.5t28.5 129v30h-72q-46 0 -87.5 -4t-85.5 -16t-76 -30.5t-52.5 -49.5t-20.5 -72z" />
    <glyph glyph-name="ccedilla" unicode="&#xe7;" horiz-adv-x="1091" 
d="M508 -109l24 93q-213 30 -339.5 180t-126.5 358q0 149 68.5 273t199.5 199t299 75q194 0 342 -104q64 -43 16 -117l-26 -41q-22 -34 -50.5 -38.5t-64.5 15.5q-95 64 -203 64q-142 0 -229.5 -93.5t-87.5 -230.5t89.5 -232t235.5 -95q123 0 234 79q78 44 117 -26l20 -39
q40 -71 -22 -115q-143 -109 -340 -119l-15 -67q67 -8 108.5 -47.5t41.5 -108.5q0 -94 -63.5 -137t-157.5 -43q-117 0 -117 70q0 33 12.5 52t30.5 19q9 0 25.5 -3t25.5 -3q34 0 55 15t21 45q0 49 -92 59q-46 3 -31 63z" />
    <glyph glyph-name="egrave" unicode="&#xe8;" horiz-adv-x="1118" 
d="M66 522q0 242 147.5 394.5t382.5 152.5q217 0 340 -138.5t123 -359.5q0 -35 -26.5 -61.5t-63.5 -26.5h-637q12 -136 100.5 -211t212.5 -75q119 0 225 67q77 38 115 -28l25 -41q39 -74 -29 -115q-166 -105 -354 -105q-168 0 -297.5 75t-196.5 199t-67 273zM338 641h463
q-3 107 -61.5 169t-149.5 62q-99 0 -166 -62.5t-86 -168.5zM561 1176q-62 0 -104 51l-92 125q-34 41 -22 71.5t65 30.5h75q67 0 101 -59l71 -125q22 -35 11.5 -64.5t-52.5 -29.5h-53z" />
    <glyph glyph-name="eacute" unicode="&#xe9;" horiz-adv-x="1118" 
d="M580 1176q-44 0 -59.5 28t7.5 68l72 123q34 59 100 59h74q55 0 67.5 -30.5t-22.5 -71.5l-92 -125q-42 -51 -104 -51h-43zM66 522q0 242 147.5 394.5t382.5 152.5q217 0 340 -138.5t123 -359.5q0 -35 -26.5 -61.5t-63.5 -26.5h-637q12 -136 100.5 -211t212.5 -75
q119 0 225 67q77 38 115 -28l25 -41q39 -74 -29 -115q-166 -105 -354 -105q-168 0 -297.5 75t-196.5 199t-67 273zM338 641h463q-3 107 -61.5 169t-149.5 62q-99 0 -166 -62.5t-86 -168.5z" />
    <glyph glyph-name="ecircumflex" unicode="&#xea;" horiz-adv-x="1118" 
d="M377 1176q-44 0 -55 30t18 74l82 119q38 55 104 55h127q67 0 105 -55l82 -119q29 -44 18 -74t-55 -30h-53q-35 0 -53 13t-38 46l-67 106h-4l-70 -106q-18 -33 -36 -46t-52 -13h-53zM66 522q0 242 147.5 394.5t382.5 152.5q217 0 340 -138.5t123 -359.5q0 -35 -26.5 -61.5
t-63.5 -26.5h-637q12 -136 100.5 -211t212.5 -75q119 0 225 67q77 38 115 -28l25 -41q39 -74 -29 -115q-166 -105 -354 -105q-168 0 -297.5 75t-196.5 199t-67 273zM338 641h463q-3 107 -61.5 169t-149.5 62q-99 0 -166 -62.5t-86 -168.5z" />
    <glyph glyph-name="edieresis" unicode="&#xeb;" horiz-adv-x="1118" 
d="M764 1217q-84 0 -84 86v67q0 84 84 84h31q84 0 84 -84v-67q0 -86 -84 -86h-31zM389 1217q-86 0 -86 86v67q0 84 86 84h29q86 0 86 -84v-67q0 -86 -86 -86h-29zM66 522q0 242 147.5 394.5t382.5 152.5q217 0 340 -138.5t123 -359.5q0 -35 -26.5 -61.5t-63.5 -26.5h-637
q12 -136 100.5 -211t212.5 -75q119 0 225 67q77 38 115 -28l25 -41q39 -74 -29 -115q-166 -105 -354 -105q-168 0 -297.5 75t-196.5 199t-67 273zM338 641h463q-3 107 -61.5 169t-149.5 62q-99 0 -166 -62.5t-86 -168.5z" />
    <glyph glyph-name="igrave" unicode="&#xec;" horiz-adv-x="516" 
d="M129 86v872q0 86 84 86h90q84 0 84 -86v-872q0 -86 -84 -86h-90q-84 0 -84 86zM225 1176q-62 0 -104 51l-92 125q-34 41 -22 71.5t65 30.5h75q67 0 101 -59l71 -125q22 -35 12 -64.5t-52 -29.5h-54z" />
    <glyph glyph-name="iacute" unicode="&#xed;" horiz-adv-x="516" 
d="M250 1176q-44 0 -59 28t8 68l71 123q34 59 101 59h73q55 0 67.5 -30.5t-22.5 -71.5l-92 -125q-42 -51 -104 -51h-43zM129 86v872q0 86 84 86h90q84 0 84 -86v-872q0 -86 -84 -86h-90q-84 0 -84 86z" />
    <glyph glyph-name="icircumflex" unicode="&#xee;" horiz-adv-x="516" 
d="M47 1176q-44 0 -55 30t18 74l82 119q38 55 105 55h127q66 0 104 -55l82 -119q29 -44 18 -74t-55 -30h-53q-35 0 -52.5 12.5t-37.5 46.5l-68 106h-4l-70 -106q-18 -33 -36 -46t-52 -13h-53zM129 86v872q0 86 84 86h90q84 0 84 -86v-872q0 -86 -84 -86h-90q-84 0 -84 86z
" />
    <glyph glyph-name="idieresis" unicode="&#xef;" horiz-adv-x="516" 
d="M432 1217q-84 0 -84 86v67q0 84 84 84h31q84 0 84 -84v-67q0 -86 -84 -86h-31zM57 1217q-86 0 -86 86v67q0 84 86 84h29q86 0 86 -84v-67q0 -86 -86 -86h-29zM129 86v872q0 86 84 86h90q84 0 84 -86v-872q0 -86 -84 -86h-90q-84 0 -84 86z" />
    <glyph glyph-name="eth" unicode="&#xf0;" horiz-adv-x="1185" 
d="M68 485q0 123 55 228t166.5 172t259.5 67q64 0 118.5 -18t77.5 -36l23 -17h4q-57 134 -203 229l-282 -123q-43 -18 -63 -13t-34 38l-10 24q-24 57 49 86l177 78q-63 33 -152 57q-82 28 -55 109l14 45q28 78 106 57q213 -58 365 -151l207 90q44 15 62.5 9.5t29.5 -32.5
l14 -30q24 -50 -47 -80l-131 -60q281 -246 281 -645q0 -87 -18 -169t-59 -160t-101 -136.5t-151.5 -93.5t-203.5 -35q-116 0 -212 43t-157.5 114.5t-95.5 163t-34 189.5zM330 479q0 -117 63 -200.5t180 -83.5q68 0 121 29t83.5 77t45.5 104.5t15 116.5q0 100 -65.5 164
t-176.5 64q-127 0 -196.5 -79.5t-69.5 -191.5z" />
    <glyph glyph-name="ntilde" unicode="&#xf1;" horiz-adv-x="1226" 
d="M129 86v872q0 86 84 86h80q84 0 84 -86v-63l-4 -47h4q15 29 35.5 57t54 58.5t72.5 53t93.5 37.5t115.5 15q364 0 364 -397v-586q0 -86 -86 -86h-88q-86 0 -86 86v532q0 104 -36 158.5t-128 54.5q-135 0 -218 -98.5t-83 -243.5v-403q0 -86 -84 -86h-90q-84 0 -84 86z
M342 1178q-74 0 -74 77q0 85 58 144t149 59q52 0 96.5 -21t69.5 -45.5t56 -45.5t59 -21q64 0 71 80q1 22 21.5 34.5t52.5 12.5h21q75 0 75 -70q0 -94 -57 -152.5t-149 -58.5q-53 0 -97.5 21t-69.5 46t-55.5 46t-58.5 21q-34 0 -54.5 -23t-23.5 -59q-6 -45 -70 -45h-20z" />
    <glyph glyph-name="ograve" unicode="&#xf2;" horiz-adv-x="1273" 
d="M63 522q0 156 77 282t208.5 195.5t288.5 69.5t288.5 -69.5t209 -195.5t77.5 -282q0 -157 -77.5 -283t-208.5 -195t-289 -69t-288.5 69t-208 195t-77.5 283zM328 522q0 -143 89.5 -234t219.5 -91t220.5 91t90.5 234q0 142 -90.5 234t-220.5 92t-219.5 -92t-89.5 -234z
M602 1176q-62 0 -104 51l-92 125q-34 41 -22 71.5t65 30.5h75q67 0 101 -59l71 -125q22 -35 11.5 -64.5t-52.5 -29.5h-53z" />
    <glyph glyph-name="oacute" unicode="&#xf3;" horiz-adv-x="1273" 
d="M627 1176q-44 0 -59.5 28t7.5 68l72 123q34 59 101 59h73q55 0 67.5 -30.5t-22.5 -71.5l-92 -125q-42 -51 -104 -51h-43zM63 522q0 156 77 282t208.5 195.5t288.5 69.5t288.5 -69.5t209 -195.5t77.5 -282q0 -157 -77.5 -283t-208.5 -195t-289 -69t-288.5 69t-208 195
t-77.5 283zM328 522q0 -143 89.5 -234t219.5 -91t220.5 91t90.5 234q0 142 -90.5 234t-220.5 92t-219.5 -92t-89.5 -234z" />
    <glyph glyph-name="ocircumflex" unicode="&#xf4;" horiz-adv-x="1273" 
d="M424 1176q-44 0 -55 30t18 74l82 119q38 55 104 55h127q67 0 105 -55l82 -119q29 -44 18 -74t-55 -30h-53q-35 0 -52.5 12.5t-37.5 46.5l-68 106h-4l-70 -106q-18 -33 -36 -46t-52 -13h-53zM63 522q0 156 77 282t208.5 195.5t288.5 69.5t288.5 -69.5t209 -195.5
t77.5 -282q0 -157 -77.5 -283t-208.5 -195t-289 -69t-288.5 69t-208 195t-77.5 283zM328 522q0 -143 89.5 -234t219.5 -91t220.5 91t90.5 234q0 142 -90.5 234t-220.5 92t-219.5 -92t-89.5 -234z" />
    <glyph glyph-name="otilde" unicode="&#xf5;" horiz-adv-x="1273" 
d="M63 522q0 156 77 282t208.5 195.5t288.5 69.5t288.5 -69.5t209 -195.5t77.5 -282q0 -157 -77.5 -283t-208.5 -195t-289 -69t-288.5 69t-208 195t-77.5 283zM328 522q0 -143 89.5 -234t219.5 -91t220.5 91t90.5 234q0 142 -90.5 234t-220.5 92t-219.5 -92t-89.5 -234z
M346 1178q-74 0 -74 77q0 85 58 144t149 59q52 0 96.5 -21t69.5 -45.5t56 -45.5t59 -21q64 0 71 80q1 22 21.5 34.5t52.5 12.5h21q75 0 75 -70q0 -94 -57 -152.5t-149 -58.5q-53 0 -97.5 21t-69.5 46t-55.5 46t-58.5 21q-34 0 -54.5 -23t-23.5 -59q-6 -45 -69 -45h-21z" />
    <glyph glyph-name="odieresis" unicode="&#xf6;" horiz-adv-x="1273" 
d="M809 1217q-84 0 -84 86v67q0 84 84 84h31q84 0 84 -84v-67q0 -86 -84 -86h-31zM434 1217q-86 0 -86 86v67q0 84 86 84h29q86 0 86 -84v-67q0 -86 -86 -86h-29zM63 522q0 156 77 282t208.5 195.5t288.5 69.5t288.5 -69.5t209 -195.5t77.5 -282q0 -157 -77.5 -283
t-208.5 -195t-289 -69t-288.5 69t-208 195t-77.5 283zM328 522q0 -143 89.5 -234t219.5 -91t220.5 91t90.5 234q0 142 -90.5 234t-220.5 92t-219.5 -92t-89.5 -234z" />
    <glyph glyph-name="divide" unicode="&#xf7;" horiz-adv-x="1267" 
d="M602 895q-86 0 -86 84v51q0 86 86 86h64q86 0 86 -86v-51q0 -84 -86 -84h-64zM186 483q-86 0 -86 86v31q0 86 86 86h897q84 0 84 -86v-31q0 -86 -84 -86h-897zM516 139v51q0 86 86 86h64q86 0 86 -86v-51q0 -84 -86 -84h-64q-86 0 -86 84z" />
    <glyph glyph-name="oslash" unicode="&#xf8;" horiz-adv-x="1275" 
d="M217 39l45 63q-93 73 -144.5 181.5t-51.5 238.5q0 156 77 282t208 195.5t288 69.5q146 0 272 -63l33 47q49 67 107 30q57 -42 22 -86l-47 -65q88 -75 138 -181t50 -229q0 -157 -77.5 -283t-208.5 -195t-289 -69q-143 0 -258 56l-35 -49q-50 -68 -106 -29q-58 42 -23 86z
M408 305l366 510q-68 33 -135 33q-130 0 -219.5 -92t-89.5 -234q0 -133 78 -217zM518 221q56 -24 121 -24q130 0 220.5 91t90.5 234q0 119 -71 203z" />
    <glyph glyph-name="ugrave" unicode="&#xf9;" horiz-adv-x="1216" 
d="M115 373v585q0 41 22.5 63.5t63.5 22.5h88q86 0 86 -86v-532q0 -104 35.5 -158.5t126.5 -54.5q135 0 213.5 102.5t78.5 249.5v393q0 86 86 86h89q41 0 63.5 -22.5t22.5 -63.5v-872q0 -86 -86 -86h-80q-84 0 -84 86v61l4 48h-4q-41 -88 -139.5 -154t-223.5 -66
q-362 0 -362 398zM571 1176q-62 0 -104 51l-92 125q-34 41 -22 71.5t65 30.5h76q66 0 100 -59l72 -125q22 -35 11.5 -64.5t-52.5 -29.5h-54z" />
    <glyph glyph-name="uacute" unicode="&#xfa;" horiz-adv-x="1216" 
d="M592 1176q-44 0 -59 28t8 68l71 123q34 59 101 59h73q55 0 67.5 -30.5t-22.5 -71.5l-92 -125q-42 -51 -104 -51h-43zM115 373v585q0 41 22.5 63.5t63.5 22.5h88q86 0 86 -86v-532q0 -104 35.5 -158.5t126.5 -54.5q135 0 213.5 102.5t78.5 249.5v393q0 86 86 86h89
q41 0 63.5 -22.5t22.5 -63.5v-872q0 -86 -86 -86h-80q-84 0 -84 86v61l4 48h-4q-41 -88 -139.5 -154t-223.5 -66q-362 0 -362 398z" />
    <glyph glyph-name="ucircumflex" unicode="&#xfb;" horiz-adv-x="1216" 
d="M389 1176q-44 0 -55 30t18 74l82 119q38 55 105 55h127q66 0 104 -55l82 -119q29 -44 18 -74t-55 -30h-53q-35 0 -52.5 12.5t-37.5 46.5l-68 106h-4l-70 -106q-18 -33 -36 -46t-52 -13h-53zM115 373v585q0 41 22.5 63.5t63.5 22.5h88q86 0 86 -86v-532
q0 -104 35.5 -158.5t126.5 -54.5q135 0 213.5 102.5t78.5 249.5v393q0 86 86 86h89q41 0 63.5 -22.5t22.5 -63.5v-872q0 -86 -86 -86h-80q-84 0 -84 86v61l4 48h-4q-41 -88 -139.5 -154t-223.5 -66q-362 0 -362 398z" />
    <glyph glyph-name="udieresis" unicode="&#xfc;" horiz-adv-x="1216" 
d="M774 1217q-84 0 -84 86v67q0 84 84 84h31q84 0 84 -84v-67q0 -86 -84 -86h-31zM399 1217q-86 0 -86 86v67q0 84 86 84h29q86 0 86 -84v-67q0 -86 -86 -86h-29zM115 373v585q0 41 22.5 63.5t63.5 22.5h88q86 0 86 -86v-532q0 -104 35.5 -158.5t126.5 -54.5
q135 0 213.5 102.5t78.5 249.5v393q0 86 86 86h89q41 0 63.5 -22.5t22.5 -63.5v-872q0 -86 -86 -86h-80q-84 0 -84 86v61l4 48h-4q-41 -88 -139.5 -154t-223.5 -66q-362 0 -362 398z" />
    <glyph glyph-name="yacute" unicode="&#xfd;" horiz-adv-x="1052" 
d="M49 -244q30 61 92 47q41 -18 74 -18q54 0 97.5 39.5t68.5 99.5l39 92l-397 928q-20 44 -2 72t67 28h111q73 0 96 -69l197 -533l38 -141h5q18 82 34 137l185 535q20 71 96 71h102q47 0 66 -27t4 -71l-430 -1102q-52 -136 -153.5 -205t-223.5 -69q-63 0 -145 31
q-36 13 -46.5 44t7.5 66zM520 1174q-44 0 -59 28t8 68l72 123q34 59 100 59h74q55 0 67.5 -30.5t-22.5 -71.5l-92 -125q-42 -51 -105 -51h-43z" />
    <glyph glyph-name="thorn" unicode="&#xfe;" horiz-adv-x="1234" 
d="M131 -324v1692q0 41 22.5 63.5t63.5 22.5h88q86 0 86 -86v-360l-4 -86h4q23 25 31 34t41 36t61 39.5t75 25t99 12.5q211 0 340 -154.5t129 -392.5t-132 -392.5t-341 -154.5q-62 0 -116.5 14.5t-87 35.5t-56.5 42t-34 35l-9 15h-4q4 -37 4 -90v-351q0 -86 -86 -86h-88
q-86 0 -86 86zM383 520q0 -152 72 -238.5t192 -86.5q114 0 186 92t72 235q0 142 -70.5 234t-183.5 92q-118 0 -193 -79.5t-75 -248.5z" />
    <glyph glyph-name="ydieresis" unicode="&#xff;" horiz-adv-x="1052" 
d="M49 -244q30 61 92 47q41 -18 74 -18q54 0 97.5 39.5t68.5 99.5l39 92l-397 928q-20 44 -2 72t67 28h111q73 0 96 -69l197 -533l38 -141h5q18 82 34 137l185 535q20 71 96 71h102q47 0 66 -27t4 -71l-430 -1102q-52 -136 -153.5 -205t-223.5 -69q-63 0 -145 31
q-36 13 -46.5 44t7.5 66zM705 1214q-84 0 -84 86v68q0 84 84 84h30q84 0 84 -84v-68q0 -86 -84 -86h-30zM330 1214q-86 0 -86 86v68q0 84 86 84h28q86 0 86 -84v-68q0 -86 -86 -86h-28z" />
    <glyph glyph-name="Amacron" unicode="&#x100;" horiz-adv-x="1298" 
d="M33 98l454 1286q24 70 97 70h131q75 0 96 -70l455 -1286q15 -44 -4 -71t-66 -27h-94q-75 0 -96 70l-103 303h-510l-100 -301q-21 -72 -96 -72h-95q-47 0 -65.5 26.5t-3.5 71.5zM459 588h379l-129 389q-11 36 -25.5 92.5t-23.5 94.5l-9 38h-4q-32 -143 -57 -225zM465 1604
q-84 0 -84 82v14q0 82 84 82h366q87 0 87 -82v-14q0 -82 -87 -82h-366z" />
    <glyph glyph-name="amacron" unicode="&#x101;" horiz-adv-x="1075" 
d="M49 289q0 63 22 115.5t58 88.5t87 64t104.5 44t116 26.5t115 14t107.5 3.5h43v25q0 96 -53.5 140t-140.5 44q-110 0 -217 -59q-79 -36 -115 34l-20 39q-40 75 32 115q167 86 342 86q203 0 318 -109.5t115 -306.5v-567q0 -86 -86 -86h-70q-84 0 -84 86v41l4 45h-4
q-4 -8 -12 -21.5t-37.5 -47.5t-64 -59.5t-92.5 -47t-122 -21.5q-146 0 -246 87.5t-100 226.5zM307 311q0 -56 42 -96.5t116 -40.5q103 0 171.5 86.5t68.5 188.5v38h-43q-60 0 -112.5 -6t-112 -23t-95 -54.5t-35.5 -92.5zM352 1229q-84 0 -84 82v14q0 82 84 82h367
q86 0 86 -82v-14q0 -82 -86 -82h-367z" />
    <glyph glyph-name="Abreve" unicode="&#x102;" horiz-adv-x="1298" 
d="M33 98l454 1286q24 70 97 70h131q75 0 96 -70l455 -1286q15 -44 -4 -71t-66 -27h-94q-75 0 -96 70l-103 303h-510l-100 -301q-21 -72 -96 -72h-95q-47 0 -65.5 26.5t-3.5 71.5zM459 588h379l-129 389q-11 36 -25.5 92.5t-23.5 94.5l-9 38h-4q-32 -143 -57 -225zM649 1542
q-115 0 -208 67.5t-93 168.5q0 51 72 51h39q61 0 73 -57q19 -89 117 -89q96 0 115 89q17 57 74 57h39q73 0 73 -51q0 -69 -45 -124t-113 -83.5t-143 -28.5z" />
    <glyph glyph-name="abreve" unicode="&#x103;" horiz-adv-x="1075" 
d="M49 289q0 63 22 115.5t58 88.5t87 64t104.5 44t116 26.5t115 14t107.5 3.5h43v25q0 96 -53.5 140t-140.5 44q-110 0 -217 -59q-79 -36 -115 34l-20 39q-40 75 32 115q167 86 342 86q203 0 318 -109.5t115 -306.5v-567q0 -86 -86 -86h-70q-84 0 -84 86v41l4 45h-4
q-4 -8 -12 -21.5t-37.5 -47.5t-64 -59.5t-92.5 -47t-122 -21.5q-146 0 -246 87.5t-100 226.5zM307 311q0 -56 42 -96.5t116 -40.5q103 0 171.5 86.5t68.5 188.5v38h-43q-60 0 -112.5 -6t-112 -23t-95 -54.5t-35.5 -92.5zM537 1167q-115 0 -208 67.5t-93 168.5q0 51 71 51h39
q62 0 74 -57q19 -88 117 -88q95 0 114 88q17 57 74 57h39q74 0 74 -51q0 -69 -45 -124t-113 -83.5t-143 -28.5z" />
    <glyph glyph-name="Aogonek" unicode="&#x104;" horiz-adv-x="1298" 
d="M33 98l454 1286q24 70 97 70h131q72 0 96 -70l455 -1286q30 -87 -11 -125q-5 -4 -23 -19t-24.5 -21.5t-20.5 -21t-19.5 -24t-11 -23.5t-5.5 -28q0 -29 19 -44.5t51 -27.5q39 -16 30 -79l-6 -43q-3 -31 -25 -46t-53 -12q-28 4 -57 12.5t-59 25t-53 37.5t-37.5 52.5
t-14.5 67.5q0 109 135 229q-3 0 -7 1t-15.5 5t-21.5 11t-20.5 21.5t-15.5 33.5l-98 293h-510l-100 -301q-21 -72 -96 -72h-95q-47 0 -65.5 26.5t-3.5 71.5zM459 588h379l-129 389q-11 36 -25.5 92.5t-23.5 94.5l-9 38h-4q-32 -143 -57 -225z" />
    <glyph glyph-name="aogonek" unicode="&#x105;" horiz-adv-x="1079" 
d="M49 289q0 63 22 115.5t58 88.5t87 64t104.5 44t116 26.5t115 14t107.5 3.5h43v25q0 96 -53.5 140t-140.5 44q-110 0 -217 -59q-79 -36 -115 34l-20 39q-40 75 32 115q167 86 342 86q203 0 318 -109.5t115 -306.5v-567q0 -28 -14.5 -53.5t-35 -46.5l-41 -42t-35 -49
t-14.5 -59q0 -29 19 -44.5t51 -27.5q40 -17 31 -79l-6 -43q-4 -31 -26 -46t-52 -12q-36 5 -72 18t-71 35.5t-57 59.5t-22 82q0 121 132 239q-27 18 -27 68v41l4 45h-4q-4 -8 -12 -21.5t-37.5 -47.5t-64 -59.5t-92.5 -47t-122 -21.5q-146 0 -246 87.5t-100 226.5zM307 311
q0 -56 42 -96.5t116 -40.5q103 0 171.5 86.5t68.5 188.5v38h-43q-60 0 -112.5 -6t-112 -23t-95 -54.5t-35.5 -92.5z" />
    <glyph glyph-name="Cacute" unicode="&#x106;" horiz-adv-x="1441" 
d="M803 1550q-44 0 -59 28.5t8 68.5l71 122q35 60 101 60h73q55 0 67.5 -31t-22.5 -72l-92 -124q-43 -52 -104 -52h-43zM82 733q0 157 55.5 294.5t153.5 237t238 157t302 57.5q269 0 476 -146q62 -48 16 -119l-37 -59q-42 -68 -117 -20q-157 102 -327 102q-115 0 -209 -40.5
t-154.5 -109.5t-92.5 -159t-32 -191q0 -103 33 -196t94 -165.5t155 -115.5t208 -43q180 0 356 127q72 53 119 -14l41 -56q50 -65 -12 -118q-225 -181 -514 -181q-224 0 -396.5 100.5t-264 272t-91.5 385.5z" />
    <glyph glyph-name="cacute" unicode="&#x107;" horiz-adv-x="1085" 
d="M580 1176q-44 0 -59.5 28t7.5 68l72 123q34 59 100 59h74q55 0 67.5 -30.5t-22.5 -71.5l-92 -125q-42 -51 -104 -51h-43zM63 522q0 111 40.5 210.5t113 174t180 118.5t234.5 44q194 0 342 -104q64 -43 16 -117l-26 -41q-22 -34 -50.5 -38.5t-64.5 15.5q-95 64 -203 64
q-142 0 -229.5 -93.5t-87.5 -230.5t89.5 -232t235.5 -95q123 0 234 79q78 44 117 -26l20 -39q39 -71 -23 -115q-162 -121 -370 -121q-127 0 -234.5 43t-180 117t-113 174t-40.5 213z" />
    <glyph glyph-name="Ccircumflex" unicode="&#x108;" horiz-adv-x="1441" 
d="M600 1550q-44 0 -55 30.5t18 74.5l82 119q38 55 105 55h127q66 0 104 -55l82 -119q29 -44 18 -74.5t-55 -30.5h-53q-34 0 -51.5 13t-38.5 47l-68 106h-4l-70 -106q-19 -33 -37 -46.5t-51 -13.5h-53zM82 733q0 157 55.5 294.5t153.5 237t238 157t302 57.5q269 0 476 -146
q62 -48 16 -119l-37 -59q-42 -68 -117 -20q-157 102 -327 102q-115 0 -209 -40.5t-154.5 -109.5t-92.5 -159t-32 -191q0 -103 33 -196t94 -165.5t155 -115.5t208 -43q180 0 356 127q72 53 119 -14l41 -56q50 -65 -12 -118q-225 -181 -514 -181q-224 0 -396.5 100.5t-264 272
t-91.5 385.5z" />
    <glyph glyph-name="ccircumflex" unicode="&#x109;" horiz-adv-x="1085" 
d="M377 1176q-44 0 -55 30t18 74l82 119q38 55 104 55h127q67 0 105 -55l82 -119q29 -44 18 -74t-55 -30h-53q-35 0 -53 13t-38 46l-67 106h-4l-70 -106q-18 -33 -36 -46t-52 -13h-53zM63 522q0 111 40.5 210.5t113 174t180 118.5t234.5 44q194 0 342 -104q64 -43 16 -117
l-26 -41q-22 -34 -50.5 -38.5t-64.5 15.5q-95 64 -203 64q-142 0 -229.5 -93.5t-87.5 -230.5t89.5 -232t235.5 -95q123 0 234 79q78 44 117 -26l20 -39q39 -71 -23 -115q-162 -121 -370 -121q-127 0 -234.5 43t-180 117t-113 174t-40.5 213z" />
    <glyph glyph-name="Cdotaccent" unicode="&#x10a;" horiz-adv-x="1441" 
d="M82 733q0 157 55.5 294.5t153.5 237t238 157t302 57.5q269 0 476 -146q62 -48 16 -119l-37 -59q-42 -68 -117 -20q-157 102 -327 102q-115 0 -209 -40.5t-154.5 -109.5t-92.5 -159t-32 -191q0 -103 33 -196t94 -165.5t155 -115.5t208 -43q180 0 356 127q72 53 119 -14
l41 -56q50 -65 -12 -118q-225 -181 -514 -181q-224 0 -396.5 100.5t-264 272t-91.5 385.5zM786 1602q-84 0 -84 86v57q0 84 84 84h54q84 0 84 -84v-57q0 -86 -84 -86h-54z" />
    <glyph glyph-name="cdotaccent" unicode="&#x10b;" horiz-adv-x="1085" 
d="M63 522q0 111 40.5 210.5t113 174t180 118.5t234.5 44q194 0 342 -104q64 -43 16 -117l-26 -41q-22 -34 -50.5 -38.5t-64.5 15.5q-95 64 -203 64q-142 0 -229.5 -93.5t-87.5 -230.5t89.5 -232t235.5 -95q123 0 234 79q78 44 117 -26l20 -39q39 -71 -23 -115
q-162 -121 -370 -121q-127 0 -234.5 43t-180 117t-113 174t-40.5 213zM565 1227q-84 0 -84 86v57q0 84 84 84h53q84 0 84 -84v-57q0 -86 -84 -86h-53z" />
    <glyph glyph-name="Ccaron" unicode="&#x10c;" horiz-adv-x="1441" 
d="M750 1550q-66 0 -105 56l-82 120q-29 43 -18 73t55 30h53q34 0 52 -12.5t36 -44.5l70 -109h4l68 109q20 33 37.5 45t52.5 12h53q44 0 55 -30t-18 -73l-82 -120q-39 -56 -104 -56h-127zM82 733q0 157 55.5 294.5t153.5 237t238 157t302 57.5q269 0 476 -146
q62 -48 16 -119l-37 -59q-42 -68 -117 -20q-157 102 -327 102q-115 0 -209 -40.5t-154.5 -109.5t-92.5 -159t-32 -191q0 -103 33 -196t94 -165.5t155 -115.5t208 -43q180 0 356 127q72 53 119 -14l41 -56q50 -65 -12 -118q-225 -181 -514 -181q-224 0 -396.5 100.5t-264 272
t-91.5 385.5z" />
    <glyph glyph-name="ccaron" unicode="&#x10d;" horiz-adv-x="1085" 
d="M526 1176q-66 0 -104 55l-82 121q-29 43 -18 72.5t55 29.5h53q34 0 52 -12.5t36 -44.5l70 -109h4l67 109q20 33 38 45t53 12h53q44 0 55 -29.5t-18 -72.5l-82 -121q-38 -55 -105 -55h-127zM63 522q0 111 40.5 210.5t113 174t180 118.5t234.5 44q194 0 342 -104
q64 -43 16 -117l-26 -41q-22 -34 -50.5 -38.5t-64.5 15.5q-95 64 -203 64q-142 0 -229.5 -93.5t-87.5 -230.5t89.5 -232t235.5 -95q123 0 234 79q78 44 117 -26l20 -39q39 -71 -23 -115q-162 -121 -370 -121q-127 0 -234.5 43t-180 117t-113 174t-40.5 213z" />
    <glyph glyph-name="Dcaron" unicode="&#x10e;" horiz-adv-x="1490" 
d="M627 1550q-66 0 -105 56l-82 120q-29 43 -18 73t55 30h53q34 0 52 -12.5t36 -44.5l70 -109h4l68 109q20 33 37.5 45t52.5 12h53q44 0 55 -30t-18 -73l-82 -120q-39 -56 -104 -56h-127zM168 86v1282q0 86 84 86h412q340 0 540.5 -192t200.5 -533t-200.5 -535t-540.5 -194
h-412q-84 0 -84 86zM430 227h219q225 0 354.5 130t129.5 372q0 239 -130.5 368.5t-353.5 129.5h-219v-1000z" />
    <glyph glyph-name="dcaron" unicode="&#x10f;" horiz-adv-x="1234" 
d="M1223 1399q0 29 19 41t56 12h41q99 0 99 -125q0 -85 -38.5 -148t-90.5 -63h-23q-76 0 -76 47q0 14 11.5 54.5t11.5 80.5q0 24 -5 54t-5 47zM68 522q0 247 132 397t341 150q64 0 119 -15.5t88 -37t56.5 -43.5t32.5 -37l9 -16h4q-4 26 -4 59v389q0 86 84 86h90q84 0 84 -86
v-1282q0 -86 -84 -86h-76q-84 0 -84 78v41l4 37h-4q-4 -7 -11 -19.5t-35.5 -43.5t-62.5 -55t-93 -43.5t-126 -19.5q-211 0 -337.5 151t-126.5 396zM330 522q0 -148 72 -237.5t188 -89.5q111 0 186.5 83t75.5 246q0 132 -68 227t-192 95q-111 0 -186.5 -87t-75.5 -237z" />
    <glyph glyph-name="Dcroat" unicode="&#x110;" horiz-adv-x="1492" 
d="M170 86v530h-33q-86 0 -86 86v43q0 86 51 86h68v537q0 86 86 86h410q340 0 540.5 -192t200.5 -533t-200.5 -535t-540.5 -194h-410q-86 0 -86 86zM432 227h219q225 0 354.5 130t129.5 372q0 239 -130.5 368.5t-353.5 129.5h-219v-396h186q84 0 84 -86v-43q0 -86 -79 -86
h-191v-389z" />
    <glyph glyph-name="dcroat" unicode="&#x111;" horiz-adv-x="1234" 
d="M68 522q0 247 132 397t341 150q64 0 119 -15t87.5 -36.5t55.5 -42.5t32 -36l9 -15h4q-2 24 -2 59v162h-178q-86 0 -86 72v12q0 71 86 71h178v68q0 86 84 86h90q84 0 84 -86v-68h63q84 0 84 -71v-12q0 -72 -55 -72h-92v-1059q0 -86 -84 -86h-76q-84 0 -84 78v39l2 37h-4
q-4 -7 -11 -19t-35 -43t-61.5 -54.5t-92.5 -43t-126 -19.5q-211 0 -337.5 151t-126.5 396zM330 522q0 -148 72 -237.5t188 -89.5q111 0 186.5 83t75.5 246q0 132 -68 227t-192 95q-111 0 -186.5 -87t-75.5 -237z" />
    <glyph glyph-name="Emacron" unicode="&#x112;" horiz-adv-x="1140" 
d="M168 86v1282q0 86 84 86h700q41 0 63.5 -22.5t22.5 -63.5v-57q0 -84 -86 -84h-522v-381h406q86 0 86 -84v-57q0 -87 -86 -87h-406v-391h555q86 0 86 -84v-57q0 -86 -86 -86h-733q-84 0 -84 86zM438 1604q-84 0 -84 82v14q0 82 84 82h367q86 0 86 -82v-14q0 -82 -86 -82
h-367z" />
    <glyph glyph-name="emacron" unicode="&#x113;" horiz-adv-x="1118" 
d="M66 522q0 242 147.5 394.5t382.5 152.5q217 0 340 -138.5t123 -359.5q0 -35 -26.5 -61.5t-63.5 -26.5h-637q12 -136 100.5 -211t212.5 -75q119 0 225 67q77 38 115 -28l25 -41q39 -74 -29 -115q-166 -105 -354 -105q-168 0 -297.5 75t-196.5 199t-67 273zM338 641h463
q-3 107 -61.5 169t-149.5 62q-99 0 -166 -62.5t-86 -168.5zM408 1229q-84 0 -84 82v14q0 82 84 82h366q86 0 86 -82v-14q0 -82 -86 -82h-366z" />
    <glyph glyph-name="Ebreve" unicode="&#x114;" horiz-adv-x="1140" 
d="M168 86v1282q0 86 84 86h700q41 0 63.5 -22.5t22.5 -63.5v-57q0 -84 -86 -84h-522v-381h406q86 0 86 -84v-57q0 -87 -86 -87h-406v-391h555q86 0 86 -84v-57q0 -86 -86 -86h-733q-84 0 -84 86zM623 1542q-115 0 -208 67.5t-93 168.5q0 51 71 51h39q62 0 74 -57
q19 -89 117 -89q95 0 114 89q17 57 74 57h39q74 0 74 -51q0 -69 -45 -124t-113 -83.5t-143 -28.5z" />
    <glyph glyph-name="ebreve" unicode="&#x115;" horiz-adv-x="1118" 
d="M66 522q0 242 147.5 394.5t382.5 152.5q217 0 340 -138.5t123 -359.5q0 -35 -26.5 -61.5t-63.5 -26.5h-637q12 -136 100.5 -211t212.5 -75q119 0 225 67q77 38 115 -28l25 -41q39 -74 -29 -115q-166 -105 -354 -105q-168 0 -297.5 75t-196.5 199t-67 273zM338 641h463
q-3 107 -61.5 169t-149.5 62q-99 0 -166 -62.5t-86 -168.5zM592 1167q-115 0 -208 67.5t-93 168.5q0 51 71 51h39q62 0 74 -57q19 -88 117 -88q96 0 115 88q5 17 11 27.5t22 20t40 9.5h39q74 0 74 -51q0 -69 -45 -124t-113 -83.5t-143 -28.5z" />
    <glyph glyph-name="Edotaccent" unicode="&#x116;" horiz-adv-x="1140" 
d="M168 86v1282q0 86 84 86h700q41 0 63.5 -22.5t22.5 -63.5v-57q0 -84 -86 -84h-522v-381h406q86 0 86 -84v-57q0 -87 -86 -87h-406v-391h555q86 0 86 -84v-57q0 -86 -86 -86h-733q-84 0 -84 86zM596 1602q-84 0 -84 86v57q0 84 84 84h53q84 0 84 -84v-57q0 -86 -84 -86
h-53z" />
    <glyph glyph-name="edotaccent" unicode="&#x117;" horiz-adv-x="1118" 
d="M66 522q0 242 147.5 394.5t382.5 152.5q217 0 340 -138.5t123 -359.5q0 -35 -26.5 -61.5t-63.5 -26.5h-637q12 -136 100.5 -211t212.5 -75q119 0 225 67q77 38 115 -28l25 -41q39 -74 -29 -115q-166 -105 -354 -105q-168 0 -297.5 75t-196.5 199t-67 273zM338 641h463
q-3 107 -61.5 169t-149.5 62q-99 0 -166 -62.5t-86 -168.5zM565 1227q-84 0 -84 86v57q0 84 84 84h53q84 0 84 -84v-57q0 -86 -84 -86h-53z" />
    <glyph glyph-name="Eogonek" unicode="&#x118;" horiz-adv-x="1140" 
d="M168 86v1282q0 86 84 86h700q41 0 63.5 -22.5t22.5 -63.5v-57q0 -84 -86 -84h-522v-381h406q86 0 86 -84v-57q0 -87 -86 -87h-406v-391h555q86 0 86 -84v-59q0 -26 -15 -50.5t-36.5 -45.5t-42.5 -42.5t-36 -50t-15 -59.5q0 -29 19 -44.5t50 -27.5q42 -16 33 -79l-6 -43
q-4 -31 -26.5 -46t-53.5 -12q-36 5 -71.5 18t-70.5 35.5t-57 59.5t-22 82q0 108 117 221h-586q-84 0 -84 86z" />
    <glyph glyph-name="eogonek" unicode="&#x119;" horiz-adv-x="1122" 
d="M66 522q0 242 147.5 394.5t382.5 152.5q217 0 340 -141t123 -363q-2 -33 -26.5 -57.5t-63.5 -24.5h-637q12 -136 100.5 -211t212.5 -75q119 0 225 67q79 39 117 -31l21 -38q33 -63 -23 -119q-10 -10 -55 -48t-70.5 -62.5t-50.5 -62t-25 -67.5q0 -29 19 -44.5t51 -27.5
q42 -17 33 -79l-6 -43q-4 -31 -26.5 -45.5t-53.5 -12.5q-47 4 -96 26t-88 65t-39 96q0 108 116 213q-56 -9 -67 -9q-168 0 -297.5 75t-196.5 199t-67 273zM338 641h459q-3 104 -61 165.5t-146 61.5q-98 0 -165.5 -62t-86.5 -165z" />
    <glyph glyph-name="Ecaron" unicode="&#x11a;" horiz-adv-x="1140" 
d="M557 1550q-65 0 -104 56l-82 120q-29 43 -18 73t55 30h53q34 0 52 -12.5t36 -44.5l69 -109h5l67 109q20 33 37.5 45t52.5 12h54q44 0 54.5 -30t-18.5 -73l-82 -120q-39 -56 -104 -56h-127zM168 86v1282q0 86 84 86h700q41 0 63.5 -22.5t22.5 -63.5v-57q0 -84 -86 -84
h-522v-381h406q86 0 86 -84v-57q0 -87 -86 -87h-406v-391h555q86 0 86 -84v-57q0 -86 -86 -86h-733q-84 0 -84 86z" />
    <glyph glyph-name="ecaron" unicode="&#x11b;" horiz-adv-x="1118" 
d="M526 1176q-66 0 -104 55l-82 121q-29 43 -18 72.5t55 29.5h53q34 0 52 -12.5t36 -44.5l70 -109h4l67 109q20 33 38 45t53 12h53q44 0 55 -29.5t-18 -72.5l-82 -121q-38 -55 -105 -55h-127zM66 522q0 242 147.5 394.5t382.5 152.5q217 0 340 -138.5t123 -359.5
q0 -35 -26.5 -61.5t-63.5 -26.5h-637q12 -136 100.5 -211t212.5 -75q119 0 225 67q77 38 115 -28l25 -41q39 -74 -29 -115q-166 -105 -354 -105q-168 0 -297.5 75t-196.5 199t-67 273zM338 641h463q-3 107 -61.5 169t-149.5 62q-99 0 -166 -62.5t-86 -168.5z" />
    <glyph glyph-name="Gcircumflex" unicode="&#x11c;" horiz-adv-x="1544" 
d="M598 1550q-44 0 -55 30.5t18 74.5l82 119q38 55 105 55h126q67 0 105 -55l82 -119q29 -44 18 -74.5t-55 -30.5h-53q-34 0 -51.5 13t-38.5 47l-68 106h-4l-70 -106q-19 -33 -37 -46.5t-51 -13.5h-53zM82 721q0 214 97 387.5t269 272t386 98.5q158 0 283 -43t192 -90
q64 -50 18 -119l-37 -58q-43 -65 -119 -22q-153 90 -323 90q-116 0 -210.5 -40t-156 -109t-94.5 -160.5t-33 -194.5q0 -112 38 -209t103.5 -164t155 -105t189.5 -38q68 0 131 16.5t104.5 40t73 47t45.5 39.5l14 17v162h-139q-41 0 -63.5 22.5t-22.5 63.5v55q0 86 86 86h291
q84 0 84 -86v-594q0 -86 -84 -86h-51q-40 0 -62 19t-22 51v34l2 35h-4q-6 -7 -17.5 -18t-51.5 -39t-85.5 -50t-119 -39.5t-152.5 -17.5q-144 0 -274 55t-228 151t-155.5 237t-57.5 303z" />
    <glyph glyph-name="gcircumflex" unicode="&#x11d;" horiz-adv-x="1218" 
d="M379 1176q-44 0 -55 30t18 74l82 119q38 55 104 55h127q67 0 105 -55l82 -119q29 -44 18 -74t-55 -30h-53q-35 0 -52.5 12.5t-37.5 46.5l-68 106h-4l-70 -106q-18 -33 -36 -46t-52 -13h-53zM215 -217q17 38 42.5 49t66.5 -2q106 -39 211 -39q131 0 212.5 61.5t81.5 192.5
v78l5 53h-5q-91 -156 -286 -156q-111 0 -202 42t-149.5 115t-90 169t-31.5 205q0 108 30.5 201.5t88 164.5t148 111.5t204.5 40.5q68 0 125 -16.5t89.5 -40t55.5 -47t31 -39.5l8 -17h4q-2 11 -2 27v39q0 30 22 49.5t62 19.5h70q84 0 84 -86v-895q0 -104 -31.5 -188.5
t-84 -140t-123.5 -93.5t-146.5 -54.5t-155.5 -16.5q-177 0 -305 55q-78 34 -45 111zM594 240q49 0 90 15.5t76.5 49t55.5 95t20 145.5q0 303 -254 303q-119 0 -184.5 -77.5t-65.5 -209.5q0 -144 69.5 -232.5t192.5 -88.5z" />
    <glyph glyph-name="Gbreve" unicode="&#x11e;" horiz-adv-x="1544" 
d="M82 721q0 214 97 387.5t269 272t386 98.5q158 0 283 -43t192 -90q64 -50 18 -119l-37 -58q-43 -65 -119 -22q-153 90 -323 90q-116 0 -210.5 -40t-156 -109t-94.5 -160.5t-33 -194.5q0 -112 38 -209t103.5 -164t155 -105t189.5 -38q68 0 131 16.5t104.5 40t73 47
t45.5 39.5l14 17v162h-139q-41 0 -63.5 22.5t-22.5 63.5v55q0 86 86 86h291q84 0 84 -86v-594q0 -86 -84 -86h-51q-40 0 -62 19t-22 51v34l2 35h-4q-6 -7 -17.5 -18t-51.5 -39t-85.5 -50t-119 -39.5t-152.5 -17.5q-144 0 -274 55t-228 151t-155.5 237t-57.5 303zM811 1542
q-115 0 -208 67.5t-93 168.5q0 51 72 51h39q61 0 73 -57q19 -89 117 -89q96 0 115 89q5 17 11 27.5t22 20t40 9.5h39q74 0 74 -51q0 -69 -45 -124t-113 -83.5t-143 -28.5z" />
    <glyph glyph-name="gbreve" unicode="&#x11f;" horiz-adv-x="1218" 
d="M215 -217q17 38 42.5 49t66.5 -2q106 -39 211 -39q131 0 212.5 61.5t81.5 192.5v78l5 53h-5q-91 -156 -286 -156q-111 0 -202 42t-149.5 115t-90 169t-31.5 205q0 108 30.5 201.5t88 164.5t148 111.5t204.5 40.5q68 0 125 -16.5t89.5 -40t55.5 -47t31 -39.5l8 -17h4
q-2 11 -2 27v39q0 30 22 49.5t62 19.5h70q84 0 84 -86v-895q0 -104 -31.5 -188.5t-84 -140t-123.5 -93.5t-146.5 -54.5t-155.5 -16.5q-177 0 -305 55q-78 34 -45 111zM594 240q49 0 90 15.5t76.5 49t55.5 95t20 145.5q0 303 -254 303q-119 0 -184.5 -77.5t-65.5 -209.5
q0 -144 69.5 -232.5t192.5 -88.5zM594 1167q-115 0 -208 67.5t-93 168.5q0 51 72 51h38q62 0 74 -57q19 -88 117 -88q96 0 115 88q5 17 11 27.5t22 20t40 9.5h39q74 0 74 -51q0 -69 -45 -124t-113 -83.5t-143 -28.5z" />
    <glyph glyph-name="Gdotaccent" unicode="&#x120;" horiz-adv-x="1544" 
d="M82 721q0 214 97 387.5t269 272t386 98.5q158 0 283 -43t192 -90q64 -50 18 -119l-37 -58q-43 -65 -119 -22q-153 90 -323 90q-116 0 -210.5 -40t-156 -109t-94.5 -160.5t-33 -194.5q0 -112 38 -209t103.5 -164t155 -105t189.5 -38q68 0 131 16.5t104.5 40t73 47
t45.5 39.5l14 17v162h-139q-41 0 -63.5 22.5t-22.5 63.5v55q0 86 86 86h291q84 0 84 -86v-594q0 -86 -84 -86h-51q-40 0 -62 19t-22 51v34l2 35h-4q-6 -7 -17.5 -18t-51.5 -39t-85.5 -50t-119 -39.5t-152.5 -17.5q-144 0 -274 55t-228 151t-155.5 237t-57.5 303zM784 1602
q-84 0 -84 86v57q0 84 84 84h54q84 0 84 -84v-57q0 -86 -84 -86h-54z" />
    <glyph glyph-name="gdotaccent" unicode="&#x121;" horiz-adv-x="1218" 
d="M215 -217q17 38 42.5 49t66.5 -2q106 -39 211 -39q131 0 212.5 61.5t81.5 192.5v78l5 53h-5q-91 -156 -286 -156q-111 0 -202 42t-149.5 115t-90 169t-31.5 205q0 108 30.5 201.5t88 164.5t148 111.5t204.5 40.5q68 0 125 -16.5t89.5 -40t55.5 -47t31 -39.5l8 -17h4
q-2 11 -2 27v39q0 30 22 49.5t62 19.5h70q84 0 84 -86v-895q0 -104 -31.5 -188.5t-84 -140t-123.5 -93.5t-146.5 -54.5t-155.5 -16.5q-177 0 -305 55q-78 34 -45 111zM594 240q49 0 90 15.5t76.5 49t55.5 95t20 145.5q0 303 -254 303q-119 0 -184.5 -77.5t-65.5 -209.5
q0 -144 69.5 -232.5t192.5 -88.5zM567 1227q-84 0 -84 86v57q0 84 84 84h54q84 0 84 -84v-57q0 -86 -84 -86h-54z" />
    <glyph glyph-name="Gcommaaccent" unicode="&#x122;" horiz-adv-x="1544" 
d="M694 -166q0 53 76 53h41q98 0 98 -125q0 -85 -38.5 -148t-90.5 -63h-22q-76 0 -76 48q0 14 11.5 54.5t11.5 80.5q0 24 -5.5 53t-5.5 47zM82 721q0 214 97 387.5t269 272t386 98.5q158 0 283 -43t192 -90q64 -50 18 -119l-37 -58q-43 -65 -119 -22q-153 90 -323 90
q-116 0 -210.5 -40t-156 -109t-94.5 -160.5t-33 -194.5q0 -112 38 -209t103.5 -164t155 -105t189.5 -38q68 0 131 16.5t104.5 40t73 47t45.5 39.5l14 17v162h-139q-41 0 -63.5 22.5t-22.5 63.5v55q0 86 86 86h291q84 0 84 -86v-594q0 -86 -84 -86h-51q-40 0 -62 19t-22 51
v34l2 35h-4q-6 -7 -17.5 -18t-51.5 -39t-85.5 -50t-119 -39.5t-152.5 -17.5q-144 0 -274 55t-228 151t-155.5 237t-57.5 303z" />
    <glyph glyph-name="gcommaaccent" unicode="&#x123;" horiz-adv-x="1218" 
d="M696 1214q0 -29 -19 -41t-56 -12h-41q-99 0 -99 125q0 85 38.5 148t90.5 63h23q76 0 76 -47q0 -14 -11.5 -54.5t-11.5 -80.5q0 -23 5 -53t5 -48zM215 -217q17 38 42.5 49t66.5 -2q106 -39 211 -39q131 0 212.5 61.5t81.5 192.5v78l5 53h-5q-91 -156 -286 -156
q-111 0 -202 42t-149.5 115t-90 169t-31.5 205q0 108 30.5 201.5t88 164.5t148 111.5t204.5 40.5q68 0 125 -16.5t89.5 -40t55.5 -47t31 -39.5l8 -17h4q-2 11 -2 27v39q0 30 22 49.5t62 19.5h70q84 0 84 -86v-895q0 -104 -31.5 -188.5t-84 -140t-123.5 -93.5t-146.5 -54.5
t-155.5 -16.5q-177 0 -305 55q-78 34 -45 111zM594 240q49 0 90 15.5t76.5 49t55.5 95t20 145.5q0 303 -254 303q-119 0 -184.5 -77.5t-65.5 -209.5q0 -144 69.5 -232.5t192.5 -88.5z" />
    <glyph glyph-name="Hcircumflex" unicode="&#x124;" horiz-adv-x="1525" 
d="M549 1550q-44 0 -55 30.5t18 74.5l82 119q38 55 104 55h127q67 0 105 -55l82 -119q29 -44 18 -74.5t-55 -30.5h-53q-35 0 -52.5 13t-38.5 47l-67 106h-4l-70 -106q-19 -33 -37 -46.5t-51 -13.5h-53zM168 86v1282q0 86 84 86h94q84 0 84 -86v-530h666v530q0 86 86 86h92
q84 0 84 -86v-1282q0 -86 -84 -86h-92q-86 0 -86 86v524h-666v-524q0 -86 -84 -86h-94q-84 0 -84 86z" />
    <glyph glyph-name="hcircumflex" unicode="&#x125;" horiz-adv-x="1226" 
d="M49 1550q-44 0 -55 30.5t18 74.5l82 119q38 55 105 55h127q66 0 104 -55l82 -119q29 -44 18 -74.5t-55 -30.5h-53q-34 0 -51.5 13t-38.5 47l-68 106h-4l-70 -106q-19 -33 -37 -46.5t-51 -13.5h-53zM129 86v1282q0 41 22.5 63.5t63.5 22.5h88q86 0 86 -86v-422
q0 -23 -1.5 -45t-3.5 -33l-1 -10h4q43 84 140.5 147.5t222.5 63.5q364 0 364 -397v-586q0 -86 -86 -86h-88q-86 0 -86 86v532q0 104 -36 158.5t-128 54.5q-135 0 -218 -97.5t-83 -248.5v-399q0 -86 -86 -86h-88q-86 0 -86 86z" />
    <glyph glyph-name="Hbar" unicode="&#x126;" horiz-adv-x="1521" 
d="M172 86v969h-49q-84 0 -84 80v12q0 78 84 78h49v143q0 41 22.5 63.5t63.5 22.5h98q41 0 62.5 -19t21.5 -53v-157h643v143q0 86 84 86h99q41 0 63.5 -19t22.5 -53v-157h47q86 0 86 -78v-12q0 -80 -86 -80h-47v-969q0 -86 -86 -86h-99q-84 0 -84 86v524h-643v-524
q0 -86 -84 -86h-98q-86 0 -86 86zM440 838h643v217h-643v-217z" />
    <glyph glyph-name="hbar" unicode="&#x127;" horiz-adv-x="1226" 
d="M129 86v1059h-49q-86 0 -86 72v12q0 71 86 71h49v68q0 41 22.5 63.5t63.5 22.5h88q86 0 86 -57v-97h189q86 0 86 -71v-12q0 -72 -86 -72h-189v-195l-4 -88h4q43 84 139 145.5t222 61.5q364 0 364 -397v-586q0 -86 -86 -86h-88q-86 0 -86 86v532q0 104 -36 158.5
t-128 54.5q-137 0 -219 -99.5t-82 -242.5v-403q0 -86 -86 -86h-88q-86 0 -86 86z" />
    <glyph glyph-name="Itilde" unicode="&#x128;" horiz-adv-x="598" 
d="M168 86v1282q0 86 84 86h94q84 0 84 -86v-1282q0 -86 -84 -86h-94q-84 0 -84 86zM12 1552q-73 0 -73 78q0 85 58 144t148 59q52 0 96.5 -21t69.5 -45.5t56 -45.5t59 -21q65 0 72 80q1 22 21 34.5t52 12.5h21q76 0 76 -70q0 -94 -57.5 -152.5t-149.5 -58.5q-53 0 -97.5 21
t-69.5 45.5t-55.5 45.5t-58.5 21q-34 0 -54.5 -23t-23.5 -59q-6 -45 -69 -45h-21z" />
    <glyph glyph-name="itilde" unicode="&#x129;" horiz-adv-x="516" 
d="M129 86v872q0 86 84 86h90q84 0 84 -86v-872q0 -86 -84 -86h-90q-84 0 -84 86zM-31 1178q-73 0 -73 77q0 85 58 144t148 59q52 0 96.5 -21t69.5 -45.5t56 -45.5t59 -21q65 0 72 80q1 22 21 34.5t52 12.5h21q76 0 76 -70q0 -94 -57.5 -152.5t-149.5 -58.5q-53 0 -97.5 21
t-69.5 46t-55.5 46t-58.5 21q-34 0 -54.5 -23t-23.5 -59q-6 -45 -69 -45h-21z" />
    <glyph glyph-name="Imacron" unicode="&#x12a;" horiz-adv-x="598" 
d="M168 86v1282q0 86 84 86h94q84 0 84 -86v-1282q0 -86 -84 -86h-94q-84 0 -84 86zM119 1604q-84 0 -84 82v14q0 82 84 82h366q86 0 86 -82v-14q0 -82 -86 -82h-366z" />
    <glyph glyph-name="imacron" unicode="&#x12b;" horiz-adv-x="516" 
d="M129 86v872q0 86 84 86h90q84 0 84 -86v-872q0 -86 -84 -86h-90q-84 0 -84 86zM76 1229q-84 0 -84 82v14q0 82 84 82h366q86 0 86 -82v-14q0 -82 -86 -82h-366z" />
    <glyph glyph-name="Ibreve" unicode="&#x12c;" horiz-adv-x="598" 
d="M168 86v1282q0 86 84 86h94q84 0 84 -86v-1282q0 -86 -84 -86h-94q-84 0 -84 86zM301 1542q-115 0 -208 67.5t-93 168.5q0 51 72 51h39q61 0 73 -57q19 -89 117 -89q96 0 115 89q5 17 11 27.5t22 20t40 9.5h39q74 0 74 -51q0 -69 -45 -124t-113 -83.5t-143 -28.5z" />
    <glyph glyph-name="ibreve" unicode="&#x12d;" horiz-adv-x="516" 
d="M129 86v872q0 86 84 86h90q84 0 84 -86v-872q0 -86 -84 -86h-90q-84 0 -84 86zM260 1167q-115 0 -208 67.5t-93 168.5q0 51 72 51h39q61 0 73 -57q19 -88 117 -88q96 0 115 88q17 57 74 57h38q74 0 74 -51q0 -69 -45 -124t-113 -83.5t-143 -28.5z" />
    <glyph glyph-name="Iogonek" unicode="&#x12e;" horiz-adv-x="598" 
d="M168 86v1282q0 86 84 86h94q84 0 84 -86v-1282q0 -25 -14.5 -50t-35 -46t-41.5 -43t-35.5 -51t-14.5 -60q0 -29 19 -44.5t50 -27.5q42 -16 33 -79l-6 -43q-4 -31 -26.5 -46t-53.5 -12q-36 5 -71.5 18t-70.5 35.5t-57 59.5t-22 82q0 112 131 229q-47 14 -47 78z" />
    <glyph glyph-name="iogonek" unicode="&#x12f;" horiz-adv-x="516" 
d="M213 1223q-84 0 -84 84v61q0 86 84 86h90q41 0 63.5 -22.5t22.5 -63.5v-61q0 -84 -86 -84h-90zM129 86v872q0 86 86 86h88q41 0 63.5 -22.5t22.5 -63.5v-872q0 -25 -14.5 -50t-35.5 -46t-41.5 -43t-35 -51t-14.5 -60q0 -29 19 -44.5t50 -27.5q42 -17 33 -79l-6 -43
q-4 -31 -26.5 -46t-53.5 -12q-28 4 -57 12.5t-59 25t-53 37.5t-37.5 52.5t-14.5 67.5q0 112 131 229q-45 15 -45 78z" />
    <glyph glyph-name="Idotaccent" unicode="&#x130;" horiz-adv-x="598" 
d="M168 86v1282q0 86 84 86h94q84 0 84 -86v-1282q0 -86 -84 -86h-94q-84 0 -84 86zM274 1602q-84 0 -84 86v57q0 84 84 84h54q84 0 84 -84v-57q0 -86 -84 -86h-54z" />
    <glyph glyph-name="dotlessi" unicode="&#x131;" horiz-adv-x="516" 
d="M129 86v872q0 86 84 86h90q84 0 84 -86v-872q0 -86 -84 -86h-90q-84 0 -84 86z" />
    <glyph glyph-name="IJ" unicode="&#x132;" horiz-adv-x="1284" 
d="M600 78v76q0 38 18.5 57.5t57.5 32.5q188 41 188 272v852q0 86 86 86h97q86 0 86 -86v-868q0 -111 -30 -200.5t-77 -144.5t-108 -92.5t-118.5 -52t-113.5 -14.5q-86 0 -86 82zM168 86v1282q0 86 84 86h94q84 0 84 -86v-1282q0 -86 -84 -86h-94q-84 0 -84 86z" />
    <glyph glyph-name="ij" unicode="&#x133;" horiz-adv-x="1071" 
d="M213 1223q-84 0 -84 84v61q0 86 84 86h90q41 0 63.5 -22.5t22.5 -63.5v-61q0 -84 -86 -84h-90zM129 86v872q0 86 84 86h90q84 0 84 -86v-872q0 -86 -84 -86h-90q-84 0 -84 86zM768 1223q-86 0 -86 84v61q0 41 22.5 63.5t63.5 22.5h90q84 0 84 -86v-61q0 -84 -84 -84h-90z
M682 -10v968q0 41 22.5 63.5t63.5 22.5h88q86 0 86 -86v-985q0 -96 -32.5 -171t-78 -116t-104.5 -67.5t-103 -34.5t-81 -8h-31q-84 0 -84 86v53q0 45 22 61.5t62 22.5q34 4 58 11.5t52.5 26.5t44 57.5t15.5 95.5z" />
    <glyph glyph-name="Jcircumflex" unicode="&#x134;" horiz-adv-x="1097" 
d="M406 1550q-44 0 -55 30.5t18 74.5l82 119q38 55 104 55h127q66 0 104 -55l82 -119q29 -44 18 -74.5t-55 -30.5h-53q-34 0 -51.5 13t-38.5 47l-67 106h-5l-69 -106q-19 -33 -37 -46.5t-51 -13.5h-53zM39 430q0 84 84 84h96q41 0 59 -18.5t23 -63.5q7 -96 53.5 -155.5
t137.5 -59.5q82 0 135 53.5t53 163.5v793h-289q-86 0 -86 84v57q0 86 86 86h467q41 0 63.5 -22.5t22.5 -63.5v-938q0 -114 -39 -204t-104 -143t-144 -80.5t-165 -27.5q-87 0 -166 28t-144 82t-104 143.5t-39 201.5z" />
    <glyph glyph-name="jcircumflex" unicode="&#x135;" horiz-adv-x="518" 
d="M45 1174q-46 0 -56 30t19 74l82 121q38 55 103 55h129q64 0 102 -55l84 -121q29 -44 18 -74t-55 -30h-55q-33 0 -50.5 12.5t-37.5 46.5l-68 108h-4l-70 -108q-18 -33 -36 -46t-52 -13h-53zM129 -10v968q0 41 22.5 63.5t63.5 22.5h88q86 0 86 -86v-985q0 -96 -32.5 -171
t-78 -116t-104.5 -67.5t-103 -34.5t-81 -8h-31q-84 0 -84 86v53q0 40 20.5 59.5t63.5 24.5q33 3 59 11t53 27.5t42.5 58.5t15.5 94z" />
    <glyph glyph-name="Kcommaaccent" unicode="&#x136;" horiz-adv-x="1286" 
d="M559 -166q0 53 76 53h41q98 0 98 -125q0 -85 -38.5 -148t-90.5 -63h-22q-76 0 -76 48q0 14 11 54.5t11 80.5q0 24 -5 53t-5 47zM168 86v1282q0 86 84 86h94q84 0 84 -86v-506h191l307 533q33 59 100 59h100q51 0 68 -29.5t-8 -72.5l-352 -590v-4l378 -656q26 -44 9 -73
t-68 -29h-113q-67 0 -100 59l-321 576h-191v-549q0 -86 -84 -86h-94q-84 0 -84 86z" />
    <glyph glyph-name="kcommaaccent" unicode="&#x137;" horiz-adv-x="1093" 
d="M471 -166q0 53 76 53h41q98 0 98 -125q0 -85 -38.5 -148t-90.5 -63h-22q-76 0 -76 48q0 14 11 54.5t11 80.5q0 24 -5 53t-5 47zM129 86v1282q0 41 22.5 63.5t63.5 22.5h88q86 0 86 -86v-692h129l217 311q35 57 103 57h98q52 0 67.5 -30.5t-14.5 -71.5l-260 -364v-5
l307 -471q27 -44 11 -73t-68 -29h-111q-67 0 -100 59l-244 398h-135v-371q0 -86 -86 -86h-88q-86 0 -86 86z" />
    <glyph glyph-name="kgreenlandic" unicode="&#x138;" horiz-adv-x="1087" 
d="M129 86v872q0 86 84 86h90q84 0 84 -86v-307h127l229 336q37 57 105 57h98q52 0 68 -30.5t-13 -71.5l-274 -387v-4l291 -449q28 -44 12.5 -73t-67.5 -29h-117q-65 0 -101 59l-223 373h-135v-346q0 -86 -84 -86h-90q-84 0 -84 86z" />
    <glyph glyph-name="Lacute" unicode="&#x139;" horiz-adv-x="1067" 
d="M291 1550q-44 0 -59 28.5t8 68.5l71 122q35 60 101 60h73q55 0 67.5 -31t-22.5 -72l-92 -124q-43 -52 -104 -52h-43zM168 86v1282q0 86 84 86h94q84 0 84 -86v-1141h543q86 0 86 -84v-57q0 -86 -86 -86h-721q-84 0 -84 86z" />
    <glyph glyph-name="lacute" unicode="&#x13a;" horiz-adv-x="571" 
d="M250 1550q-44 0 -59 28.5t8 68.5l71 122q35 60 101 60h73q55 0 67.5 -31t-22.5 -72l-92 -124q-43 -52 -104 -52h-43zM127 326v1042q0 86 84 86h90q84 0 84 -86v-1022q0 -69 22.5 -95t59.5 -30q63 -7 63 -74v-69q0 -88 -86 -88q-48 0 -87 6t-84 26.5t-75 55.5t-50.5 98.5
t-20.5 149.5z" />
    <glyph glyph-name="Lcommaaccent" unicode="&#x13b;" horiz-adv-x="1067" 
d="M522 -166q0 53 76 53h41q98 0 98 -125q0 -85 -38.5 -148t-90.5 -63h-22q-76 0 -76 48q0 14 11 54.5t11 80.5q0 24 -5 53t-5 47zM168 86v1282q0 86 84 86h94q84 0 84 -86v-1141h543q86 0 86 -84v-57q0 -86 -86 -86h-721q-84 0 -84 86z" />
    <glyph glyph-name="lcommaaccent" unicode="&#x13c;" horiz-adv-x="571" 
d="M231 -166q0 53 76 53h41q98 0 98 -125q0 -85 -38.5 -148t-90.5 -63h-22q-76 0 -76 48q0 14 11.5 54.5t11.5 80.5q0 24 -5.5 53t-5.5 47zM127 326v1042q0 86 84 86h90q84 0 84 -86v-1022q0 -69 22.5 -95t59.5 -30q63 -7 63 -74v-69q0 -88 -86 -88q-48 0 -87 6t-84 26.5
t-75 55.5t-50.5 98.5t-20.5 149.5z" />
    <glyph glyph-name="Lcaron" unicode="&#x13d;" horiz-adv-x="1069" 
d="M602 1399q0 53 76 53h41q98 0 98 -125q0 -85 -38.5 -148t-90.5 -63h-22q-76 0 -76 47q0 14 11 54.5t11 80.5q0 24 -5 54t-5 47zM168 86v1282q0 86 84 86h94q84 0 84 -86v-1141h543q86 0 86 -84v-57q0 -86 -86 -86h-721q-84 0 -84 86z" />
    <glyph glyph-name="lcaron" unicode="&#x13e;" horiz-adv-x="571" 
d="M506 1399q0 53 76 53h41q98 0 98 -125q0 -85 -38.5 -148t-90.5 -63h-23q-75 0 -75 47q0 14 11 54.5t11 80.5q0 24 -5 54t-5 47zM127 326v1042q0 86 84 86h90q84 0 84 -86v-1022q0 -69 22.5 -95t59.5 -30q63 -7 63 -74v-69q0 -88 -86 -88q-48 0 -87 6t-84 26.5t-75 55.5
t-50.5 98.5t-20.5 149.5z" />
    <glyph glyph-name="Ldot" unicode="&#x13f;" horiz-adv-x="1071" 
d="M168 86v1282q0 86 84 86h94q84 0 84 -86v-1141h543q86 0 86 -84v-57q0 -86 -86 -86h-721q-84 0 -84 86zM733 657q-84 0 -84 84v95q0 84 84 84h84q86 0 86 -84v-95q0 -84 -86 -84h-84z" />
    <glyph glyph-name="ldot" unicode="&#x140;" horiz-adv-x="772" 
d="M127 326v1042q0 86 84 86h90q84 0 84 -86v-1022q0 -69 22.5 -95t59.5 -30q63 -7 63 -74v-69q0 -88 -86 -88q-48 0 -87 6t-84 26.5t-75 55.5t-50.5 98.5t-20.5 149.5zM598 657q-84 0 -84 84v95q0 84 84 84h84q86 0 86 -84v-95q0 -84 -86 -84h-84z" />
    <glyph glyph-name="Lslash" unicode="&#x141;" horiz-adv-x="1071" 
d="M170 86v453l-41 -23q-31 -14 -53.5 5.5t-22.5 68.5v67q0 71 43 95l74 41v575q0 86 86 86h92q84 0 84 -86v-424l117 66q43 26 71.5 9t28.5 -69v-67q0 -69 -57 -103l-160 -90v-463h545q84 0 84 -84v-57q0 -86 -84 -86h-721q-86 0 -86 86z" />
    <glyph glyph-name="lslash" unicode="&#x142;" horiz-adv-x="593" 
d="M145 326v247l-53 -28q-33 -19 -55.5 1t-22.5 70v68q0 72 43 94l88 49v541q0 86 86 86h88q41 0 64 -22.5t23 -63.5v-391l55 33q44 26 73 9.5t29 -67.5v-69q0 -66 -53 -101l-104 -59v-379q0 -68 21.5 -93.5t57.5 -29.5q64 -7 64 -74v-69q0 -88 -86 -88q-48 0 -87 6
t-84 26.5t-75.5 55.5t-51 98.5t-20.5 149.5z" />
    <glyph glyph-name="Nacute" unicode="&#x143;" horiz-adv-x="1521" 
d="M750 1550q-44 0 -59.5 28.5t7.5 68.5l72 122q35 60 100 60h74q55 0 67.5 -31t-22.5 -72l-92 -124q-43 -52 -104 -52h-43zM168 86v1282q0 86 84 86h110q71 0 103 -57l516 -783q24 -38 54.5 -94.5t48.5 -93.5l18 -37h4q-14 139 -14 225v754q0 41 22.5 63.5t63.5 22.5h92
q41 0 63.5 -22.5t22.5 -63.5v-1282q0 -86 -86 -86h-111q-68 0 -100 57l-518 781q-24 38 -54 94.5t-49 93.5l-18 37h-4q14 -139 14 -225v-752q0 -86 -84 -86h-94q-84 0 -84 86z" />
    <glyph glyph-name="nacute" unicode="&#x144;" horiz-adv-x="1226" 
d="M623 1176q-44 0 -59.5 28t7.5 68l72 123q34 59 100 59h74q55 0 67.5 -30.5t-22.5 -71.5l-92 -125q-42 -51 -104 -51h-43zM129 86v872q0 86 84 86h80q84 0 84 -86v-63l-4 -47h4q15 29 35.5 57t54 58.5t72.5 53t93.5 37.5t115.5 15q364 0 364 -397v-586q0 -86 -86 -86h-88
q-86 0 -86 86v532q0 104 -36 158.5t-128 54.5q-135 0 -218 -98.5t-83 -243.5v-403q0 -86 -84 -86h-90q-84 0 -84 86z" />
    <glyph glyph-name="Ncommaaccent" unicode="&#x145;" horiz-adv-x="1521" 
d="M657 -166q0 53 76 53h41q98 0 98 -125q0 -85 -38.5 -148t-90.5 -63h-22q-76 0 -76 48q0 14 11.5 54.5t11.5 80.5q0 24 -5.5 53t-5.5 47zM168 86v1282q0 86 84 86h110q71 0 103 -57l516 -783q24 -38 54.5 -94.5t48.5 -93.5l18 -37h4q-14 139 -14 225v754q0 41 22.5 63.5
t63.5 22.5h92q41 0 63.5 -22.5t22.5 -63.5v-1282q0 -86 -86 -86h-111q-68 0 -100 57l-518 781q-24 38 -54 94.5t-49 93.5l-18 37h-4q14 -139 14 -225v-752q0 -86 -84 -86h-94q-84 0 -84 86z" />
    <glyph glyph-name="ncommaaccent" unicode="&#x146;" horiz-adv-x="1226" 
d="M512 -166q0 53 76 53h41q98 0 98 -125q0 -85 -38.5 -148t-90.5 -63h-23q-75 0 -75 48q0 14 11 54.5t11 80.5q0 24 -5 53t-5 47zM129 86v872q0 86 84 86h80q84 0 84 -86v-63l-4 -47h4q15 29 35.5 57t54 58.5t72.5 53t93.5 37.5t115.5 15q364 0 364 -397v-586
q0 -86 -86 -86h-88q-86 0 -86 86v532q0 104 -36 158.5t-128 54.5q-135 0 -218 -98.5t-83 -243.5v-403q0 -86 -84 -86h-90q-84 0 -84 86z" />
    <glyph glyph-name="Ncaron" unicode="&#x147;" horiz-adv-x="1521" 
d="M696 1550q-65 0 -104 56l-82 120q-29 43 -18 73t55 30h53q34 0 52 -12.5t36 -44.5l70 -109h4l67 109q20 33 38 45t53 12h53q44 0 55 -30t-18 -73l-82 -120q-39 -56 -105 -56h-127zM168 86v1282q0 86 84 86h110q71 0 103 -57l516 -783q24 -38 54.5 -94.5t48.5 -93.5
l18 -37h4q-14 139 -14 225v754q0 41 22.5 63.5t63.5 22.5h92q41 0 63.5 -22.5t22.5 -63.5v-1282q0 -86 -86 -86h-111q-68 0 -100 57l-518 781q-24 38 -54 94.5t-49 93.5l-18 37h-4q14 -139 14 -225v-752q0 -86 -84 -86h-94q-84 0 -84 86z" />
    <glyph glyph-name="ncaron" unicode="&#x148;" horiz-adv-x="1226" 
d="M569 1176q-66 0 -104 55l-82 121q-29 43 -18 72.5t55 29.5h53q34 0 52 -12.5t36 -44.5l70 -109h4l67 109q20 33 38 45t53 12h53q44 0 55 -29.5t-18 -72.5l-82 -121q-38 -55 -105 -55h-127zM129 86v872q0 86 84 86h80q84 0 84 -86v-63l-4 -47h4q15 29 35.5 57t54 58.5
t72.5 53t93.5 37.5t115.5 15q364 0 364 -397v-586q0 -86 -86 -86h-88q-86 0 -86 86v532q0 104 -36 158.5t-128 54.5q-135 0 -218 -98.5t-83 -243.5v-403q0 -86 -84 -86h-90q-84 0 -84 86z" />
    <glyph glyph-name="napostrophe" unicode="&#x149;" horiz-adv-x="1226" 
d="M-27 1399q0 53 76 53h41q98 0 98 -125q0 -85 -38.5 -148t-90.5 -63h-22q-76 0 -76 47q0 14 11.5 54.5t11.5 80.5q0 24 -5.5 54t-5.5 47zM129 86v872q0 86 84 86h80q84 0 84 -86v-63l-4 -47h4q15 29 35.5 57t54 58.5t72.5 53t93.5 37.5t115.5 15q364 0 364 -397v-586
q0 -86 -86 -86h-88q-86 0 -86 86v532q0 104 -36 158.5t-128 54.5q-135 0 -218 -98.5t-83 -243.5v-403q0 -86 -84 -86h-90q-84 0 -84 86z" />
    <glyph glyph-name="Eng" unicode="&#x14a;" horiz-adv-x="1523" 
d="M168 86v1282q0 86 84 86h110q71 0 103 -57l516 -783q24 -38 54.5 -94.5t48.5 -93.5l18 -37h4q-14 139 -14 225v754q0 41 22.5 63.5t63.5 22.5h92q41 0 63.5 -22.5t22.5 -63.5v-1382q0 -92 -29 -165t-73.5 -117t-104 -73.5t-112.5 -41t-107 -13.5q-92 0 -92 86v55
q0 77 86 86q78 7 127 54.5t49 144.5l-559 836q-24 38 -54.5 94.5t-48.5 93.5l-18 37h-4q14 -139 14 -225v-752q0 -86 -84 -86h-94q-84 0 -84 86z" />
    <glyph glyph-name="eng" unicode="&#x14b;" horiz-adv-x="1232" 
d="M129 86v872q0 86 84 86h80q84 0 84 -86v-63l-4 -47h4q15 29 35.5 57t54 58.5t72.5 53t93.5 37.5t115.5 15q364 0 364 -397v-699q0 -96 -32.5 -171t-78 -116t-104.5 -67.5t-103 -34.5t-81 -8h-31q-84 0 -84 86v53q0 40 20.5 59.5t63.5 24.5q33 3 59 11t53 27.5t42.5 58.5
t15.5 94v628q0 104 -36 158.5t-128 54.5q-135 0 -218 -98.5t-83 -243.5v-403q0 -86 -84 -86h-90q-84 0 -84 86z" />
    <glyph glyph-name="Omacron" unicode="&#x14c;" horiz-adv-x="1667" 
d="M649 1604q-84 0 -84 82v14q0 82 84 82h367q86 0 86 -82v-14q0 -82 -86 -82h-367zM82 737q0 206 95.5 375.5t268 268t388.5 98.5t388.5 -98.5t267.5 -268t95 -375.5q0 -212 -95 -386t-267.5 -275t-388.5 -101t-388.5 101t-268 275t-95.5 386zM354 737q0 -223 136 -371.5
t344 -148.5t343.5 148.5t135.5 371.5q0 214 -135.5 357t-343.5 143t-344 -143t-136 -357z" />
    <glyph glyph-name="omacron" unicode="&#x14d;" horiz-adv-x="1273" 
d="M453 1229q-84 0 -84 82v14q0 82 84 82h366q86 0 86 -82v-14q0 -82 -86 -82h-366zM63 522q0 156 77 282t208.5 195.5t288.5 69.5t288.5 -69.5t209 -195.5t77.5 -282q0 -157 -77.5 -283t-208.5 -195t-289 -69t-288.5 69t-208 195t-77.5 283zM328 522q0 -143 89.5 -234
t219.5 -91t220.5 91t90.5 234q0 142 -90.5 234t-220.5 92t-219.5 -92t-89.5 -234z" />
    <glyph glyph-name="Obreve" unicode="&#x14e;" horiz-adv-x="1667" 
d="M82 737q0 206 95.5 375.5t268 268t388.5 98.5t388.5 -98.5t267.5 -268t95 -375.5q0 -212 -95 -386t-267.5 -275t-388.5 -101t-388.5 101t-268 275t-95.5 386zM354 737q0 -223 136 -371.5t344 -148.5t343.5 148.5t135.5 371.5q0 214 -135.5 357t-343.5 143t-344 -143
t-136 -357zM834 1542q-115 0 -208.5 67.5t-93.5 168.5q0 51 72 51h39q62 0 74 -57q19 -89 117 -89q95 0 114 89q17 57 74 57h39q74 0 74 -51q0 -69 -45 -124t-113 -83.5t-143 -28.5z" />
    <glyph glyph-name="obreve" unicode="&#x14f;" horiz-adv-x="1273" 
d="M63 522q0 156 77 282t208.5 195.5t288.5 69.5t288.5 -69.5t209 -195.5t77.5 -282q0 -157 -77.5 -283t-208.5 -195t-289 -69t-288.5 69t-208 195t-77.5 283zM328 522q0 -143 89.5 -234t219.5 -91t220.5 91t90.5 234q0 142 -90.5 234t-220.5 92t-219.5 -92t-89.5 -234z
M637 1167q-115 0 -208 67.5t-93 168.5q0 51 72 51h38q62 0 74 -57q19 -88 117 -88q96 0 115 88q5 17 11 27.5t22 20t40 9.5h39q74 0 74 -51q0 -69 -45 -124t-113 -83.5t-143 -28.5z" />
    <glyph glyph-name="Ohungarumlaut" unicode="&#x150;" horiz-adv-x="1667" 
d="M989 1550q-50 0 -63.5 29.5t10.5 73.5l68 116q35 60 100 60h63q54 0 66 -31t-21 -72l-92 -124q-43 -52 -104 -52h-27zM631 1550q-50 0 -65.5 29t7.5 72l64 116q29 62 100 62h43q49 0 64 -28t-10 -72l-64 -117q-36 -62 -100 -62h-39zM82 737q0 206 95.5 375.5t268 268
t388.5 98.5t388.5 -98.5t267.5 -268t95 -375.5q0 -212 -95 -386t-267.5 -275t-388.5 -101t-388.5 101t-268 275t-95.5 386zM354 737q0 -223 136 -371.5t344 -148.5t343.5 148.5t135.5 371.5q0 214 -135.5 357t-343.5 143t-344 -143t-136 -357z" />
    <glyph glyph-name="ohungarumlaut" unicode="&#x151;" horiz-adv-x="1273" 
d="M793 1176q-50 0 -64 29t10 73l68 117q34 59 100 59h64q54 0 66 -30.5t-21 -71.5l-92 -125q-42 -51 -105 -51h-26zM434 1176q-50 0 -65 28.5t8 71.5l63 117q28 61 101 61h43q49 0 63.5 -28t-10.5 -72l-64 -117q-35 -61 -100 -61h-39zM63 522q0 156 77 282t208.5 195.5
t288.5 69.5t288.5 -69.5t209 -195.5t77.5 -282q0 -157 -77.5 -283t-208.5 -195t-289 -69t-288.5 69t-208 195t-77.5 283zM328 522q0 -143 89.5 -234t219.5 -91t220.5 91t90.5 234q0 142 -90.5 234t-220.5 92t-219.5 -92t-89.5 -234z" />
    <glyph glyph-name="OE" unicode="&#x152;" horiz-adv-x="1961" 
d="M78 729q0 154 59.5 291.5t161 236t243 156t300.5 57.5q62 0 142 -8t116 -8h672q86 0 86 -86v-57q0 -84 -86 -84h-523v-381h406q86 0 86 -84v-57q0 -87 -86 -87h-406v-391h557q84 0 84 -84v-57q0 -86 -84 -86h-706q-34 0 -115 -9t-143 -9q-159 0 -300.5 58.5t-243 158
t-161 238t-59.5 292.5zM350 729q0 -144 63 -263t176 -188t253 -69q37 0 73.5 4t54.5 8l17 4v1004q-61 16 -145 16q-140 0 -253 -69t-176 -187t-63 -260z" />
    <glyph glyph-name="oe" unicode="&#x153;" horiz-adv-x="2000" 
d="M63 520q0 160 76.5 286.5t205.5 194.5t284 68q279 0 432 -215h4q135 215 412 215q217 0 339.5 -138.5t122.5 -359.5q0 -35 -25.5 -61.5t-64.5 -26.5h-635q14 -136 102.5 -211t209.5 -75q117 0 227 67q76 39 115 -28l22 -41q40 -76 -28 -115q-161 -105 -355 -105
q-291 0 -436 222h-4q-156 -222 -438 -222q-116 0 -219.5 39t-180 109t-121.5 173t-45 224zM1221 641h456q-3 102 -59.5 164.5t-142.5 62.5q-100 0 -167.5 -62t-86.5 -165zM326 520q0 -145 90 -234t221 -89q130 0 219.5 89t89.5 236q0 145 -90 235.5t-219 90.5
q-131 0 -221 -91t-90 -237z" />
    <glyph glyph-name="Racute" unicode="&#x154;" horiz-adv-x="1282" 
d="M614 1550q-44 0 -59 28.5t8 68.5l72 122q35 60 100 60h74q55 0 67.5 -31t-22.5 -72l-92 -124q-43 -52 -105 -52h-43zM168 86v1282q0 86 84 86h393q189 0 277 -39q113 -47 178 -149.5t65 -247.5q0 -132 -64.5 -242t-176.5 -155v-5q18 -22 47 -75l239 -439q26 -44 9 -73
t-68 -29h-111q-67 0 -100 59l-256 484h-254v-457q0 -86 -84 -86h-94q-84 0 -84 86zM430 772h238q106 0 167.5 62.5t61.5 169.5q0 151 -115 198q-55 25 -157 25h-195v-455z" />
    <glyph glyph-name="racute" unicode="&#x155;" horiz-adv-x="768" 
d="M457 1174q-44 0 -59 28t8 68l71 123q34 59 101 59h73q55 0 67.5 -30.5t-22.5 -71.5l-92 -125q-42 -51 -104 -51h-43zM129 86v872q0 86 84 86h80q41 0 63.5 -22.5t22.5 -63.5v-98l-6 -72h4q34 104 117 184.5t186 80.5q42 0 60 -21t18 -65v-80q0 -41 -23.5 -63.5
t-64.5 -22.5q-91 0 -157 -56t-96 -140t-30 -183v-336q0 -86 -84 -86h-90q-84 0 -84 86z" />
    <glyph glyph-name="Rcommaaccent" unicode="&#x156;" horiz-adv-x="1282" 
d="M565 -166q0 53 76 53h41q98 0 98 -125q0 -85 -38.5 -148t-90.5 -63h-22q-76 0 -76 48q0 14 11 54.5t11 80.5q0 24 -5 53t-5 47zM168 86v1282q0 86 84 86h393q189 0 277 -39q113 -47 178 -149.5t65 -247.5q0 -132 -64.5 -242t-176.5 -155v-5q18 -22 47 -75l239 -439
q26 -44 9 -73t-68 -29h-111q-67 0 -100 59l-256 484h-254v-457q0 -86 -84 -86h-94q-84 0 -84 86zM430 772h238q106 0 167.5 62.5t61.5 169.5q0 151 -115 198q-55 25 -157 25h-195v-455z" />
    <glyph glyph-name="rcommaaccent" unicode="&#x157;" horiz-adv-x="768" 
d="M160 -166q0 53 76 53h40q99 0 99 -125q0 -85 -38.5 -148t-90.5 -63h-23q-76 0 -76 48q0 14 11.5 54.5t11.5 80.5q0 24 -5 53t-5 47zM129 86v872q0 86 84 86h80q41 0 63.5 -22.5t22.5 -63.5v-98l-6 -72h4q34 104 117 184.5t186 80.5q42 0 60 -21t18 -65v-80
q0 -41 -23.5 -63.5t-64.5 -22.5q-91 0 -157 -56t-96 -140t-30 -183v-336q0 -86 -84 -86h-90q-84 0 -84 86z" />
    <glyph glyph-name="Rcaron" unicode="&#x158;" horiz-adv-x="1282" 
d="M561 1550q-65 0 -104 56l-82 120q-29 43 -18 73t55 30h53q34 0 52 -12.5t36 -44.5l70 -109h4l67 109q20 33 37.5 45t52.5 12h54q44 0 54.5 -30t-18.5 -73l-81 -120q-39 -56 -105 -56h-127zM168 86v1282q0 86 84 86h393q189 0 277 -39q113 -47 178 -149.5t65 -247.5
q0 -132 -64.5 -242t-176.5 -155v-5q18 -22 47 -75l239 -439q26 -44 9 -73t-68 -29h-111q-67 0 -100 59l-256 484h-254v-457q0 -86 -84 -86h-94q-84 0 -84 86zM430 772h238q106 0 167.5 62.5t61.5 169.5q0 151 -115 198q-55 25 -157 25h-195v-455z" />
    <glyph glyph-name="rcaron" unicode="&#x159;" horiz-adv-x="768" 
d="M406 1174q-67 0 -105 55l-82 121q-29 43 -18 72.5t55 29.5h53q34 0 52 -12.5t36 -44.5l70 -109h4l68 109q20 33 37.5 45t52.5 12h53q44 0 55 -29.5t-18 -72.5l-82 -121q-38 -55 -105 -55h-126zM129 86v872q0 86 84 86h80q41 0 63.5 -22.5t22.5 -63.5v-98l-6 -72h4
q34 104 117 184.5t186 80.5q42 0 60 -21t18 -65v-80q0 -41 -23.5 -63.5t-64.5 -22.5q-91 0 -157 -56t-96 -140t-30 -183v-336q0 -86 -84 -86h-90q-84 0 -84 86z" />
    <glyph glyph-name="Sacute" unicode="&#x15a;" horiz-adv-x="1124" 
d="M553 1550q-44 0 -59 28.5t8 68.5l71 122q35 60 101 60h74q55 0 67.5 -31t-22.5 -72l-93 -124q-43 -52 -104 -52h-43zM117 123q-19 16 -28 31.5t-6.5 38.5t21.5 49l46 65q24 33 52 37t66 -18q152 -107 295 -107q100 0 158.5 46t58.5 120q0 44 -23 80.5t-62.5 63.5
t-90.5 52t-107 49t-112 51t-107 62.5t-90.5 78t-62.5 103t-23 132.5q0 125 65 222t176 148.5t249 51.5q116 0 217 -34.5t158 -76.5q65 -47 26 -117l-37 -67q-37 -71 -116 -29q-39 23 -68 37.5t-80.5 28.5t-103.5 14q-101 0 -161 -45t-60 -119q0 -55 37.5 -97.5t97 -72.5
t131.5 -59.5t144.5 -66t132 -82.5t97 -119.5t37.5 -167.5q0 -89 -32.5 -167t-93 -137t-152.5 -93t-203 -34q-138 0 -256 46.5t-190 101.5z" />
    <glyph glyph-name="sacute" unicode="&#x15b;" horiz-adv-x="915" 
d="M440 1176q-44 0 -59 28t8 68l72 123q34 59 100 59h74q55 0 67.5 -30.5t-22.5 -71.5l-92 -125q-42 -51 -105 -51h-43zM104 82q-35 20 -39.5 52t19.5 65l25 37q23 32 50.5 36.5t65.5 -16.5t61 -32.5t73.5 -25.5t99.5 -14q67 0 106 28.5t39 78.5q0 34 -28.5 60t-74.5 44.5
t-101 37t-110 44.5t-101 60t-74.5 90t-28.5 129q0 148 113.5 230.5t285.5 82.5q156 0 291 -76q69 -37 31 -114l-21 -37q-35 -69 -114 -33q-115 51 -199 51q-68 0 -104.5 -26.5t-36.5 -75.5q0 -34 28.5 -60.5t74.5 -44.5t101 -36t110 -43.5t101 -59t74.5 -89.5t28.5 -128
q0 -140 -109 -231t-288 -91q-192 0 -349 107z" />
    <glyph glyph-name="Scircumflex" unicode="&#x15c;" horiz-adv-x="1124" 
d="M350 1550q-44 0 -55 30.5t18 74.5l82 119q38 55 105 55h127q66 0 104 -55l82 -119q29 -44 18 -74.5t-55 -30.5h-53q-34 0 -51.5 13t-38.5 47l-68 106h-4l-69 -106q-18 -33 -36.5 -46.5t-52.5 -13.5h-53zM117 123q-19 16 -28 31.5t-6.5 38.5t21.5 49l46 65q24 33 52 37
t66 -18q152 -107 295 -107q100 0 158.5 46t58.5 120q0 44 -23 80.5t-62.5 63.5t-90.5 52t-107 49t-112 51t-107 62.5t-90.5 78t-62.5 103t-23 132.5q0 125 65 222t176 148.5t249 51.5q116 0 217 -34.5t158 -76.5q65 -47 26 -117l-37 -67q-37 -71 -116 -29q-39 23 -68 37.5
t-80.5 28.5t-103.5 14q-101 0 -161 -45t-60 -119q0 -55 37.5 -97.5t97 -72.5t131.5 -59.5t144.5 -66t132 -82.5t97 -119.5t37.5 -167.5q0 -89 -32.5 -167t-93 -137t-152.5 -93t-203 -34q-138 0 -256 46.5t-190 101.5z" />
    <glyph glyph-name="scircumflex" unicode="&#x15d;" horiz-adv-x="915" 
d="M242 1176q-44 0 -55 30t18 74l82 119q38 55 104 55h127q67 0 105 -55l82 -119q29 -44 18 -74t-55 -30h-54q-35 0 -52.5 12.5t-37.5 46.5l-67 106h-4l-70 -106q-18 -33 -36 -46t-52 -13h-53zM104 82q-35 20 -39.5 52t19.5 65l25 37q23 32 50.5 36.5t65.5 -16.5t61 -32.5
t73.5 -25.5t99.5 -14q67 0 106 28.5t39 78.5q0 34 -28.5 60t-74.5 44.5t-101 37t-110 44.5t-101 60t-74.5 90t-28.5 129q0 148 113.5 230.5t285.5 82.5q156 0 291 -76q69 -37 31 -114l-21 -37q-35 -69 -114 -33q-115 51 -199 51q-68 0 -104.5 -26.5t-36.5 -75.5
q0 -34 28.5 -60.5t74.5 -44.5t101 -36t110 -43.5t101 -59t74.5 -89.5t28.5 -128q0 -140 -109 -231t-288 -91q-192 0 -349 107z" />
    <glyph glyph-name="Scedilla" unicode="&#x15e;" horiz-adv-x="1126" 
d="M471 -109l23 89q-117 11 -217 53.5t-160 89.5q-19 16 -28 31.5t-6.5 38.5t21.5 49l46 65q24 33 52 37t66 -18q152 -107 295 -107q100 0 158.5 46t58.5 120q0 44 -23 80.5t-62.5 63.5t-90.5 52t-107 49t-112 51t-107 62.5t-90.5 78t-62.5 103t-23 132.5q0 125 65 222
t176 148.5t249 51.5q116 0 217 -34.5t158 -76.5q65 -47 26 -117l-37 -67q-37 -71 -116 -29q-39 23 -68 37.5t-80.5 28.5t-103.5 14q-101 0 -161 -45t-60 -119q0 -55 37.5 -97.5t97 -72.5t131.5 -59.5t144.5 -66t132 -82.5t97 -119.5t37.5 -167.5q0 -169 -111.5 -288.5
t-305.5 -137.5l-15 -70q67 -8 108.5 -47.5t41.5 -108.5q0 -94 -63.5 -137t-157.5 -43q-117 0 -117 70q0 33 12.5 52t30.5 19q9 0 25.5 -3t25.5 -3q34 0 55 15t21 45q0 49 -92 59q-46 3 -31 63z" />
    <glyph glyph-name="scedilla" unicode="&#x15f;" horiz-adv-x="919" 
d="M350 -109l25 91q-152 17 -271 100q-35 20 -39.5 52t19.5 65l25 37q23 32 50.5 36.5t65.5 -16.5t61 -32.5t73.5 -25.5t99.5 -14q67 0 106 28.5t39 78.5q0 34 -28.5 60t-74.5 44.5t-101 37t-110 44.5t-101 60t-74.5 90t-28.5 129q0 148 113.5 230.5t285.5 82.5
q156 0 291 -76q69 -37 31 -114l-21 -37q-35 -69 -114 -33q-115 51 -199 51q-68 0 -104.5 -26.5t-36.5 -75.5q0 -34 28.5 -60.5t74.5 -44.5t101 -36t110 -43.5t101 -59t74.5 -89.5t28.5 -128q0 -130 -93.5 -218.5t-250.5 -101.5l-14 -67q67 -8 108 -47.5t41 -108.5
q0 -94 -63.5 -137t-157.5 -43q-117 0 -117 70q0 33 12.5 52t30.5 19q9 0 25.5 -3t25.5 -3q34 0 55 15t21 45q0 49 -92 59q-46 3 -31 63z" />
    <glyph glyph-name="Scaron" unicode="&#x160;" horiz-adv-x="1124" 
d="M500 1550q-66 0 -105 56l-82 120q-29 43 -18 73t55 30h53q34 0 52.5 -12.5t36.5 -44.5l69 -109h4l68 109q20 33 37.5 45t52.5 12h53q44 0 55 -30t-18 -73l-82 -120q-39 -56 -104 -56h-127zM117 123q-19 16 -28 31.5t-6.5 38.5t21.5 49l46 65q24 33 52 37t66 -18
q152 -107 295 -107q100 0 158.5 46t58.5 120q0 44 -23 80.5t-62.5 63.5t-90.5 52t-107 49t-112 51t-107 62.5t-90.5 78t-62.5 103t-23 132.5q0 125 65 222t176 148.5t249 51.5q116 0 217 -34.5t158 -76.5q65 -47 26 -117l-37 -67q-37 -71 -116 -29q-39 23 -68 37.5
t-80.5 28.5t-103.5 14q-101 0 -161 -45t-60 -119q0 -55 37.5 -97.5t97 -72.5t131.5 -59.5t144.5 -66t132 -82.5t97 -119.5t37.5 -167.5q0 -89 -32.5 -167t-93 -137t-152.5 -93t-203 -34q-138 0 -256 46.5t-190 101.5z" />
    <glyph glyph-name="scaron" unicode="&#x161;" horiz-adv-x="915" 
d="M391 1176q-66 0 -104 55l-82 121q-29 43 -18 72.5t55 29.5h53q34 0 52 -12.5t36 -44.5l70 -109h4l67 109q20 33 37.5 45t52.5 12h54q44 0 55 -29.5t-18 -72.5l-82 -121q-38 -55 -105 -55h-127zM104 82q-35 20 -39.5 52t19.5 65l25 37q23 32 50.5 36.5t65.5 -16.5
t61 -32.5t73.5 -25.5t99.5 -14q67 0 106 28.5t39 78.5q0 34 -28.5 60t-74.5 44.5t-101 37t-110 44.5t-101 60t-74.5 90t-28.5 129q0 148 113.5 230.5t285.5 82.5q156 0 291 -76q69 -37 31 -114l-21 -37q-35 -69 -114 -33q-115 51 -199 51q-68 0 -104.5 -26.5t-36.5 -75.5
q0 -34 28.5 -60.5t74.5 -44.5t101 -36t110 -43.5t101 -59t74.5 -89.5t28.5 -128q0 -140 -109 -231t-288 -91q-192 0 -349 107z" />
    <glyph glyph-name="Tcommaaccent" unicode="&#x162;" horiz-adv-x="1239" 
d="M518 -109l31 111q-60 12 -60 84v1141h-391q-86 0 -86 84v57q0 86 86 86h1045q84 0 84 -86v-57q0 -84 -84 -84h-391v-1141q0 -80 -74 -86l-19 -90q67 -8 108.5 -47.5t41.5 -108.5q0 -94 -63.5 -137t-157.5 -43q-117 0 -117 70q0 33 12.5 52t30.5 19q9 0 25.5 -3t25.5 -3
q34 0 55 15t21 45q0 49 -92 59q-46 3 -31 63z" />
    <glyph glyph-name="tcommaaccent" unicode="&#x163;" horiz-adv-x="749" 
d="M336 -109l41 150q-86 45 -137.5 127.5t-51.5 204.5v450h-55q-84 0 -84 86v35q0 86 86 86h60v213q0 41 22.5 63.5t63.5 22.5h81q41 0 64 -22.5t23 -63.5v-213h151q41 0 63.5 -22.5t22.5 -63.5v-35q0 -86 -84 -86h-153v-405q0 -45 11 -79.5t27 -54.5t39.5 -33.5t44 -19
t45.5 -8.5q48 -5 67 -23.5t19 -60.5v-63q0 -45 -25.5 -65.5t-80.5 -20.5q-42 0 -100 10l-19 -90q67 -8 108.5 -47.5t41.5 -108.5q0 -94 -63.5 -137t-157.5 -43q-117 0 -117 70q0 33 12.5 52t30.5 19q9 0 25.5 -3t25.5 -3q34 0 55 15t21 45q0 49 -92 59q-46 3 -31 63z" />
    <glyph glyph-name="Tcaron" unicode="&#x164;" horiz-adv-x="1239" 
d="M555 1550q-65 0 -104 56l-82 120q-29 43 -18 73t55 30h53q34 0 52 -12.5t36 -44.5l69 -109h5l67 109q20 33 37.5 45t52.5 12h53q44 0 55 -30t-18 -73l-82 -120q-39 -56 -104 -56h-127zM489 86v1141h-391q-86 0 -86 84v57q0 86 86 86h1045q84 0 84 -86v-57q0 -84 -84 -84
h-391v-1141q0 -86 -86 -86h-93q-84 0 -84 86z" />
    <glyph glyph-name="tcaron" unicode="&#x165;" horiz-adv-x="745" 
d="M563 1395q0 53 76 53h41q98 0 98 -125q0 -85 -38.5 -148t-90.5 -63h-22q-76 0 -76 47q0 14 11 54.5t11 80.5q0 24 -5 54t-5 47zM186 373v450h-55q-84 0 -84 86v35q0 86 86 86h60v213q0 41 22.5 63.5t63.5 22.5h81q41 0 63.5 -22.5t22.5 -63.5v-213h152q41 0 63.5 -22.5
t22.5 -63.5v-35q0 -86 -84 -86h-154v-405q0 -55 15.5 -94.5t42.5 -59.5t52.5 -28.5t57.5 -12.5q48 -5 67 -23.5t19 -60.5v-63q0 -45 -25.5 -65.5t-80.5 -20.5q-58 0 -114 12.5t-110 41.5t-94 71.5t-65 109t-25 148.5z" />
    <glyph glyph-name="Tbar" unicode="&#x166;" horiz-adv-x="1243" 
d="M489 86v518h-223q-86 0 -86 86v27q0 84 86 84h223v426h-391q-86 0 -86 84v57q0 41 22.5 63.5t63.5 22.5h1045q41 0 63.5 -22.5t22.5 -63.5v-57q0 -84 -86 -84h-391v-426h233q86 0 86 -84v-27q0 -86 -86 -86h-233v-518q0 -86 -84 -86h-95q-84 0 -84 86z" />
    <glyph glyph-name="tbar" unicode="&#x167;" horiz-adv-x="749" 
d="M188 373v125h-55q-84 0 -84 84v24q0 86 84 86h55v146h-55q-84 0 -84 84v22q0 86 84 86h62v213q0 86 84 86h83q84 0 84 -86v-213h154q84 0 84 -86v-22q0 -84 -82 -84h-156v-146h154q84 0 84 -86v-24q0 -84 -82 -84h-156v-92q0 -42 11 -74.5t27.5 -51.5t40.5 -31.5
t44 -17.5t45 -8q48 -5 68 -23.5t20 -60.5v-63q0 -86 -106 -86q-58 0 -114 12.5t-110 41.5t-94 71.5t-65 109t-25 148.5z" />
    <glyph glyph-name="Utilde" unicode="&#x168;" horiz-adv-x="1472" 
d="M152 522v846q0 86 84 86h92q86 0 86 -86v-844q0 -146 86.5 -226.5t234.5 -80.5q149 0 236.5 80.5t87.5 226.5v844q0 86 84 86h94q84 0 84 -86v-846q0 -245 -161 -396t-423 -151q-263 0 -424 151t-161 396zM446 1552q-73 0 -73 78q0 85 58 144t149 59q52 0 96.5 -21
t69.5 -45.5t55.5 -45.5t58.5 -21q65 0 72 80q1 22 21.5 34.5t52.5 12.5h20q76 0 76 -70q0 -94 -57.5 -152.5t-149.5 -58.5q-53 0 -97.5 21t-69.5 45.5t-55.5 45.5t-58.5 21q-34 0 -54 -23t-23 -59q-6 -45 -70 -45h-21z" />
    <glyph glyph-name="utilde" unicode="&#x169;" horiz-adv-x="1216" 
d="M115 373v585q0 41 22.5 63.5t63.5 22.5h88q86 0 86 -86v-532q0 -104 35.5 -158.5t126.5 -54.5q135 0 213.5 102.5t78.5 249.5v393q0 86 86 86h89q41 0 63.5 -22.5t22.5 -63.5v-872q0 -86 -86 -86h-80q-84 0 -84 86v61l4 48h-4q-41 -88 -139.5 -154t-223.5 -66
q-362 0 -362 398zM311 1178q-73 0 -73 77q0 85 58 144t148 59q52 0 96.5 -21t69.5 -45.5t56 -45.5t59 -21q65 0 72 80q1 22 21 34.5t52 12.5h21q76 0 76 -70q0 -94 -57.5 -152.5t-149.5 -58.5q-53 0 -97.5 21t-69.5 46t-55.5 46t-58.5 21q-34 0 -54.5 -23t-23.5 -59
q-6 -45 -69 -45h-21z" />
    <glyph glyph-name="Umacron" unicode="&#x16a;" horiz-adv-x="1472" 
d="M152 522v846q0 86 84 86h92q86 0 86 -86v-844q0 -146 86.5 -226.5t234.5 -80.5q149 0 236.5 80.5t87.5 226.5v844q0 86 84 86h94q84 0 84 -86v-846q0 -245 -161 -396t-423 -151q-263 0 -424 151t-161 396zM553 1604q-84 0 -84 82v14q0 82 84 82h367q86 0 86 -82v-14
q0 -82 -86 -82h-367z" />
    <glyph glyph-name="umacron" unicode="&#x16b;" horiz-adv-x="1216" 
d="M115 373v585q0 41 22.5 63.5t63.5 22.5h88q86 0 86 -86v-532q0 -104 35.5 -158.5t126.5 -54.5q135 0 213.5 102.5t78.5 249.5v393q0 86 86 86h89q41 0 63.5 -22.5t22.5 -63.5v-872q0 -86 -86 -86h-80q-84 0 -84 86v61l4 48h-4q-41 -88 -139.5 -154t-223.5 -66
q-362 0 -362 398zM418 1229q-84 0 -84 82v14q0 82 84 82h366q86 0 86 -82v-14q0 -82 -86 -82h-366z" />
    <glyph glyph-name="Ubreve" unicode="&#x16c;" horiz-adv-x="1472" 
d="M152 522v846q0 86 84 86h92q86 0 86 -86v-844q0 -146 86.5 -226.5t234.5 -80.5q149 0 236.5 80.5t87.5 226.5v844q0 86 84 86h94q84 0 84 -86v-846q0 -245 -161 -396t-423 -151q-263 0 -424 151t-161 396zM735 1542q-115 0 -208 67.5t-93 168.5q0 51 72 51h39
q61 0 73 -57q19 -89 117 -89q96 0 115 89q17 57 74 57h39q73 0 73 -51q0 -69 -45 -124t-113 -83.5t-143 -28.5z" />
    <glyph glyph-name="ubreve" unicode="&#x16d;" horiz-adv-x="1216" 
d="M115 373v585q0 41 22.5 63.5t63.5 22.5h88q86 0 86 -86v-532q0 -104 35.5 -158.5t126.5 -54.5q135 0 213.5 102.5t78.5 249.5v393q0 86 86 86h89q41 0 63.5 -22.5t22.5 -63.5v-872q0 -86 -86 -86h-80q-84 0 -84 86v61l4 48h-4q-41 -88 -139.5 -154t-223.5 -66
q-362 0 -362 398zM602 1167q-115 0 -208 67.5t-93 168.5q0 51 72 51h39q61 0 73 -57q19 -88 117 -88q96 0 115 88q17 57 74 57h38q74 0 74 -51q0 -69 -45 -124t-113 -83.5t-143 -28.5z" />
    <glyph glyph-name="Uring" unicode="&#x16e;" horiz-adv-x="1472" 
d="M735 1526q-79 0 -136.5 43t-57.5 117q0 75 57.5 118t136.5 43q78 0 135.5 -43t57.5 -118q0 -74 -58 -117t-135 -43zM735 1616q31 0 50.5 19.5t19.5 50.5q0 32 -19.5 51.5t-50.5 19.5t-50 -19.5t-19 -51.5q0 -31 18.5 -50.5t50.5 -19.5zM152 522v846q0 86 84 86h92
q86 0 86 -86v-844q0 -146 86.5 -226.5t234.5 -80.5q149 0 236.5 80.5t87.5 226.5v844q0 86 84 86h94q84 0 84 -86v-846q0 -245 -161 -396t-423 -151q-263 0 -424 151t-161 396z" />
    <glyph glyph-name="uring" unicode="&#x16f;" horiz-adv-x="1216" 
d="M602 1151q-79 0 -136.5 43t-57.5 117q0 75 57.5 118.5t136.5 43.5q78 0 135.5 -43.5t57.5 -118.5q0 -74 -58 -117t-135 -43zM602 1241q31 0 50.5 19.5t19.5 50.5q0 32 -19.5 51.5t-50.5 19.5t-50.5 -19.5t-19.5 -51.5q0 -31 19 -50.5t51 -19.5zM115 373v585
q0 41 22.5 63.5t63.5 22.5h88q86 0 86 -86v-532q0 -104 35.5 -158.5t126.5 -54.5q135 0 213.5 102.5t78.5 249.5v393q0 86 86 86h89q41 0 63.5 -22.5t22.5 -63.5v-872q0 -86 -86 -86h-80q-84 0 -84 86v61l4 48h-4q-41 -88 -139.5 -154t-223.5 -66q-362 0 -362 398z" />
    <glyph glyph-name="Uhungarumlaut" unicode="&#x170;" horiz-adv-x="1472" 
d="M152 522v846q0 86 84 86h92q86 0 86 -86v-844q0 -146 86.5 -226.5t234.5 -80.5q149 0 236.5 80.5t87.5 226.5v844q0 86 84 86h94q84 0 84 -86v-846q0 -245 -161 -396t-423 -151q-263 0 -424 151t-161 396zM891 1550q-50 0 -63.5 29.5t10.5 73.5l67 116q35 60 101 60h63
q54 0 66 -31t-21 -72l-92 -124q-43 -52 -104 -52h-27zM532 1550q-50 0 -65 29t8 72l64 116q29 62 100 62h43q49 0 63.5 -28t-10.5 -72l-63 -117q-36 -62 -101 -62h-39z" />
    <glyph glyph-name="uhungarumlaut" unicode="&#x171;" horiz-adv-x="1216" 
d="M115 373v585q0 41 22.5 63.5t63.5 22.5h88q86 0 86 -86v-532q0 -104 35.5 -158.5t126.5 -54.5q135 0 213.5 102.5t78.5 249.5v393q0 86 86 86h89q41 0 63.5 -22.5t22.5 -63.5v-872q0 -86 -86 -86h-80q-84 0 -84 86v61l4 48h-4q-41 -88 -139.5 -154t-223.5 -66
q-362 0 -362 398zM758 1176q-50 0 -63.5 29t10.5 73l67 117q34 59 100 59h64q54 0 66 -30.5t-21 -71.5l-92 -125q-42 -51 -105 -51h-26zM399 1176q-50 0 -65 28.5t8 71.5l64 117q28 61 100 61h43q49 0 63.5 -28t-10.5 -72l-63 -117q-35 -61 -101 -61h-39z" />
    <glyph glyph-name="Uogonek" unicode="&#x172;" horiz-adv-x="1472" 
d="M152 522v846q0 86 84 86h92q86 0 86 -86v-844q0 -146 86.5 -226.5t234.5 -80.5q149 0 236.5 80.5t87.5 226.5v844q0 86 84 86h94q84 0 84 -86v-846q0 -72 -14.5 -135t-36.5 -108t-57.5 -87.5t-68 -71t-77.5 -61.5q-217 -144 -217 -223q0 -20 13 -35.5t25.5 -22
t33.5 -14.5q39 -16 30 -79l-6 -43q-4 -31 -26 -46t-52 -12q-36 5 -72.5 18t-71.5 35.5t-57 59.5t-22 82q0 97 107 196q-266 -5 -433 147t-167 400z" />
    <glyph glyph-name="uogonek" unicode="&#x173;" horiz-adv-x="1216" 
d="M115 373v585q0 41 22.5 63.5t63.5 22.5h88q86 0 86 -86v-532q0 -104 35.5 -158.5t126.5 -54.5q135 0 213.5 102.5t78.5 249.5v393q0 86 86 86h89q41 0 63.5 -22.5t22.5 -63.5v-872q0 -28 -14.5 -53.5t-35.5 -46.5l-42 -42t-35.5 -49t-14.5 -59q0 -20 13 -35.5t25.5 -22
t33.5 -14.5q40 -17 31 -79l-7 -43q-4 -31 -26 -46t-53 -12q-36 5 -71.5 18t-71 35.5t-57.5 59.5t-22 82q0 65 39.5 127t91.5 108q-34 20 -34 72v61l4 48h-4q-41 -88 -139.5 -154t-223.5 -66q-362 0 -362 398z" />
    <glyph glyph-name="Wcircumflex" unicode="&#x174;" horiz-adv-x="1966" 
d="M772 1550q-44 0 -55 30.5t18 74.5l82 119q38 55 105 55h127q66 0 104 -55l82 -119q29 -44 18 -74.5t-55 -30.5h-53q-34 0 -51.5 13t-38.5 47l-68 106h-4l-70 -106q-19 -33 -37 -46.5t-51 -13.5h-53zM393 74l-321 1286q-11 43 8.5 68.5t64.5 25.5h103q74 0 92 -76
l211 -929q8 -36 13.5 -74.5t7.5 -58.5l1 -21h5q7 70 30 154l242 931q21 74 96 74h70q77 0 92 -74l240 -931q10 -37 17.5 -75.5t10.5 -58.5l2 -20h4q7 72 25 154l223 929q15 76 94 76h97q45 0 65.5 -25.5t9.5 -68.5l-333 -1288q-21 -72 -97 -72h-145q-76 0 -94 74l-207 786
q-11 42 -21 89.5t-14 74.5l-4 27h-6q-14 -97 -37 -191l-209 -786q-18 -74 -94 -74h-148q-76 0 -94 74z" />
    <glyph glyph-name="wcircumflex" unicode="&#x175;" horiz-adv-x="1658" 
d="M616 1176q-44 0 -54.5 30t18.5 74l82 119q38 55 104 55h127q66 0 104 -55l82 -119q29 -44 18 -74t-55 -30h-53q-35 0 -52.5 12.5t-37.5 46.5l-68 106h-4l-69 -106q-18 -33 -36 -46t-52 -13h-54zM315 72l-270 876q-12 43 8 69.5t64 26.5h98q77 0 92 -75l168 -611l21 -110
h4q8 55 22 110l176 611q15 73 95 73h77q77 0 95 -73l174 -611q7 -24 12.5 -51.5t7.5 -42.5l2 -16h4q9 55 23 110l166 611q18 75 94 75h94q45 0 64.5 -26.5t7.5 -69.5l-268 -876q-21 -72 -97 -72h-137q-78 0 -96 74l-158 522q-7 24 -13 52.5t-9 44.5l-2 16h-5
q-10 -58 -26 -113l-158 -522q-18 -74 -94 -74h-141q-74 0 -95 72z" />
    <glyph glyph-name="Ycircumflex" unicode="&#x176;" horiz-adv-x="1187" 
d="M463 86v522l-426 744q-26 43 -9.5 72.5t66.5 29.5h115q69 0 98 -63l197 -365q20 -40 42 -89t34 -77l12 -29h4q43 105 88 195l197 365q29 63 98 63h115q51 0 67.5 -29.5t-8.5 -72.5l-428 -744v-522q0 -86 -84 -86h-92q-86 0 -86 86zM381 1550q-44 0 -55 30.5t18 74.5
l82 119q38 55 104 55h127q67 0 105 -55l82 -119q29 -44 18 -74.5t-55 -30.5h-53q-34 0 -51.5 13t-38.5 47l-68 106h-4l-70 -106q-19 -33 -37 -46.5t-51 -13.5h-53z" />
    <glyph glyph-name="ycircumflex" unicode="&#x177;" horiz-adv-x="1052" 
d="M49 -244q30 61 92 47q41 -18 74 -18q54 0 97.5 39.5t68.5 99.5l39 92l-397 928q-20 44 -2 72t67 28h111q73 0 96 -69l197 -533l38 -141h5q18 82 34 137l185 535q20 71 96 71h102q47 0 66 -27t4 -71l-430 -1102q-52 -136 -153.5 -205t-223.5 -69q-63 0 -145 31
q-36 13 -46.5 44t7.5 66zM319 1174q-44 0 -54.5 30t18.5 74l82 119q38 55 104 55h127q66 0 104 -55l82 -119q29 -44 18 -74t-55 -30h-53q-35 0 -52.5 12.5t-37.5 46.5l-67 106h-5l-69 -106q-18 -33 -36 -46t-52 -13h-54z" />
    <glyph glyph-name="Ydieresis" unicode="&#x178;" horiz-adv-x="1187" 
d="M463 86v522l-426 744q-26 43 -9.5 72.5t66.5 29.5h115q69 0 98 -63l197 -365q20 -40 42 -89t34 -77l12 -29h4q43 105 88 195l197 365q29 63 98 63h115q51 0 67.5 -29.5t-8.5 -72.5l-428 -744v-522q0 -86 -84 -86h-92q-86 0 -86 86zM764 1591q-84 0 -84 86v68q0 84 84 84
h31q84 0 84 -84v-68q0 -86 -84 -86h-31zM389 1591q-86 0 -86 86v68q0 84 86 84h29q86 0 86 -84v-68q0 -86 -86 -86h-29z" />
    <glyph glyph-name="Zacute" unicode="&#x179;" horiz-adv-x="1230" 
d="M627 1550q-44 0 -59.5 28.5t7.5 68.5l72 122q35 60 101 60h73q55 0 67.5 -31t-22.5 -72l-92 -124q-43 -52 -104 -52h-43zM63 86v25q0 59 35 108l611 877q25 37 51.5 70t40.5 47l14 14v4q-40 -4 -108 -4h-525q-86 0 -86 84v57q0 41 22.5 63.5t63.5 22.5h881q41 0 62.5 -22
t21.5 -62v-24q0 -63 -33 -109l-612 -879q-25 -37 -52 -70t-41 -47l-14 -14v-4q41 4 109 4h567q86 0 86 -84v-57q0 -86 -86 -86h-921q-87 0 -87 86z" />
    <glyph glyph-name="zacute" unicode="&#x17a;" horiz-adv-x="1044" 
d="M502 1176q-44 0 -59 28t8 68l71 123q34 59 101 59h73q55 0 67.5 -30.5t-22.5 -71.5l-92 -125q-42 -51 -104 -51h-43zM57 70v20q0 31 8 50.5t29 45.5l432 541q22 26 44 50t33 35l11 11v4q-28 -4 -96 -4h-354q-86 0 -86 86v49q0 86 86 86h717q86 0 86 -69v-21
q0 -31 -8 -50.5t-29 -45.5l-432 -543q-21 -26 -43.5 -50t-34.5 -35l-12 -11v-4q30 6 98 6h389q86 0 86 -86v-49q0 -86 -86 -86h-752q-41 0 -63.5 18t-22.5 52z" />
    <glyph glyph-name="Zdotaccent" unicode="&#x17b;" horiz-adv-x="1230" 
d="M63 86v25q0 59 35 108l611 877q25 37 51.5 70t40.5 47l14 14v4q-40 -4 -108 -4h-525q-86 0 -86 84v57q0 41 22.5 63.5t63.5 22.5h881q41 0 62.5 -22t21.5 -62v-24q0 -63 -33 -109l-612 -879q-25 -37 -52 -70t-41 -47l-14 -14v-4q41 4 109 4h567q86 0 86 -84v-57
q0 -86 -86 -86h-921q-87 0 -87 86zM610 1602q-84 0 -84 86v57q0 84 84 84h54q84 0 84 -84v-57q0 -86 -84 -86h-54z" />
    <glyph glyph-name="zdotaccent" unicode="&#x17c;" horiz-adv-x="1044" 
d="M57 70v20q0 31 8 50.5t29 45.5l432 541q22 26 44 50t33 35l11 11v4q-28 -4 -96 -4h-354q-86 0 -86 86v49q0 86 86 86h717q86 0 86 -69v-21q0 -31 -8 -50.5t-29 -45.5l-432 -543q-21 -26 -43.5 -50t-34.5 -35l-12 -11v-4q30 6 98 6h389q86 0 86 -86v-49q0 -86 -86 -86
h-752q-41 0 -63.5 18t-22.5 52zM487 1227q-84 0 -84 86v57q0 84 84 84h54q84 0 84 -84v-57q0 -86 -84 -86h-54z" />
    <glyph glyph-name="Zcaron" unicode="&#x17d;" horiz-adv-x="1230" 
d="M573 1550q-65 0 -104 56l-82 120q-29 43 -18 73t55 30h53q34 0 52 -12.5t36 -44.5l70 -109h4l68 109q20 33 37.5 45t52.5 12h53q44 0 55 -30t-18 -73l-82 -120q-39 -56 -105 -56h-127zM63 86v25q0 59 35 108l611 877q25 37 51.5 70t40.5 47l14 14v4q-40 -4 -108 -4h-525
q-86 0 -86 84v57q0 41 22.5 63.5t63.5 22.5h881q41 0 62.5 -22t21.5 -62v-24q0 -63 -33 -109l-612 -879q-25 -37 -52 -70t-41 -47l-14 -14v-4q41 4 109 4h567q86 0 86 -84v-57q0 -86 -86 -86h-921q-87 0 -87 86z" />
    <glyph glyph-name="zcaron" unicode="&#x17e;" horiz-adv-x="1044" 
d="M449 1176q-67 0 -105 55l-82 121q-29 43 -18 72.5t55 29.5h53q34 0 52 -12.5t36 -44.5l70 -109h4l68 109q20 33 37.5 45t52.5 12h53q44 0 55 -29.5t-18 -72.5l-82 -121q-38 -55 -105 -55h-126zM57 70v20q0 31 8 50.5t29 45.5l432 541q22 26 44 50t33 35l11 11v4
q-28 -4 -96 -4h-354q-86 0 -86 86v49q0 86 86 86h717q86 0 86 -69v-21q0 -31 -8 -50.5t-29 -45.5l-432 -543q-21 -26 -43.5 -50t-34.5 -35l-12 -11v-4q30 6 98 6h389q86 0 86 -86v-49q0 -86 -86 -86h-752q-41 0 -63.5 18t-22.5 52z" />
    <glyph glyph-name="longs" unicode="&#x17f;" horiz-adv-x="573" 
d="M184 86v737h-51q-84 0 -84 86v35q0 86 84 86h51v49q0 94 32 166.5t77.5 112t104.5 64.5t103 32.5t83 7.5h30q84 0 84 -86v-53q0 -78 -88 -84q-31 -2 -53.5 -7.5t-51.5 -21.5t-45 -51.5t-16 -89.5v-983q0 -86 -86 -86h-90q-84 0 -84 86z" />
    <glyph glyph-name="florin" unicode="&#x192;" horiz-adv-x="825" 
d="M-16 -14q8 0 27.5 -1t31.5 -1q34 0 64 6.5t65 24.5t58.5 58t29.5 99l43 512h-65q-86 0 -86 86v35q0 86 86 86h84l18 199q9 98 47 172t86.5 114t112 64.5t113.5 31.5t102 7q9 0 96 -6q80 -9 80 -91v-51q0 -42 -17.5 -64.5t-46.5 -19.5q-62 8 -96 8q-26 0 -50.5 -3.5
t-54.5 -15.5t-52.5 -32t-39.5 -56t-22 -83l-16 -174h137q84 0 84 -86v-35q0 -86 -82 -86h-158l-47 -537q-9 -98 -46.5 -172t-85.5 -113.5t-111.5 -64t-112.5 -31t-101 -6.5q-33 0 -73 4q-80 6 -80 91v51q0 43 20.5 64t57.5 16z" />
    <glyph glyph-name="Scommaaccent" unicode="&#x218;" horiz-adv-x="1124" 
d="M446 -166q0 53 76 53h41q99 0 99 -125q0 -85 -39 -148t-91 -63h-22q-76 0 -76 48q0 14 11.5 54.5t11.5 80.5q0 24 -5.5 53t-5.5 47zM117 123q-19 16 -28 31.5t-6.5 38.5t21.5 49l46 65q24 33 52 37t66 -18q152 -107 295 -107q100 0 158.5 46t58.5 120q0 44 -23 80.5
t-62.5 63.5t-90.5 52t-107 49t-112 51t-107 62.5t-90.5 78t-62.5 103t-23 132.5q0 125 65 222t176 148.5t249 51.5q116 0 217 -34.5t158 -76.5q65 -47 26 -117l-37 -67q-37 -71 -116 -29q-39 23 -68 37.5t-80.5 28.5t-103.5 14q-101 0 -161 -45t-60 -119q0 -55 37.5 -97.5
t97 -72.5t131.5 -59.5t144.5 -66t132 -82.5t97 -119.5t37.5 -167.5q0 -89 -32.5 -167t-93 -137t-152.5 -93t-203 -34q-138 0 -256 46.5t-190 101.5z" />
    <glyph glyph-name="scommaaccent" unicode="&#x219;" horiz-adv-x="915" 
d="M342 -166q0 53 76 53h41q98 0 98 -125q0 -85 -38.5 -148t-90.5 -63h-22q-76 0 -76 48q0 14 11 54.5t11 80.5q0 24 -5 53t-5 47zM104 82q-35 20 -39.5 52t19.5 65l25 37q23 32 50.5 36.5t65.5 -16.5t61 -32.5t73.5 -25.5t99.5 -14q67 0 106 28.5t39 78.5q0 34 -28.5 60
t-74.5 44.5t-101 37t-110 44.5t-101 60t-74.5 90t-28.5 129q0 148 113.5 230.5t285.5 82.5q156 0 291 -76q69 -37 31 -114l-21 -37q-35 -69 -114 -33q-115 51 -199 51q-68 0 -104.5 -26.5t-36.5 -75.5q0 -34 28.5 -60.5t74.5 -44.5t101 -36t110 -43.5t101 -59t74.5 -89.5
t28.5 -128q0 -140 -109 -231t-288 -91q-192 0 -349 107z" />
    <glyph glyph-name="uni021A" unicode="&#x21a;" horiz-adv-x="1241" 
d="M516 -166q0 53 76 53h41q98 0 98 -125q0 -85 -38.5 -148t-90.5 -63h-22q-76 0 -76 48q0 14 11 54.5t11 80.5q0 24 -5 53t-5 47zM489 86v1141h-391q-86 0 -86 84v57q0 86 86 86h1045q84 0 84 -86v-57q0 -84 -84 -84h-391v-1141q0 -86 -86 -86h-93q-84 0 -84 86z" />
    <glyph glyph-name="uni021B" unicode="&#x21b;" horiz-adv-x="745" 
d="M303 -166q0 53 76 53h41q98 0 98 -125q0 -85 -38.5 -148t-90.5 -63h-22q-76 0 -76 48q0 14 11 54.5t11 80.5q0 24 -5 53t-5 47zM186 373v450h-55q-84 0 -84 86v35q0 86 86 86h60v213q0 41 22.5 63.5t63.5 22.5h81q41 0 63.5 -22.5t22.5 -63.5v-213h152q41 0 63.5 -22.5
t22.5 -63.5v-35q0 -86 -84 -86h-154v-405q0 -55 15.5 -94.5t42.5 -59.5t52.5 -28.5t57.5 -12.5q48 -5 67 -23.5t19 -60.5v-63q0 -45 -25.5 -65.5t-80.5 -20.5q-58 0 -114 12.5t-110 41.5t-94 71.5t-65 109t-25 148.5z" />
    <glyph glyph-name="circumflex" unicode="&#x2c6;" horiz-adv-x="1011" 
d="M293 1550q-44 0 -55 30.5t18 74.5l82 119q38 55 104 55h127q67 0 105 -55l82 -119q29 -44 18 -74.5t-55 -30.5h-53q-35 0 -52.5 13t-38.5 47l-67 106h-4l-70 -106q-19 -33 -37 -46.5t-51 -13.5h-53z" />
    <glyph glyph-name="caron" unicode="&#x2c7;" horiz-adv-x="1011" 
d="M442 1550q-65 0 -104 56l-82 120q-29 43 -18 73t55 30h53q34 0 52 -12.5t36 -44.5l70 -109h4l67 109q20 33 38 45t53 12h53q44 0 55 -30t-18 -73l-82 -120q-39 -56 -105 -56h-127z" />
    <glyph glyph-name="breve" unicode="&#x2d8;" horiz-adv-x="1009" 
d="M506 1542q-115 0 -208 67.5t-93 168.5q0 51 71 51h39q62 0 74 -57q19 -89 117 -89q96 0 115 89q5 17 11 27.5t22 20t40 9.5h39q74 0 74 -51q0 -69 -45 -124t-113 -83.5t-143 -28.5z" />
    <glyph glyph-name="dotaccent" unicode="&#x2d9;" horiz-adv-x="1011" 
d="M479 1602q-84 0 -84 86v57q0 84 84 84h53q84 0 84 -84v-57q0 -86 -84 -86h-53z" />
    <glyph glyph-name="ring" unicode="&#x2da;" horiz-adv-x="1011" 
d="M506 1526q-79 0 -137 43t-58 117q0 75 58 118t137 43q78 0 135 -43t57 -118q0 -74 -57.5 -117t-134.5 -43zM506 1616q31 0 50 19.5t19 50.5q0 32 -19 51.5t-50 19.5t-50.5 -19.5t-19.5 -51.5q0 -31 19 -50.5t51 -19.5z" />
    <glyph glyph-name="ogonek" unicode="&#x2db;" horiz-adv-x="1011" 
d="M322 -221q0 73 51.5 137t113.5 109q49 36 113 22q38 -9 45.5 -28.5t-18.5 -45.5q-3 -3 -26 -22.5t-29.5 -27t-21 -24.5t-19.5 -32t-5 -31q0 -20 13 -35.5t24.5 -21.5t32.5 -15q42 -16 33 -79l-6 -43q-4 -31 -26.5 -46t-53.5 -12q-36 5 -71.5 18t-70.5 35.5t-57 59.5
t-22 82z" />
    <glyph glyph-name="tilde" unicode="&#x2dc;" horiz-adv-x="1009" 
d="M215 1552q-74 0 -74 78q0 85 58 144t149 59q52 0 96.5 -21t69.5 -45.5t56 -45.5t59 -21q64 0 71 80q1 22 21.5 34.5t52.5 12.5h21q75 0 75 -70q0 -94 -57 -152.5t-149 -58.5q-53 0 -97.5 21t-69.5 45.5t-55.5 45.5t-58.5 21q-34 0 -54.5 -23t-23.5 -59q-6 -45 -69 -45
h-21z" />
    <glyph glyph-name="hungarumlaut" unicode="&#x2dd;" horiz-adv-x="1009" 
d="M588 1550q-50 0 -63.5 29.5t10.5 73.5l67 116q35 60 100 60h64q54 0 66 -31t-21 -72l-92 -124q-43 -52 -105 -52h-26zM229 1550q-50 0 -65 29t8 72l64 116q29 62 100 62h43q49 0 63.5 -28t-10.5 -72l-63 -117q-36 -62 -101 -62h-39z" />
    <glyph glyph-name="uni1E9E" unicode="&#x1e9e;" horiz-adv-x="1392" 
d="M152 86v930q0 192 125 315t321 123h563q86 0 86 -84v-41q0 -58 -30 -104l-218 -324l-47 -63v-4l39 -3q94 -13 167.5 -74.5t111 -147.5t37.5 -179q0 -181 -130 -305.5t-315 -124.5h-196q-84 0 -84 86v57q0 84 82 84h178q89 0 141.5 59.5t52.5 143.5q0 83 -52 141t-140 58
h-88q-84 0 -84 86v49q0 45 26 96l156 240q25 42 48 73.5t34 42.5l10 11v4q-22 -4 -90 -4h-252q-81 0 -132.5 -59t-51.5 -148v-934q0 -86 -84 -86h-98q-86 0 -86 86z" />
    <glyph glyph-name="thinspace" unicode="&#x2009;" horiz-adv-x="40" 
 />
    <glyph glyph-name="endash" unicode="&#x2013;" horiz-adv-x="1374" 
d="M205 483q-84 0 -84 86v31q0 86 84 86h964q84 0 84 -86v-31q0 -86 -84 -86h-964z" />
    <glyph glyph-name="emdash" unicode="&#x2014;" horiz-adv-x="1783" 
d="M205 483q-84 0 -84 86v31q0 86 84 86h1374q84 0 84 -86v-31q0 -86 -84 -86h-1374z" />
    <glyph glyph-name="quoteleft" unicode="&#x2018;" horiz-adv-x="444" 
d="M152 1004q-47 0 -66 26t-4 70l102 311q27 68 99 68h20q45 0 62 -24.5t8 -68.5l-70 -307q-15 -75 -92 -75h-59z" />
    <glyph glyph-name="quoteright" unicode="&#x2019;" horiz-adv-x="440" 
d="M156 1004q-89 0 -70 92l70 307q15 76 92 76h57q47 0 66.5 -26.5t5.5 -70.5l-105 -311q-24 -67 -96 -67h-20z" />
    <glyph glyph-name="quotesinglbase" unicode="&#x201a;" horiz-adv-x="473" 
d="M68 -119l69 307q15 76 92 76h60q47 0 65.5 -26.5t3.5 -71.5l-102 -309q-26 -68 -98 -68h-21q-88 0 -69 92z" />
    <glyph glyph-name="quotedblleft" unicode="&#x201c;" horiz-adv-x="786" 
d="M494 1004q-47 0 -66 26t-4 70l102 311q27 68 99 68h22q43 0 60 -24.5t8 -68.5l-68 -307q-18 -75 -94 -75h-59zM152 1004q-47 0 -66 26t-4 70l102 311q27 68 99 68h22q86 0 70 -93l-70 -307q-18 -75 -92 -75h-61z" />
    <glyph glyph-name="quotedblright" unicode="&#x201d;" horiz-adv-x="782" 
d="M498 1004q-89 0 -70 92l70 307q15 76 92 76h59q47 0 66 -26.5t4 -70.5l-103 -311q-24 -67 -98 -67h-20zM156 1004q-89 0 -70 92l70 307q15 76 92 76h59q47 0 66 -26.5t4 -70.5l-103 -311q-24 -67 -98 -67h-20z" />
    <glyph glyph-name="quotedblbase" unicode="&#x201e;" horiz-adv-x="815" 
d="M410 -119l69 307q15 76 92 76h60q47 0 65.5 -26.5t3.5 -71.5l-102 -309q-23 -68 -96 -68h-23q-88 0 -69 92zM68 -119l69 307q15 76 92 76h60q47 0 65.5 -26.5t3.5 -71.5l-102 -309q-23 -68 -96 -68h-23q-88 0 -69 92z" />
    <glyph glyph-name="dagger" unicode="&#x2020;" horiz-adv-x="915" 
d="M332 -16v858h-170q-41 0 -63.5 22.5t-22.5 63.5v30q0 41 22.5 63.5t63.5 22.5h170v324q0 86 84 86h80q84 0 84 -86v-324h176q84 0 84 -86v-30q0 -86 -84 -86h-176v-858q0 -86 -84 -86h-80q-84 0 -84 86z" />
    <glyph glyph-name="daggerdbl" unicode="&#x2021;" horiz-adv-x="942" 
d="M344 -16v350h-170q-84 0 -84 84v31q0 86 84 86h170v307h-170q-84 0 -84 86v30q0 86 84 86h170v324q0 41 22.5 63.5t63.5 22.5h78q41 0 63.5 -22.5t22.5 -63.5v-324h174q84 0 84 -86v-30q0 -86 -84 -86h-174v-307h174q84 0 84 -86v-31q0 -84 -84 -84h-174v-350
q0 -86 -86 -86h-78q-86 0 -86 86z" />
    <glyph glyph-name="bullet" unicode="&#x2022;" horiz-adv-x="872" 
d="M436 254q-141 0 -241.5 100.5t-100.5 241.5t100.5 241.5t241.5 100.5t241.5 -100.5t100.5 -241.5t-100.5 -241.5t-241.5 -100.5z" />
    <glyph glyph-name="ellipsis" unicode="&#x2026;" horiz-adv-x="1644" 
d="M1280 86v92q0 84 84 84h84q84 0 84 -84v-92q0 -86 -84 -86h-84q-84 0 -84 86zM696 86v92q0 84 84 84h84q86 0 86 -84v-92q0 -86 -86 -86h-84q-84 0 -84 86zM113 86v92q0 84 86 84h82q86 0 86 -84v-92q0 -86 -86 -86h-82q-86 0 -86 86z" />
    <glyph glyph-name="perthousand" unicode="&#x2030;" horiz-adv-x="2375" 
d="M420 831q-139 0 -236.5 94.5t-97.5 229.5q0 133 97.5 228.5t236.5 95.5q138 0 236 -96t98 -228q0 -135 -98 -229.5t-236 -94.5zM219 104l995 1299q39 51 105 51h41q55 0 70 -30.5t-19 -73.5l-995 -1299q-39 -51 -105 -51h-43q-54 0 -68.5 30.5t19.5 73.5zM420 1020
q57 0 97 39t40 96q0 56 -40 95.5t-97 39.5t-96 -39.5t-39 -95.5q0 -57 39 -96t96 -39zM1645 297q0 133 97 228.5t236 95.5q138 0 236 -96t98 -228q0 -133 -98 -227.5t-236 -94.5q-139 0 -236 94t-97 228zM881 297q0 133 97 228.5t236 95.5q138 0 236 -96t98 -228
q0 -133 -98 -227.5t-236 -94.5q-139 0 -236 94t-97 228zM1843 299q0 -57 39 -96t96 -39t97.5 39t40.5 96q0 56 -40.5 95.5t-97.5 39.5t-96 -39.5t-39 -95.5zM1079 299q0 -57 39 -96t96 -39t97.5 39t40.5 96q0 56 -40.5 95.5t-97.5 39.5t-96 -39.5t-39 -95.5z" />
    <glyph glyph-name="guilsinglleft" unicode="&#x2039;" horiz-adv-x="673" 
d="M348 207l-248 311q-50 60 0 119l248 313q43 49 105 49h51q54 0 68.5 -30.5t-19.5 -73.5l-252 -317l252 -316q34 -43 22 -73.5t-63 -30.5h-59q-62 0 -105 49z" />
    <glyph glyph-name="guilsinglright" unicode="&#x203a;" horiz-adv-x="673" 
d="M170 158q-54 0 -68.5 30.5t19.5 73.5l252 316l-252 317q-34 43 -22 73.5t63 30.5h59q62 0 105 -49l247 -313q50 -59 0 -119l-247 -311q-43 -49 -105 -49h-51z" />
    <glyph glyph-name="fraction" unicode="&#x2044;" horiz-adv-x="366" 
d="M-37 63q-29 -63 -98 -63h-29q-41 0 -54 28t9 72l612 1291q29 63 99 63h28q41 0 53.5 -28t-8.5 -72z" />
    <glyph glyph-name="zerosuperior" unicode="&#x2070;" horiz-adv-x="811" 
d="M406 846q-332 0 -332 471q0 469 332 469q331 0 331 -469q0 -471 -331 -471zM406 1024q135 0 135 293q0 289 -135 289q-136 0 -136 -289q0 -293 136 -293z" />
    <glyph glyph-name="foursuperior" unicode="&#x2074;" horiz-adv-x="804" 
d="M530 866q-86 0 -86 86v117h-331q-84 0 -84 66v22q0 29 6 45.5t24 44.5l320 463q40 55 102 55h70q41 0 63.5 -22.5t22.5 -63.5v-442h53q72 0 72 -78v-10q0 -80 -72 -80h-53v-117q0 -86 -86 -86h-21zM225 1237h219v225q0 24 2 52t4 44l3 17h-4q-25 -55 -54 -96l-170 -238
v-4z" />
    <glyph glyph-name="fivesuperior" unicode="&#x2075;" horiz-adv-x="741" 
d="M346 846q-126 0 -248 84q-62 45 -12 117l6 8q22 32 50.5 34.5t60.5 -18.5q59 -47 129 -47q64 0 110.5 39t46.5 100t-46.5 101.5t-114.5 40.5q-40 0 -88 -19q-75 -15 -109 0q-53 21 -47 94l31 303q6 82 90 82h334q86 0 86 -79v-9q0 -80 -86 -80h-258l-11 -104l-8 -51l4 -2
q42 16 105 16q138 0 226.5 -85.5t88.5 -209.5q0 -128 -94 -221.5t-246 -93.5z" />
    <glyph glyph-name="sixsuperior" unicode="&#x2076;" horiz-adv-x="784" 
d="M420 846q-149 0 -250.5 112.5t-101.5 307.5q0 95 25.5 185t75.5 166t134 122.5t191 46.5q52 0 118 -21q39 -13 50 -42.5t-5 -61.5l-4 -10q-18 -42 -32.5 -54.5t-45.5 -5.5q-4 1 -18.5 5.5t-29 7t-31.5 2.5q-82 0 -135.5 -55.5t-71.5 -143.5h4q49 43 133 43
q136 0 219.5 -84t83.5 -209q0 -133 -86 -222t-223 -89zM418 1024q55 0 86 38t31 97q0 63 -39 106.5t-111 43.5q-48 0 -83.5 -25.5t-35.5 -66.5q0 -65 43.5 -129t108.5 -64z" />
    <glyph glyph-name="sevensuperior" unicode="&#x2077;" horiz-adv-x="706" 
d="M170 866q-51 0 -67.5 29.5t8.5 73.5l301 547l49 77v4q-37 -4 -80 -4h-258q-84 0 -84 82v11q0 79 84 79h475q84 0 84 -65v-14q0 -56 -27 -103l-358 -657q-29 -60 -100 -60h-27z" />
    <glyph glyph-name="eightsuperior" unicode="&#x2078;" horiz-adv-x="802" 
d="M403 846q-87 0 -162 30t-125 95.5t-50 154.5q0 121 139 228q-99 75 -99 182q0 118 88.5 184t211.5 66q79 0 147 -27.5t113 -86.5t45 -138q0 -25 -7 -51.5t-16 -46.5t-24 -43.5t-24 -35t-22 -27.5l-14 -17q127 -76 127 -203q0 -118 -97 -191t-231 -73zM469 1376
q59 66 59 146q0 45 -37 70.5t-85 25.5q-47 0 -80 -23t-33 -67q0 -21 10 -40t21.5 -31t38.5 -28t41.5 -23t51.5 -24q9 -4 13 -6zM401 1012q53 0 94.5 30t41.5 78q0 19 -9 36.5t-21 29.5t-36.5 27t-40.5 22.5t-50 23.5t-50 23q-76 -71 -76 -145q0 -57 44 -91t103 -34z" />
    <glyph glyph-name="ninesuperior" unicode="&#x2079;" horiz-adv-x="784" 
d="M172 866q-76 25 -47 105l4 10q18 40 33.5 52.5t46.5 6.5q42 -14 80 -14q81 0 134 54.5t73 142.5h-4q-57 -43 -134 -43q-136 0 -219.5 84t-83.5 211q0 133 85 222t222 89q151 0 253 -113t102 -307q0 -95 -25.5 -185t-75.5 -166t-134 -122.5t-191 -46.5q-61 0 -119 20z
M397 1321q49 0 85 26t36 66q0 66 -43.5 129.5t-107.5 63.5q-55 0 -86 -38.5t-31 -97.5q0 -62 38 -105.5t109 -43.5z" />
    <glyph glyph-name="zeroinferior" unicode="&#x2080;" horiz-adv-x="811" 
d="M406 -342q-332 0 -332 471q0 469 332 469q331 0 331 -469q0 -471 -331 -471zM406 -164q135 0 135 293q0 289 -135 289q-136 0 -136 -289q0 -293 136 -293z" />
    <glyph glyph-name="oneinferior" unicode="&#x2081;" horiz-adv-x="649" 
d="M143 -322q-84 0 -84 80v11q0 79 72 79h115v424q0 15 1.5 29.5t2.5 21.5l2 7h-4q-6 -13 -29 -33l-33 -31q-34 -30 -73 6l-23 23q-55 58 10 117l125 123q49 43 105 43h26q84 0 84 -86v-644h103q84 0 84 -79v-11q0 -80 -84 -80h-400z" />
    <glyph glyph-name="twoinferior" unicode="&#x2082;" horiz-adv-x="751" 
d="M139 -322q-86 0 -86 86q0 71 23.5 130.5t61 100.5t82.5 75.5t90 62t82.5 54t61 58t23.5 66.5q0 47 -36 77t-89 30q-50 0 -104 -39q-36 -25 -61 -27t-56 23l-10 8q-31 28 -32.5 58.5t28.5 58.5q107 98 248 98q128 0 218.5 -75.5t90.5 -203.5q0 -69 -29 -126t-72.5 -93
t-95.5 -70t-96.5 -58.5t-76.5 -56.5t-36 -67h334q86 0 86 -79v-11q0 -80 -86 -80h-463z" />
    <glyph glyph-name="threeinferior" unicode="&#x2083;" horiz-adv-x="741" 
d="M340 -342q-147 0 -254 84q-62 42 -16 111l10 12q22 32 49 35t61 -17q63 -47 140 -47q61 0 103 37t42 92q0 53 -45 85t-104 32h-23q-60 0 -80 47q-19 49 27 98l115 131q7 9 19.5 21.5t21.5 20.5l8 8v4q-41 -6 -72 -6h-180q-84 0 -84 81v11q0 80 84 80h403q41 0 63.5 -16.5
t22.5 -45.5v-12q0 -30 -9 -50t-32 -46l-161 -185q101 -20 162 -87t61 -173q0 -124 -91.5 -214.5t-240.5 -90.5z" />
    <glyph glyph-name="fourinferior" unicode="&#x2084;" horiz-adv-x="804" 
d="M530 -322q-86 0 -86 86v117h-331q-84 0 -84 66v22q0 29 6 45.5t24 44.5l320 463q41 56 102 56h70q41 0 63.5 -22.5t22.5 -63.5v-443h53q72 0 72 -78v-10q0 -80 -72 -80h-53v-117q0 -86 -86 -86h-21zM225 49h219v225q0 24 2 52t4 44l3 17h-4q-25 -55 -54 -96l-170 -238v-4
z" />
    <glyph glyph-name="fiveinferior" unicode="&#x2085;" horiz-adv-x="741" 
d="M346 -342q-126 0 -248 84q-62 45 -12 117l6 8q22 32 50.5 34.5t60.5 -18.5q59 -47 129 -47q64 0 110.5 39t46.5 100t-46.5 101.5t-114.5 40.5q-40 0 -88 -19q-75 -15 -109 0q-53 21 -47 95l31 303q6 82 90 82h334q86 0 86 -80v-9q0 -79 -86 -79h-258l-11 -105l-8 -51
l4 -2q42 16 105 16q138 0 226.5 -85.5t88.5 -209.5q0 -128 -94 -221.5t-246 -93.5z" />
    <glyph glyph-name="sixinferior" unicode="&#x2086;" horiz-adv-x="784" 
d="M420 -342q-149 0 -250.5 112.5t-101.5 307.5q0 95 25.5 185t75.5 166t134 122.5t191 46.5q56 0 118 -20q39 -13 50 -43t-5 -62l-4 -10q-18 -42 -32.5 -54.5t-45.5 -5.5q-4 1 -18.5 5.5t-29 7t-31.5 2.5q-82 0 -135.5 -55.5t-71.5 -143.5h4q49 43 133 43q136 0 219.5 -84
t83.5 -209q0 -133 -86 -222t-223 -89zM418 -164q55 0 86 38t31 97q0 63 -39 106.5t-111 43.5q-48 0 -83.5 -25.5t-35.5 -66.5q0 -65 43.5 -129t108.5 -64z" />
    <glyph glyph-name="seveninferior" unicode="&#x2087;" horiz-adv-x="706" 
d="M170 -322q-51 0 -67.5 29.5t8.5 73.5l301 547l49 78v4q-37 -4 -80 -4h-258q-84 0 -84 81v11q0 80 84 80h475q41 0 62.5 -17.5t21.5 -48.5v-14q0 -56 -27 -103l-358 -657q-29 -60 -100 -60h-27z" />
    <glyph glyph-name="eightinferior" unicode="&#x2088;" horiz-adv-x="802" 
d="M403 -340q-87 0 -162 30.5t-125 96t-50 154.5q0 120 139 227q-99 75 -99 182q0 118 88.5 184t211.5 66q79 0 147 -27.5t113 -86.5t45 -138q0 -25 -7 -51.5t-16 -46.5t-24 -43.5t-24 -35t-22 -27.5l-14 -17q127 -76 127 -203q0 -118 -97 -191t-231 -73zM469 190
q59 66 59 146q0 45 -37 70.5t-85 25.5q-47 0 -80 -23t-33 -67q0 -21 10 -40t21.5 -31t38.5 -28t41.5 -23t51.5 -24q9 -4 13 -6zM401 -174q53 0 94.5 30t41.5 78q0 19 -9 36.5t-21 29.5t-36.5 27t-40.5 22.5t-50 23.5t-50 23q-76 -71 -76 -145q0 -57 44 -91t103 -34z" />
    <glyph glyph-name="nineinferior" unicode="&#x2089;" horiz-adv-x="784" 
d="M172 -322q-76 25 -47 105l4 10q18 40 33.5 53t46.5 7q45 -15 80 -15q81 0 134 54.5t73 142.5h-4q-57 -43 -134 -43q-136 0 -219.5 84t-83.5 211q0 133 85 222t222 89q151 0 253 -113t102 -307q0 -95 -25.5 -185t-75.5 -166t-134 -122.5t-191 -46.5q-61 0 -119 20z
M397 133q49 0 85 26t36 66q0 66 -43.5 129.5t-107.5 63.5q-55 0 -86 -38t-31 -97q0 -62 38 -106t109 -44z" />
    <glyph glyph-name="Euro" unicode="&#x20ac;" horiz-adv-x="1234" 
d="M154 512q-43 0 -60.5 19t-17.5 59t17.5 59t60.5 19h36q-9 52 -2 127h-32q-80 0 -80 79q0 40 18.5 59t61.5 19h61q67 233 259 380t442 147q35 0 131 -11q42 -6 59 -33t6 -69l-20 -76q-20 -74 -86 -65q-50 8 -97 8q-146 0 -254.5 -75.5t-156.5 -205.5h426q50 0 69 -19.5
t11 -60.5t-29.5 -59t-65.5 -18h-448q-10 -62 0 -127h407q96 0 80 -80q-9 -42 -29.5 -59t-64.5 -17h-346q50 -132 160.5 -209.5t251.5 -77.5q48 0 106 8q87 13 98 -63l17 -78q8 -39 -9 -66t-57 -34q-83 -17 -159 -17q-260 0 -448.5 147.5t-252.5 389.5h-63z" />
    <glyph glyph-name="trademark" unicode="&#x2122;" horiz-adv-x="2000" 
d="M942 635l59 737q6 82 89 82h28q73 0 99 -65l159 -363l27 -86h4q15 51 29 86l159 363q26 65 99 65h28q82 0 88 -82l58 -737q3 -88 -82 -88h-27q-80 0 -86 82l-28 385l2 63h-5l-133 -299q-26 -65 -98 -65h-12q-70 0 -96 65l-134 299h-4l2 -63l-30 -385q-6 -82 -88 -82h-25
q-88 0 -82 88zM469 547q-86 0 -86 84v651h-219q-84 0 -84 80v12q0 80 84 80h631q86 0 86 -80v-12q0 -80 -86 -80h-217v-651q0 -84 -84 -84h-25z" />
    <glyph glyph-name="minus" unicode="&#x2212;" horiz-adv-x="1267" 
d="M178 483q-84 0 -84 86v31q0 86 84 86h912q41 0 63.5 -22.5t22.5 -63.5v-31q0 -41 -22.5 -63.5t-63.5 -22.5h-912z" />
    <glyph glyph-name="infinity" unicode="&#x221e;" horiz-adv-x="999" 
d="M502 322q-162 0 -277.5 115.5t-115.5 277.5q0 163 115 277t278 114q161 0 275 -114t114 -277q0 -162 -114 -277.5t-275 -115.5z" />
    <glyph glyph-name="approxequal" unicode="&#x2248;" horiz-adv-x="1267" 
d="M162 731l-10 14q-46 71 16 119q131 103 260 103q53 0 101.5 -15t84 -36t69.5 -42t72.5 -36t78.5 -15q73 0 151 56q75 47 117 -17l10 -14q47 -69 -16 -117q-128 -104 -262 -104q-65 0 -124.5 22.5t-97 49t-87 49t-97.5 22.5q-73 0 -149 -55q-75 -48 -117 16zM162 313
l-10 13q-46 71 16 118q131 103 260 103q53 0 101.5 -15t84 -36t69.5 -42t72.5 -36t78.5 -15q73 0 151 56q75 47 117 -17l10 -12q45 -70 -16 -119q-130 -102 -262 -102q-65 0 -124.5 22.5t-97 49t-87 49t-97.5 22.5q-73 0 -149 -55q-74 -50 -117 16z" />
    <glyph glyph-name="notequal" unicode="&#x2260;" horiz-adv-x="1267" 
d="M309 90q-31 19 -35 48t19 63l53 73h-123q-86 0 -86 84v31q0 86 86 86h254l150 219h-404q-41 0 -63.5 22.5t-22.5 63.5v31q0 84 86 84h537l110 160q47 69 109 28q63 -41 31 -90l-70 -98h113q84 0 84 -84v-31q0 -86 -84 -86h-244l-152 -219h396q84 0 84 -86v-31
q0 -84 -84 -84h-527l-108 -155q-47 -73 -109 -29z" />
    <glyph glyph-name="lessequal" unicode="&#x2264;" horiz-adv-x="1267" 
d="M180 473q-65 26 -65 100v25q0 71 65 100l821 365q44 20 71.5 2t27.5 -66v-47q0 -72 -66 -98l-643 -266v-4l643 -267q66 -26 66 -98v-47q0 -49 -27.5 -67t-71.5 1zM205 -174h811q84 0 84 -86v-31q0 -84 -84 -84h-811q-86 0 -86 84v31q0 41 22.5 63.5t63.5 22.5z" />
    <glyph glyph-name="greaterequal" unicode="&#x2265;" horiz-adv-x="1267" 
d="M168 172v47q0 71 65 98l646 267v4l-646 266q-65 27 -65 98v47q0 48 28 66t72 -2l819 -365q66 -29 66 -100v-25q0 -74 -66 -100l-819 -364q-44 -20 -72 -2t-28 65zM254 -174h811q84 0 84 -86v-31q0 -84 -84 -84h-811q-86 0 -86 84v31q0 41 22.5 63.5t63.5 22.5z" />
    <glyph glyph-name="commaaccent" unicode="&#xf6c3;" horiz-adv-x="686" 
d="M252 -166q0 53 76 53h41q98 0 98 -125q0 -85 -38.5 -148t-90.5 -63h-23q-75 0 -75 48q0 14 11 54.5t11 80.5q0 24 -5 53t-5 47z" />
    <glyph glyph-name="apple" unicode="&#xf8ff;" horiz-adv-x="2314" 
d="M344 -10v311l-258 148v569l258 145v310l543 290l274 -145l271 145l542 -290v-310l254 -145v-569l-254 -148v-311l-542 -289l-271 145l-274 -145zM426 61l487 -258l248 136l242 -136l487 258v285l234 131v510l-234 135v279l-487 258l-242 -131l-248 131l-487 -258v-279
l-233 -135v-510l233 -131v-285zM496 131v248l-203 123v461l203 118v252l440 234l225 -121l219 121l439 -234v-252l204 -118v-461l-204 -123v-248l-439 -233l-219 118l-225 -118zM887 186h203v392h397v172h-397v309h256q26 0 34.5 -11t8.5 -38v-60h182v176q0 56 -23.5 80.5
t-81.5 24.5h-690v-172h111v-873z" />
    <glyph glyph-name="zero.tnum" 
d="M598 -25q-116 0 -207 38.5t-150 106t-97.5 164t-55 206t-16.5 239.5t16.5 239t55 205t97.5 162.5t150 105t207 38.5t207 -38.5t150.5 -105t98.5 -162.5t55.5 -205t16.5 -239t-16.5 -239.5t-55.5 -206t-98.5 -164t-150.5 -106t-207 -38.5zM598 217q256 0 256 512
q0 506 -256 506t-256 -506q0 -512 256 -512z" />
    <glyph glyph-name="one.tnum" 
d="M180 86v57q0 84 84 84h232v807l2 99h-4q-19 -39 -56 -74l-63 -62q-64 -57 -119 4l-39 41q-59 60 2 121l258 248q49 43 107 43h86q84 0 84 -86v-1141h229q86 0 86 -84v-57q0 -86 -86 -86h-719q-84 0 -84 86z" />
    <glyph glyph-name="two.tnum" 
d="M104 86v43q0 106 37.5 198.5t97.5 158.5t132.5 124t145 107t132.5 95.5t97.5 101t37.5 112.5q0 93 -63 148t-158 55q-125 0 -215 -109q-65 -65 -121 -18l-55 43q-68 52 -22 115q28 38 62.5 71t88 69t127.5 57.5t158 21.5q129 0 235 -49.5t172 -148.5t66 -232
q0 -95 -36 -177.5t-93.5 -142.5t-127.5 -113t-140.5 -98.5t-129.5 -89t-97 -95t-40 -106.5h600q86 0 86 -84v-57q0 -86 -86 -86h-798q-41 0 -67 22.5t-26 63.5z" />
    <glyph glyph-name="three.tnum" 
d="M135 117q-66 50 -16 119l41 63q43 66 116 18q132 -92 263 -92q114 0 188 61.5t74 155.5q0 110 -88 168t-224 58h-30q-67 0 -94 59l-9 16q-28 58 19 111l223 264q24 30 50 58t40 40l14 13v4q-45 -6 -129 -6h-350q-84 0 -84 84v57q0 86 84 86h717q86 0 86 -84v-22
q0 -63 -39 -105l-317 -366q78 -11 148 -43.5t126.5 -84t89.5 -128.5t33 -168q0 -94 -35 -179.5t-98.5 -152.5t-162 -106.5t-216.5 -39.5q-227 0 -420 142z" />
    <glyph glyph-name="four.tnum" 
d="M100 375q-84 0 -84 84v20q0 61 31 105l561 815q35 55 103 55h159q86 0 86 -86v-774h103q86 0 86 -84v-51q0 -84 -70 -84h-119v-289q0 -86 -86 -86h-90q-84 0 -84 86v289h-596zM295 594h401v450q0 32 3 70t5 60l3 22h-5q-32 -78 -71 -133l-336 -465v-4z" />
    <glyph glyph-name="five.tnum" 
d="M154 121q-30 23 -33.5 55t20.5 62l41 61q44 67 117 16q114 -90 242 -90q111 0 191.5 68.5t80.5 179.5q0 113 -82.5 182.5t-208.5 69.5q-76 0 -168 -37q-64 -22 -114 -4l-19 6q-69 26 -63 103l53 579q6 82 88 82h598q86 0 86 -86v-57q0 -84 -86 -84h-451l-22 -240
q-1 -17 -3.5 -34t-4.5 -25l-2 -8h4q67 32 155 32q234 0 373 -137t139 -340q0 -215 -149 -357.5t-375 -142.5q-228 0 -407 146z" />
    <glyph glyph-name="six.tnum" 
d="M86 657q0 120 26 237t81 223t132.5 186.5t189 128t241.5 47.5q122 0 219 -33q79 -25 51 -109l-25 -67q-13 -41 -37 -52.5t-63 -3.5q-74 21 -131 21q-85 0 -154.5 -33t-116 -90.5t-76 -127t-44.5 -150.5h4q38 48 115.5 81t177.5 33q134 0 238 -64t158 -169.5t54 -233.5
q0 -137 -58.5 -252t-169 -184.5t-251.5 -69.5q-114 0 -215.5 47t-178.5 132.5t-122 216t-45 286.5zM360 561q0 -75 36 -153.5t104 -134.5t147 -56q99 0 159 69.5t60 178.5q0 115 -71.5 190.5t-206.5 75.5q-98 0 -163 -47.5t-65 -122.5z" />
    <glyph glyph-name="seven.tnum" 
d="M246 100l495 994q20 40 40.5 73t30.5 47l11 13v4q-22 -4 -94 -4h-536q-84 0 -84 84v57q0 86 84 86h829q86 0 86 -84v-45q0 -55 -25 -104l-581 -1160q-33 -61 -103 -61h-92q-49 0 -66 28t5 72z" />
    <glyph glyph-name="eight.tnum" 
d="M78 412q0 61 19.5 119.5t45 98t60.5 77t56 54.5t42 32q-166 119 -166 290q0 76 29 145.5t84.5 126t146.5 90.5t205 34q208 0 342.5 -108t134.5 -286q0 -65 -20 -129t-51 -112.5t-52.5 -76t-40.5 -46.5q201 -120 201 -315q0 -83 -35.5 -160t-99.5 -137.5t-163.5 -97
t-217.5 -36.5q-231 0 -375.5 127t-144.5 310zM725 813q1 1 10.5 14.5t14.5 20.5t15.5 24t16.5 30t14.5 32.5t13 37.5t8 39.5t3.5 43.5q0 92 -59 143t-160 51q-100 0 -154.5 -48t-54.5 -122q0 -21 5 -40t12 -34.5t22 -31.5t27 -27t35.5 -25t38 -22.5t44.5 -22t46 -20.5
t51 -21.5t51 -21.5zM342 440q0 -104 75 -169.5t183 -65.5q101 0 172.5 58t71.5 147q0 26 -8 48.5t-19 40t-34 35.5t-42 30.5t-54.5 30t-60.5 28t-71.5 30.5t-75.5 33q-62 -56 -89 -95q-48 -71 -48 -151z" />
    <glyph glyph-name="nine.tnum" 
d="M172 115l25 69q13 40 36.5 51.5t63.5 4.5q85 -23 131 -23q85 0 154.5 33.5t116 91.5t76 128t44.5 151h-4q-39 -51 -120.5 -84t-176.5 -33q-129 0 -232.5 65.5t-158.5 174t-55 237.5q0 136 58.5 249t168.5 181t250 68q115 0 217 -47t179 -132.5t122 -216t45 -286.5
q0 -120 -26 -236.5t-80.5 -222.5t-132 -186.5t-189 -128.5t-242.5 -48q-122 0 -219 33q-79 25 -51 107zM610 721q98 0 163 48t65 124q0 55 -22 115t-59 110.5t-91.5 83.5t-114.5 33q-99 0 -158 -69t-59 -179q0 -114 71 -190t205 -76z" />
    <glyph glyph-name="hyphen.case" horiz-adv-x="851" 
d="M203 598q-84 0 -84 86v57q0 84 84 84h446q84 0 84 -84v-57q0 -86 -84 -86h-446z" />
    <glyph glyph-name="parenleft.case" horiz-adv-x="583" 
d="M301 -82q-213 384 -213 846q0 402 207 758q33 57 102 57h39q50 0 66.5 -27t-6.5 -73q-177 -352 -177 -717q0 -411 183 -795q21 -44 4 -72t-66 -28h-43q-68 0 -96 51z" />
    <glyph glyph-name="parenright.case" horiz-adv-x="583" 
d="M82 -29q180 384 180 791q0 373 -176 717q-24 46 -9 73t64 27h43q70 0 103 -57q209 -360 209 -758q0 -227 -55.5 -442t-155.5 -398q-32 -57 -101 -57h-41q-50 0 -66 29t5 75z" />
    <glyph glyph-name="bracketleft.case" horiz-adv-x="620" 
d="M147 -47v1542q0 84 86 84h234q86 0 86 -84v-18q0 -41 -21 -63.5t-59 -22.5h-102v-1336h96q41 0 63.5 -22.5t22.5 -63.5v-16q0 -86 -86 -86h-234q-86 0 -86 86z" />
    <glyph glyph-name="bracketright.case" horiz-adv-x="620" 
d="M70 -31q0 86 84 86h98v1336h-98q-84 0 -84 86v18q0 84 84 84h235q84 0 84 -84v-1542q0 -86 -84 -86h-235q-84 0 -84 86v16z" />
    <glyph glyph-name="braceleft.case" horiz-adv-x="702" 
d="M223 207v199q0 134 -104 192q-38 22 -54 40.5t-16 53.5v80q0 35 15.5 53t52.5 43q43 18 74.5 65.5t31.5 129.5v174q0 84 24.5 149.5t60 101.5t81.5 59.5t81.5 30.5t66.5 7h26q86 0 86 -86v-31q0 -84 -86 -84q-119 0 -119 -174v-215q0 -57 -17.5 -105t-42 -75.5t-49 -46.5
t-41.5 -26l-18 -7v-4q7 -2 18 -6.5t40 -24t51.5 -45.5t40.5 -74.5t18 -107.5v-240q0 -172 119 -172q41 0 63.5 -22.5t22.5 -63.5v-30q0 -41 -22.5 -63.5t-63.5 -22.5h-26q-31 0 -67 7.5t-81.5 30.5t-81 59.5t-60 101.5t-24.5 149z" />
    <glyph glyph-name="braceright.case" horiz-adv-x="704" 
d="M53 -25q0 41 22.5 63.5t63.5 22.5q119 0 119 172v240q0 59 17.5 107.5t42 75t49 45t41.5 24.5l18 6v4q-7 2 -18 7t-40 25.5t-51.5 47t-40.5 75t-18 105.5v215q0 174 -119 174q-86 0 -86 84v31q0 86 86 86h27q31 0 66.5 -7t81 -30.5t81 -59.5t60 -101.5t24.5 -149.5v-174
q0 -82 31.5 -129t75.5 -66q37 -24 52 -42.5t15 -53.5v-80q0 -35 -15.5 -53.5t-53.5 -40.5q-105 -58 -105 -192v-199q0 -84 -24.5 -149t-60 -101.5t-81 -59.5t-81 -30.5t-66.5 -7.5h-27q-41 0 -63.5 22.5t-22.5 63.5v30z" />
    <glyph glyph-name="at.case" horiz-adv-x="1576" 
d="M61 721q0 157 60 298.5t163 243.5t246.5 162t303.5 60q122 0 219 -24t160.5 -65t105.5 -99t60 -122t18 -137v-512h63q84 0 84 -84v-16q0 -86 -84 -86h-481q-100 0 -184.5 32t-139.5 85t-85.5 121.5t-30.5 142.5q0 154 119 264.5t321 110.5h172q-1 79 -88 129.5t-221 50.5
q-145 0 -266 -78t-189 -205t-68 -272q0 -210 129.5 -364t344.5 -181q81 -12 81 -88v-33q0 -42 -23 -64t-65 -18q-214 18 -380 121t-255.5 267t-89.5 360zM797 727q0 -85 54.5 -143t143.5 -58h156v402h-152q-91 0 -146.5 -58t-55.5 -143z" />
    <glyph glyph-name="guillemotleft.case" horiz-adv-x="1126" 
d="M553 641q-50 59 0 119l248 313q43 49 104 49h49q55 0 70.5 -30.5t-18.5 -73.5l-252 -318l252 -315q34 -43 22 -73.5t-63 -30.5h-60q-61 0 -104 49zM340 330l-248 311q-50 60 0 119l248 313q43 49 104 49h52q54 0 68.5 -30.5t-19.5 -73.5l-252 -318l252 -315
q34 -43 22.5 -73.5t-61.5 -30.5h-62q-61 0 -104 49z" />
    <glyph glyph-name="guillemotright.case" horiz-adv-x="1126" 
d="M582 385l252 315l-252 318q-35 43 -23.5 73.5t62.5 30.5h61q62 0 102 -49l248 -313q50 -59 0 -119l-248 -311q-40 -49 -102 -49h-51q-55 0 -69 30.5t20 73.5zM170 281q-55 0 -69 30.5t20 73.5l252 315l-252 318q-35 43 -22.5 73.5t63.5 30.5h59q62 0 105 -49l245 -313
q50 -59 0 -119l-245 -311q-43 -49 -105 -49h-51z" />
    <glyph glyph-name="guilsinglleft.case" horiz-adv-x="665" 
d="M340 330l-248 311q-50 60 0 119l248 313q43 49 104 49h52q54 0 68.5 -30.5t-19.5 -73.5l-252 -318l252 -315q34 -43 22.5 -73.5t-61.5 -30.5h-62q-61 0 -104 49z" />
    <glyph glyph-name="guilsinglright.case" horiz-adv-x="665" 
d="M170 281q-55 0 -69 30.5t20 73.5l252 315l-252 318q-35 43 -22.5 73.5t63.5 30.5h59q62 0 105 -49l245 -313q50 -59 0 -119l-245 -311q-43 -49 -105 -49h-51z" />
    <glyph glyph-name="endash.case" horiz-adv-x="1368" 
d="M201 606q-84 0 -84 86v31q0 86 84 86h964q41 0 63.5 -22.5t22.5 -63.5v-31q0 -41 -22.5 -63.5t-63.5 -22.5h-964z" />
    <glyph glyph-name="emdash.case" horiz-adv-x="1777" 
d="M201 606q-84 0 -84 86v31q0 86 84 86h1374q41 0 63.5 -22.5t22.5 -63.5v-31q0 -41 -22.5 -63.5t-63.5 -22.5h-1374z" />
    <glyph glyph-name="periodcentered.case" horiz-adv-x="487" 
d="M203 578q-84 0 -84 86v88q0 86 84 86h80q86 0 86 -86v-88q0 -86 -86 -86h-80z" />
    <glyph glyph-name="questiondown.case" horiz-adv-x="876" 
d="M565 1032q86 0 86 -84v-33q0 -61 -25 -115.5t-62.5 -92.5t-81.5 -79t-81.5 -75t-62.5 -79.5t-25 -94.5q0 -72 57 -121t142 -49q68 0 152 41q81 43 122 -21l35 -51q52 -71 -14 -115q-140 -94 -318 -94q-117 0 -218 44.5t-165.5 134t-64.5 206.5q0 65 18.5 122t48 98.5
t65.5 78.5t73.5 70t69 64.5t54 70t27.5 80.5l4 35q7 32 26 45.5t56 13.5h82zM651 1366v-72q0 -41 -22.5 -63.5t-63.5 -22.5h-82q-84 0 -84 86v72q0 86 84 86h82q86 0 86 -86z" />
    <glyph glyph-name="exclamdown.case" horiz-adv-x="550" 
d="M305 1032q83 0 86 -84l17 -862q0 -88 -84 -88h-97q-42 0 -63.5 23t-20.5 65l17 862q0 84 86 84h59zM399 1366v-72q0 -86 -84 -86h-82q-41 0 -63.5 22.5t-22.5 63.5v72q0 86 86 86h82q84 0 84 -86z" />
    <glyph glyph-name="bullet.case" horiz-adv-x="870" 
d="M436 383q-141 0 -241.5 100.5t-100.5 241.5t100.5 241.5t241.5 100.5t241.5 -100.5t100.5 -241.5t-100.5 -241.5t-241.5 -100.5z" />
    <glyph glyph-name="zero.p_osf" horiz-adv-x="1243" 
d="M117 561q0 91 18.5 175t58.5 160t98 132.5t143 89.5t188 33q102 0 187 -33.5t142.5 -90t97.5 -133t58 -160.5t18 -175q0 -114 -30 -216t-89 -186t-158 -133t-226 -49q-128 0 -227.5 50t-159 134t-89.5 186t-30 216zM379 563q0 -71 14 -134.5t42 -116.5t76.5 -84
t111.5 -31q83 0 139 54.5t79 133.5t23 176q0 71 -13.5 135t-41 117.5t-75.5 85t-111 31.5q-84 0 -141 -55.5t-80 -135t-23 -176.5z" />
    <glyph glyph-name="one.p_osf" horiz-adv-x="991" 
d="M113 86v49q0 86 84 86h219v510l2 133h-4q-31 -32 -78 -61l-86 -51q-70 -43 -117 26l-27 39q-47 68 27 117l262 162q43 30 105 30h84q84 0 84 -86v-819h194q84 0 84 -86v-49q0 -86 -84 -86h-665q-84 0 -84 86z" />
    <glyph glyph-name="two.p_osf" horiz-adv-x="1132" 
d="M111 86v23q0 63 57 102q120 79 208 143.5t169 137t123.5 140t42.5 126.5q0 83 -57.5 124.5t-139.5 41.5q-109 0 -231 -93q-69 -51 -119 11l-31 39q-54 67 8 118q185 152 408 152q179 0 302.5 -98t123.5 -260q0 -89 -35.5 -169.5t-105 -151.5t-149.5 -129.5t-193 -125.5
v-4q45 8 129 8h321q41 0 63.5 -22.5t22.5 -63.5v-49q0 -86 -86 -86h-745q-86 0 -86 86z" />
    <glyph glyph-name="three.p_osf" horiz-adv-x="1077" 
d="M96 29q42 64 119 18q117 -88 248 -88q114 0 188 58t74 153q0 57 -27.5 101t-72.5 70t-97.5 39t-107.5 13h-43q-70 0 -98 64q-26 66 16 116l199 230q24 29 50 55t40 38l14 11v4q-45 -8 -129 -8h-283q-84 0 -84 86v51q0 86 84 86h670q86 0 86 -75v-15q0 -59 -41 -106
l-319 -350q77 -10 147 -38.5t129 -75.5t94 -119.5t35 -160.5q0 -92 -35.5 -173.5t-100.5 -142.5t-163 -96.5t-217 -35.5q-215 0 -387 129q-32 23 -36 55t20 64z" />
    <glyph glyph-name="four.p_osf" horiz-adv-x="1220" 
d="M47 143v29q0 48 29 96l528 801q32 57 101 57h172q84 0 84 -86v-759h110q84 0 84 -86v-50q0 -41 -18 -63.5t-50 -22.5h-126v-211q0 -86 -84 -86h-91q-84 0 -84 86v211h-571q-84 0 -84 84zM324 281h378v444q0 32 3 70t5 60l3 22h-4q-35 -81 -72 -138z" />
    <glyph glyph-name="five.p_osf" horiz-adv-x="1095" 
d="M94 -8l29 43q41 64 117 16q113 -84 237 -84q111 0 195 61.5t84 172.5q0 113 -82 177t-201 64q-84 0 -174 -34q-62 -18 -115 0l-16 6q-66 26 -57 98l53 532q6 82 88 82h571q84 0 84 -86v-51q0 -86 -84 -86h-432l-22 -221q-1 -16 -3.5 -32t-5.5 -24l-2 -8h4q72 29 158 29
q225 0 362.5 -121.5t137.5 -312.5q0 -212 -147 -339.5t-377 -127.5q-213 0 -385 129q-68 47 -17 117z" />
    <glyph glyph-name="six.p_osf" horiz-adv-x="1216" 
d="M102 606q0 114 25 224t78 211.5t129 178.5t186 123t240 46q125 0 215 -31q80 -23 49 -109l-16 -49q-25 -67 -103 -51q-3 1 -31 7t-49.5 8.5t-48.5 2.5q-70 0 -130 -22.5t-103 -60t-76 -88.5t-52.5 -105t-29.5 -113h4q39 48 121.5 79.5t177.5 31.5q193 0 316.5 -128
t123.5 -315q0 -96 -33.5 -181.5t-94 -150t-151 -102t-196.5 -37.5q-113 0 -212.5 43t-175 121.5t-119.5 199.5t-44 267zM371 520q0 -70 34.5 -143.5t101.5 -126.5t146 -53q101 0 158 66t57 171q0 110 -69 180t-203 70q-97 0 -161 -45.5t-64 -118.5z" />
    <glyph glyph-name="seven.p_osf" horiz-adv-x="1073" 
d="M201 -137l467 919q19 38 38 69.5t28 43.5l9 12v4q-41 -6 -94 -6h-508q-84 0 -84 86v49q0 86 84 86h805q86 0 86 -84v-34q0 -54 -26 -105l-551 -1079q-33 -62 -103 -62h-90q-49 0 -66 28.5t5 72.5z" />
    <glyph glyph-name="eight.p_osf" horiz-adv-x="1220" 
d="M100 395q0 52 20 103t43 85.5t62.5 72.5t56.5 51.5t46 35.5q-164 108 -164 271q0 73 28 138.5t82 118.5t142.5 84t199.5 31q201 0 331 -101.5t130 -274.5q0 -162 -155 -334l-4 -4q194 -105 194 -289q0 -80 -34.5 -153t-97.5 -130t-159.5 -91t-212.5 -34q-226 0 -367 121
t-141 299zM731 764q1 2 12.5 17t20 27t21.5 35t21 44t14.5 49.5t6.5 56.5q0 79 -58.5 126.5t-154.5 47.5q-95 0 -147.5 -44t-52.5 -113q0 -42 22 -76.5t64.5 -61.5t86.5 -47.5t106 -45.5q25 -10 38 -15zM358 416q0 -96 74 -158.5t176 -62.5q103 0 172.5 54t69.5 142
q0 26 -9.5 48.5t-30.5 42t-42 35t-58 33.5t-63 29.5t-72.5 30.5t-72.5 31q-144 -107 -144 -225z" />
    <glyph glyph-name="nine.p_osf" horiz-adv-x="1216" 
d="M205 -76q27 71 92 58q8 -1 30 -7.5t49.5 -11t59.5 -4.5q70 0 130 22.5t103 60t76 88.5t52.5 105t29.5 113h-4q-38 -50 -120 -80t-179 -30q-193 0 -316.5 128t-123.5 314q0 96 33.5 181.5t94 150t151 102t196.5 37.5q113 0 212 -43t174.5 -121.5t119 -199.5t43.5 -267
q0 -114 -24.5 -224t-77.5 -211.5t-128 -178t-185 -122.5t-240 -46q-113 0 -215 29q-80 23 -52 108zM616 442q97 0 161.5 45t64.5 117q0 52 -21 109t-57 105.5t-91 80t-116 31.5q-99 0 -156 -66.5t-57 -171.5q0 -110 69 -180t203 -70z" />
    <glyph glyph-name="zero.t_osf" 
d="M94 561q0 91 18.5 175t58.5 160t98 132.5t143 89.5t188 33q102 0 187 -33.5t143 -90t98 -133t58 -160.5t18 -175q0 -90 -18.5 -174t-58 -159t-97.5 -130.5t-143 -88t-187 -32.5q-128 0 -227.5 50t-159 134t-89.5 186t-30 216zM356 563q0 -71 14 -134.5t42 -116.5
t76.5 -84t111.5 -31t111 31t75.5 83.5t41.5 115.5t14 134q0 97 -23 177t-79.5 136t-139.5 56q-84 0 -141 -55.5t-80 -135t-23 -176.5z" />
    <glyph glyph-name="one.t_osf" 
d="M211 86v49q0 86 84 86h219v510l2 133h-4q-31 -32 -78 -61l-86 -51q-70 -43 -117 26l-26 39q-47 69 26 117l263 162q43 30 104 30h84q84 0 84 -86v-819h195q83 0 83 -86v-49q0 -86 -83 -86h-666q-84 0 -84 86z" />
    <glyph glyph-name="two.t_osf" 
d="M139 86v23q0 62 58 102q120 78 208 143t168.5 137.5t123 140t42.5 126.5q0 83 -57 124.5t-139 41.5q-110 0 -232 -93q-68 -50 -118 11l-31 39q-54 67 8 118q185 152 408 152q179 0 302.5 -98t123.5 -260q0 -89 -35.5 -169.5t-105.5 -151.5t-150 -129.5t-193 -125.5v-4
q45 8 129 8h322q41 0 63.5 -22.5t22.5 -63.5v-49q0 -86 -86 -86h-746q-86 0 -86 86z" />
    <glyph glyph-name="three.t_osf" 
d="M154 31q42 63 118 18q117 -88 248 -88q114 0 188 58t74 153q0 57 -27.5 101t-72.5 70t-97.5 39t-107.5 13h-43q-70 0 -98 64q-26 66 16 116l199 230q24 29 50 55t40 38l14 11v4q-45 -8 -129 -8h-282q-84 0 -84 86v51q0 86 84 86h669q86 0 86 -75v-15q0 -59 -41 -106
l-319 -350q77 -10 147 -38.5t129 -75.5t94 -119.5t35 -160.5q0 -92 -35.5 -173.5t-100.5 -142.5t-163 -96.5t-217 -35.5q-215 0 -387 129q-32 23 -36 55t20 64z" />
    <glyph glyph-name="four.t_osf" 
d="M35 143v29q0 50 28 96l529 801q32 57 100 57h172q84 0 84 -86v-759h111q84 0 84 -86v-50q0 -41 -18 -63.5t-50 -22.5h-127v-211q0 -86 -84 -86h-90q-84 0 -84 86v211h-571q-84 0 -84 84zM311 281h379v444q0 32 2.5 70t5.5 60l2 22h-4q-34 -81 -71 -138z" />
    <glyph glyph-name="five.t_osf" 
d="M143 -8l29 43q41 64 117 16q113 -84 237 -84q111 0 195 61.5t84 172.5q0 113 -82 177t-201 64q-84 0 -174 -34q-62 -18 -115 0l-16 6q-66 26 -57 98l53 532q6 82 88 82h571q84 0 84 -86v-51q0 -86 -84 -86h-432l-22 -221q-1 -16 -3.5 -32t-4.5 -24l-2 -8h4q71 29 157 29
q225 0 362.5 -121.5t137.5 -312.5q0 -212 -147 -339.5t-377 -127.5q-213 0 -385 129q-68 47 -17 117z" />
    <glyph glyph-name="six.t_osf" 
d="M96 606q0 114 25 224t78 211.5t129 178.5t186 123t240 46q125 0 215 -31q80 -23 49 -109l-17 -49q-14 -38 -39 -48.5t-63 -2.5q-3 1 -31 7t-49.5 8.5t-48.5 2.5q-70 0 -130 -22.5t-103 -60t-76 -88.5t-52.5 -105t-29.5 -113h4q39 48 121.5 79.5t177.5 31.5
q193 0 316.5 -128t123.5 -315q0 -96 -33.5 -181.5t-94 -150t-151 -102t-196.5 -37.5q-113 0 -212.5 43t-175 121.5t-119.5 199.5t-44 267zM365 520q0 -70 34.5 -143.5t101.5 -126.5t146 -53q101 0 158 66t57 171q0 110 -69 180t-203 70q-97 0 -161 -45.5t-64 -118.5z" />
    <glyph glyph-name="seven.t_osf" 
d="M258 -137l467 919q19 38 38 69.5t29 43.5l9 12v4q-41 -6 -94 -6h-508q-84 0 -84 86v49q0 86 84 86h805q86 0 86 -84v-34q0 -52 -27 -105l-551 -1079q-33 -62 -102 -62h-91q-49 0 -66 28.5t5 72.5z" />
    <glyph glyph-name="eight.t_osf" 
d="M90 395q0 52 19.5 103t43 85.5t62 72.5t56 52t46.5 35q-163 107 -163 271q0 73 28 138.5t82 118.5t142.5 84t199.5 31q201 0 331 -101.5t130 -274.5q0 -25 -4.5 -51t-11 -49t-17 -46.5t-20.5 -42.5t-22.5 -39t-23 -34.5t-22 -29t-18 -22.5t-14.5 -16l-7 -8
q195 -105 195 -289q0 -80 -34.5 -153t-97.5 -130t-159.5 -91t-212.5 -34q-226 0 -367 121t-141 299zM721 764q1 2 12.5 17t20 27t21.5 35t21 44t14.5 49.5t6.5 56.5q0 79 -58.5 126.5t-154.5 47.5q-95 0 -148 -44t-53 -113q0 -24 9 -46.5t19.5 -39t36.5 -35.5t42 -30
t54.5 -28.5t55.5 -25t62 -25.5q26 -11 39 -16zM348 416q0 -96 74 -158.5t176 -62.5q103 0 172.5 54t69.5 142q0 26 -9.5 48.5t-30.5 42t-42 35t-58 33.5t-63 29.5t-72.5 30.5t-72.5 31q-144 -107 -144 -225z" />
    <glyph glyph-name="nine.t_osf" 
d="M193 -76q27 71 92 58q8 -1 30 -7.5t49.5 -11t59.5 -4.5q70 0 130 22.5t103 60t76 88.5t52.5 105t29.5 113h-4q-38 -50 -120 -80t-179 -30q-193 0 -316.5 128t-123.5 314q0 96 33.5 181.5t94 150t151 102t196.5 37.5q113 0 212 -43t174.5 -121.5t119 -199.5t43.5 -267
q0 -114 -24.5 -224t-77.5 -211.5t-128.5 -178t-185.5 -122.5t-240 -46q-114 0 -215 29q-79 23 -51 108zM604 442q97 0 161 45t64 117q0 71 -34.5 145t-102 127.5t-147.5 53.5q-99 0 -156 -66.5t-57 -171.5q0 -110 69 -180t203 -70z" />
    <glyph glyph-name="dollar.osf" horiz-adv-x="1052" 
d="M121 119q-61 49 -17 119l35 53q47 67 117 16q134 -100 256 -100q85 0 135.5 33.5t50.5 93.5q0 36 -33 65.5t-85 53t-115.5 48.5t-127 57t-115.5 71.5t-85 101t-33 137.5q0 136 95.5 225t249.5 113v99q0 84 81 84h15q80 0 80 -72v-109q143 -14 254 -82q60 -38 28 -114
l-26 -58q-36 -73 -115 -28q-103 57 -205 57q-186 0 -186 -127q0 -34 33 -62.5t85 -50.5t115.5 -45.5t127 -55t115.5 -71t85 -102t33 -139.5q0 -132 -96 -227.5t-257 -118.5v-107q0 -84 -79 -84h-15q-82 0 -82 72v117q-172 20 -319 137z" />
    <glyph glyph-name="cent.osf" horiz-adv-x="1107" 
d="M502 27v86q-192 36 -306 173.5t-114 325.5q0 187 114.5 325.5t305.5 174.5v88q0 84 84 84h12q86 0 86 -61v-101q145 -15 283 -108q32 -23 36.5 -55t-18.5 -64l-31 -47q-23 -35 -51.5 -39t-64.5 18q-87 68 -191 68q-138 0 -222.5 -81t-84.5 -198q0 -121 84 -202.5
t223 -81.5q104 0 191 65q74 47 116 -20l31 -47q47 -70 -18 -117q-138 -98 -283 -109v-77q0 -84 -86 -84h-12q-84 0 -84 84z" />
    <glyph glyph-name="sterling.osf" horiz-adv-x="1216" 
d="M109 86v49q0 41 21 63.5t58 22.5h41v264h-26q-72 0 -72 80v13q0 79 72 79h26v144q0 178 139 295.5t343 117.5q164 0 299 -73q37 -18 45 -50t-15 -65l-30 -51q-41 -63 -115 -33q-93 41 -178 41q-96 0 -160.5 -54t-64.5 -132v-140h329q84 0 84 -79v-13q0 -80 -84 -80h-329
v-264h550q86 0 86 -86v-49q0 -86 -86 -86h-847q-86 0 -86 86z" />
    <glyph glyph-name="yen.osf" horiz-adv-x="1243" 
d="M238 270q-84 0 -84 72v12q0 72 84 72h249v33l-75 129h-174q-84 0 -84 71v13q0 71 84 71h84l-205 347q-26 43 -9 71.5t68 28.5h113q69 0 98 -62l141 -262q20 -39 42 -89t34 -81l12 -30h5q45 112 88 200l143 262q29 62 98 62h113q51 0 67 -28.5t-10 -71.5l-202 -347h92
q86 0 86 -71v-13q0 -71 -86 -71h-185l-73 -129v-33h258q86 0 86 -72v-12q0 -72 -86 -72h-258v-184q0 -86 -86 -86h-93q-86 0 -86 86v184h-249z" />
    <glyph glyph-name="florin.osf" horiz-adv-x="829" 
d="M-12 -35q8 0 27 -1t34 -1q26 0 50 3.5t54.5 15.5t53 31.5t40 55.5t21.5 83l39 440h-69q-86 0 -86 86v35q0 41 22.5 63.5t63.5 22.5h86l18 202q9 98 46.5 171.5t85.5 113.5t111.5 64.5t113.5 31.5t102 7q20 0 57 -3.5t39 -3.5q80 -6 80 -90v-51q0 -42 -17 -63.5t-47 -18.5
q-47 6 -96 6q-27 0 -51 -3.5t-54.5 -15t-53 -31t-39.5 -55.5t-21 -83l-18 -178h139q84 0 84 -86v-35q0 -86 -84 -86h-158l-39 -465q-9 -98 -46.5 -172t-85 -113.5t-111 -64t-112.5 -31t-101 -6.5q-28 0 -74 4q-80 6 -80 90v51q0 42 20.5 63.5t55.5 16.5z" />
    <glyph glyph-name="Euro.osf" horiz-adv-x="1181" 
d="M166 393q-84 0 -84 64v18q0 62 84 62h47q-6 42 -2 112h-45q-84 0 -84 64v16q0 64 84 64h70q28 88 80 162.5t129 133.5t185 92t236 33q40 0 117 -10q41 -4 58 -31t6 -69l-13 -45q-18 -76 -80 -66q-50 8 -92 8q-129 0 -218.5 -57.5t-131.5 -150.5h367q44 0 64 -18t15 -52
l-2 -10q-7 -34 -29 -49t-61 -15h-393q-7 -43 2 -112h356q45 0 65.5 -18t14.5 -52l-2 -10q-14 -64 -88 -64h-293q42 -90 130.5 -145t211.5 -55q47 0 97 8q86 12 100 -66l8 -45q8 -41 -8.5 -67.5t-56.5 -32.5q-66 -15 -144 -15q-242 0 -402.5 117t-223.5 301h-74z" />
    <glyph glyph-name="zero.numerator" horiz-adv-x="811" 
d="M406 537q-332 0 -332 471q0 469 332 469q331 0 331 -469q0 -471 -331 -471zM406 715q135 0 135 293q0 288 -135 288q-136 0 -136 -288q0 -293 136 -293z" />
    <glyph glyph-name="one.numerator" horiz-adv-x="651" 
d="M143 557q-84 0 -84 80v10q0 80 72 80h115v424q0 15 1.5 29t2.5 21l2 7h-4q-6 -12 -29 -32l-33 -31q-34 -30 -73 6l-23 23q-55 58 10 116l125 123q49 43 105 43h26q84 0 84 -86v-643h103q84 0 84 -80v-10q0 -80 -84 -80h-400z" />
    <glyph glyph-name="two.numerator" horiz-adv-x="751" 
d="M139 557q-86 0 -86 86q0 71 23.5 130.5t61 100.5t82.5 75.5t90 62t82.5 54t61 58t23.5 66.5q0 47 -36 76.5t-89 29.5q-50 0 -104 -39q-36 -25 -61 -27t-56 23l-10 9q-66 60 -4 116q108 99 248 99q128 0 218.5 -75.5t90.5 -203.5q0 -69 -29 -126t-72.5 -93t-95.5 -70
t-96.5 -58.5t-76.5 -56.5t-36 -67h334q86 0 86 -80v-10q0 -80 -86 -80h-463z" />
    <glyph glyph-name="three.numerator" horiz-adv-x="741" 
d="M340 537q-147 0 -254 84q-62 42 -16 110l10 12q22 32 49 35.5t61 -16.5q63 -47 140 -47q61 0 103 37t42 92q0 53 -45 85t-104 32h-23q-60 0 -80 47q-19 49 27 98l115 131q7 9 19.5 21t21.5 20l8 8v4q-41 -6 -72 -6h-180q-84 0 -84 82v10q0 80 84 80h403q86 0 86 -61v-13
q0 -30 -9 -50t-32 -46l-161 -184q101 -20 162 -87t61 -173q0 -124 -91.5 -214.5t-240.5 -90.5z" />
    <glyph glyph-name="four.numerator" horiz-adv-x="806" 
d="M530 557q-86 0 -86 86v117h-331q-84 0 -84 65v23q0 29 6 45.5t24 44.5l320 463q40 55 102 55h70q41 0 63.5 -22.5t22.5 -63.5v-442h53q72 0 72 -78v-10q0 -80 -72 -80h-53v-117q0 -86 -86 -86h-21zM225 928h219v225q0 24 2 52t4 45l3 16h-4q-25 -56 -54 -97l-170 -237v-4
z" />
    <glyph glyph-name="five.numerator" horiz-adv-x="741" 
d="M346 537q-126 0 -248 84q-61 44 -12 116l6 8q22 32 50 34.5t61 -17.5q59 -47 129 -47q64 0 110.5 39t46.5 100t-46.5 101t-114.5 40q-43 0 -88 -18q-75 -15 -109 0q-53 21 -47 94l31 303q6 82 90 82h334q86 0 86 -80v-8q0 -80 -86 -80h-258l-11 -104l-8 -51l4 -3
q42 17 105 17q138 0 226.5 -85.5t88.5 -209.5q0 -128 -94 -221.5t-246 -93.5z" />
    <glyph glyph-name="six.numerator" horiz-adv-x="780" 
d="M420 537q-149 0 -250.5 112t-101.5 307q0 95 25.5 185t75.5 166.5t134 123t191 46.5q52 0 118 -21q39 -13 50 -42.5t-5 -61.5l-4 -11q-18 -42 -32.5 -54t-45.5 -5q-2 1 -18 5t-30 6.5t-31 2.5q-82 0 -135.5 -55t-71.5 -143h4q49 43 133 43q136 0 219.5 -83.5t83.5 -209.5
q0 -133 -86 -222t-223 -89zM418 715q55 0 86 38t31 97q0 63 -38.5 106t-111.5 43q-48 0 -83.5 -25.5t-35.5 -66.5q0 -65 43.5 -128.5t108.5 -63.5z" />
    <glyph glyph-name="seven.numerator" horiz-adv-x="708" 
d="M170 557q-51 0 -67.5 29t8.5 73l301 547l49 78v4q-37 -4 -80 -4h-258q-84 0 -84 82v10q0 80 84 80h475q84 0 84 -65v-15q0 -55 -27 -102l-358 -658q-29 -59 -100 -59h-27z" />
    <glyph glyph-name="eight.numerator" horiz-adv-x="802" 
d="M403 535q-87 0 -162 30t-125 95.5t-50 154.5q0 120 139 227q-99 75 -99 183q0 118 88.5 184t211.5 66q79 0 147 -27.5t113 -86.5t45 -138q0 -21 -4.5 -43.5t-13.5 -42.5t-18 -37.5t-21.5 -34.5t-20 -27.5t-18 -23t-11.5 -13.5q127 -76 127 -202q0 -118 -97 -191t-231 -73
zM469 1065q59 66 59 145q0 45 -37 71t-85 26q-47 0 -80 -23t-33 -67q0 -21 10 -40t21.5 -31t38.5 -28t41.5 -23t51.5 -24q9 -4 13 -6zM401 700q53 0 94.5 30t41.5 79q0 19 -9 36.5t-21 29.5t-36.5 27t-40.5 22.5t-50 23.5t-50 23q-76 -71 -76 -146q0 -57 44 -91t103 -34z
" />
    <glyph glyph-name="nine.numerator" horiz-adv-x="780" 
d="M172 557q-76 25 -47 105l4 10q18 40 33.5 52.5t46.5 6.5q42 -14 80 -14q81 0 134 54t73 142h-4q-57 -43 -134 -43q-136 0 -219.5 84t-83.5 211q0 133 85 222.5t222 89.5q151 0 253 -113t102 -307q0 -95 -25.5 -185t-75.5 -166t-134 -122.5t-191 -46.5q-61 0 -119 20z
M397 1012q49 0 85 26t36 66q0 66 -43.5 129t-107.5 63q-55 0 -86 -38t-31 -97q0 -62 38 -105.5t109 -43.5z" />
    <glyph glyph-name="zero.denominator" horiz-adv-x="811" 
d="M406 -20q-332 0 -332 471q0 469 332 469q331 0 331 -469q0 -471 -331 -471zM406 158q135 0 135 293q0 288 -135 288q-136 0 -136 -288q0 -293 136 -293z" />
    <glyph glyph-name="one.denominator" horiz-adv-x="649" 
d="M143 0q-84 0 -84 80v10q0 80 72 80h115v424q0 15 1.5 29t2.5 21l2 7h-4q-6 -13 -29 -33l-33 -30q-34 -30 -73 6l-23 22q-55 58 10 117l125 123q49 43 105 43h26q84 0 84 -86v-643h103q84 0 84 -80v-10q0 -80 -84 -80h-400z" />
    <glyph glyph-name="two.denominator" horiz-adv-x="751" 
d="M139 0q-86 0 -86 86q0 71 23.5 130.5t61 100.5t82.5 75.5t90 62t82.5 54t61 58t23.5 66.5q0 47 -36 76.5t-89 29.5q-50 0 -104 -39q-36 -25 -61 -27t-56 23l-10 9q-66 60 -4 116q108 99 248 99q128 0 218.5 -75.5t90.5 -203.5q0 -69 -29 -126t-72.5 -93t-95.5 -70
t-96.5 -58.5t-76.5 -56.5t-36 -67h334q86 0 86 -80v-10q0 -80 -86 -80h-463z" />
    <glyph glyph-name="three.denominator" horiz-adv-x="741" 
d="M340 -20q-149 0 -254 83q-62 42 -16 111l10 12q22 32 49 35.5t61 -16.5q63 -47 140 -47q61 0 103 37t42 92q0 53 -45 84.5t-104 31.5h-23q-60 0 -80 48q-19 49 27 98l115 131q7 9 19.5 21t21.5 20l8 8v4q-41 -6 -72 -6h-180q-84 0 -84 82v10q0 80 84 80h403q86 0 86 -61
v-13q0 -30 -9 -50t-32 -46l-161 -184q101 -20 162 -87t61 -173q0 -124 -91.5 -214.5t-240.5 -90.5z" />
    <glyph glyph-name="four.denominator" horiz-adv-x="804" 
d="M530 0q-86 0 -86 86v117h-331q-84 0 -84 65v23q0 29 6 45.5t24 44.5l320 463q40 55 102 55h70q41 0 63.5 -22.5t22.5 -63.5v-442h53q72 0 72 -78v-10q0 -80 -72 -80h-53v-117q0 -86 -86 -86h-21zM225 371h219v225q0 24 2 52t4 44l3 17h-4q-25 -56 -54 -97l-170 -237v-4z
" />
    <glyph glyph-name="five.denominator" horiz-adv-x="741" 
d="M346 -20q-127 0 -248 83q-62 45 -12 117l6 8q22 32 50 34.5t61 -17.5q59 -47 129 -47q64 0 110.5 39t46.5 100t-46.5 101t-114.5 40q-43 0 -88 -18q-75 -15 -109 0q-53 21 -47 94l31 303q6 82 90 82h334q86 0 86 -80v-8q0 -80 -86 -80h-258l-11 -104l-8 -52l4 -2
q42 17 105 17q138 0 226.5 -85.5t88.5 -209.5q0 -128 -94 -221.5t-246 -93.5z" />
    <glyph glyph-name="six.denominator" horiz-adv-x="784" 
d="M420 -20q-149 0 -250.5 112t-101.5 307q0 95 25.5 185t75.5 166.5t134 123t191 46.5q52 0 118 -21q39 -13 50 -42.5t-5 -61.5l-4 -11q-18 -42 -32.5 -54t-45.5 -5q-2 1 -18 5t-30 6.5t-31 2.5q-82 0 -135.5 -55t-71.5 -143h4q49 43 133 43q136 0 219.5 -84t83.5 -209
q0 -133 -86 -222t-223 -89zM418 158q55 0 86 38t31 97q0 63 -38.5 106t-111.5 43q-48 0 -83.5 -25.5t-35.5 -66.5q0 -65 43.5 -128.5t108.5 -63.5z" />
    <glyph glyph-name="seven.denominator" horiz-adv-x="706" 
d="M170 0q-51 0 -67.5 29t8.5 73l301 547l49 78v4q-37 -4 -80 -4h-258q-84 0 -84 82v10q0 80 84 80h475q84 0 84 -65v-15q0 -55 -27 -102l-358 -658q-29 -59 -100 -59h-27z" />
    <glyph glyph-name="eight.denominator" horiz-adv-x="802" 
d="M403 -20q-87 0 -162 30t-125 95.5t-50 154.5q0 120 139 227q-99 75 -99 183q0 118 88.5 184t211.5 66q79 0 147 -27.5t113 -86.5t45 -138q0 -21 -4.5 -43.5t-13.5 -42.5t-18 -37.5t-21.5 -34.5t-20 -27.5t-18 -23t-11.5 -13.5q127 -76 127 -202q0 -118 -97 -191t-231 -73
zM469 510q59 66 59 145q0 45 -37 71t-85 26q-47 0 -80 -23t-33 -67q0 -21 10 -40t21.5 -31t38.5 -28t41.5 -23t51.5 -24q9 -4 13 -6zM401 145q53 0 94.5 30t41.5 79q0 19 -9 36.5t-21 29.5t-36.5 27t-40.5 22.5t-50 23.5t-50 23q-76 -71 -76 -146q0 -57 44 -91t103 -34z" />
    <glyph glyph-name="nine.denominator" horiz-adv-x="784" 
d="M172 0q-75 25 -47 104l4 11q18 40 33.5 52.5t46.5 6.5q42 -14 80 -14q81 0 134 54t73 142h-4q-57 -43 -134 -43q-136 0 -219.5 84t-83.5 211q0 133 85 222.5t222 89.5q151 0 253 -113t102 -307q0 -95 -25.5 -185t-75.5 -166t-134 -122.5t-191 -46.5q-61 0 -119 20z
M397 455q49 0 85 26t36 66q0 66 -43.5 129t-107.5 63q-55 0 -86 -38t-31 -97q0 -62 38 -105.5t109 -43.5z" />
    </font>
</defs>
</svg>
